<?xml version="1.0" encoding="UTF-8" standalone="no"?>
<svg
   xmlns:dc="http://purl.org/dc/elements/1.1/"
   xmlns:cc="http://creativecommons.org/ns#"
   xmlns:rdf="http://www.w3.org/1999/02/22-rdf-syntax-ns#"
   xmlns:svg="http://www.w3.org/2000/svg"
   xmlns="http://www.w3.org/2000/svg"
   xmlns:sodipodi="http://sodipodi.sourceforge.net/DTD/sodipodi-0.dtd"
   xmlns:inkscape="http://www.inkscape.org/namespaces/inkscape"
   width="1000px"
   height="500px"
   viewBox="0 0 1000 500"
   zoomAndPan="disable"
   preserveAspectRatio="none"
   id="svg2"
   version="1.1"
   inkscape:version="0.91 r13725"
   sodipodi:docname="intro.svg">
  <metadata
     id="metadata32">
    <rdf:RDF>
      <cc:Work
         rdf:about="">
        <dc:format>image/svg+xml</dc:format>
        <dc:type
           rdf:resource="http://purl.org/dc/dcmitype/StillImage" />
      </cc:Work>
    </rdf:RDF>
  </metadata>
  <defs
     id="defs30" />
  <sodipodi:namedview
     pagecolor="#ffffff"
     bordercolor="#666666"
     borderopacity="1"
     objecttolerance="10"
     gridtolerance="10"
     guidetolerance="10"
     inkscape:pageopacity="0"
     inkscape:pageshadow="2"
     inkscape:window-width="1301"
     inkscape:window-height="744"
     id="namedview28"
     showgrid="false"
     inkscape:zoom="1.0275868"
     inkscape:cx="682.89056"
     inkscape:cy="224.79861"
     inkscape:window-x="65"
     inkscape:window-y="24"
     inkscape:window-maximized="1"
     inkscape:current-layer="svg2" />
  <style
     type="text/css"
     id="style4"><![CDATA[
		line
		{
			stroke: rgba(255,255,255,0.05);
			stroke-width: 1px;
		}
    ]]></style>
  <line
     x1="1100"
     y1="500"
     x2="-1000"
     y2="250"
     id="line6" />
  <line
     x1="1100"
     y1="500"
     x2="-1000"
     y2="-100"
     id="line8" />
  <line
     x1="1100"
     y1="500"
     x2="-1000"
     y2="-500"
     id="line10" />
  <line
     x1="1100"
     y1="500"
     x2="-250"
     y2="-500"
     id="line12" />
  <line
     x1="1100"
     y1="500"
     x2="300"
     y2="-500"
     id="line14" />
  <line
     x1="1100"
     y1="500"
     x2="750"
     y2="-500"
     id="line16" />
  <line
     x1="1750"
     y1="0"
     x2="750"
     y2="500"
     id="line18" />
  <line
     x1="1500"
     y1="0"
     x2="500"
     y2="500"
     id="line20" />
  <line
     x1="1150"
     y1="0"
     x2="150"
     y2="500"
     id="line22" />
  <line
     x1="700"
     y1="0"
     x2="-300"
     y2="500"
     id="line24" />
  <line
     x1="150"
     y1="0"
     x2="-850"
     y2="500"
     id="line26" />
  <path
     style="color:#000000;font-style:normal;font-variant:normal;font-weight:normal;font-stretch:normal;font-size:medium;line-height:normal;font-family:sans-serif;text-indent:0;text-align:start;text-decoration:none;text-decoration-line:none;text-decoration-style:solid;text-decoration-color:#000000;letter-spacing:normal;word-spacing:normal;text-transform:none;direction:ltr;writing-mode:lr-tb;baseline-shift:baseline;text-anchor:start;white-space:normal;clip-rule:nonzero;display:inline;overflow:visible;visibility:visible;opacity:1;isolation:auto;mix-blend-mode:normal;color-interpolation:sRGB;color-interpolation-filters:linearRGB;solid-color:#000000;solid-opacity:1;fill:#000000;fill-opacity:1;fill-rule:nonzero;stroke:none;stroke-width:0.52916664;stroke-linecap:butt;stroke-linejoin:miter;stroke-miterlimit:4;stroke-dasharray:none;stroke-dashoffset:0;stroke-opacity:1;color-rendering:auto;image-rendering:auto;shape-rendering:auto;text-rendering:auto;enable-background:accumulate"
     d="m 772.56313,97.989199 0,0.002 c -25.09319,0.0279 -42.3982,2.733571 -69.23368,14.293521 l -0.22996,0.1005 0,0.24556 c 0,47.11018 3.13704,71.16513 13.52735,84.19165 5.19517,6.51326 12.20212,10.21803 21.42417,12.61085 9.1441,2.37259 20.4867,3.47259 34.51212,4.77733 0.1195,0.0111 0.23114,0.0222 0.35105,0.0331 l 0.0373,0.003 0.0373,-0.003 c 0.12097,-0.0111 0.23357,-0.0221 0.3541,-0.0331 14.02401,-1.3046 25.36564,-2.40492 34.50909,-4.77733 9.22201,-2.39282 16.23205,-6.09759 21.42719,-12.61085 10.39031,-13.02652 13.52736,-37.08147 13.52736,-84.19165 l 0,-0.24556 -0.23302,-0.1005 C 815.7391,100.72558 798.4344,98.019659 773.34286,97.991519 l 0,-0.002 -0.39141,0 z m 0,0.77144 0,114.687721 c -13.97256,-1.3002 -25.2874,-2.40289 -34.31033,-4.74405 -9.12379,-2.36732 -15.93526,-5.98145 -21.01066,-12.34457 C 707.11207,183.6595 703.89846,159.773 703.88536,112.88628 730.49317,101.45463 747.6194,98.789589 772.56313,98.760639 Z m 0.77978,0 c 24.94325,0.0292 42.0689,2.696051 68.67777,14.128591 -0.0133,46.88463 -3.23,70.77054 -13.35983,83.47051 -5.07538,6.36312 -11.88382,9.97725 -21.00761,12.34457 -9.02225,2.34099 -20.33923,3.44398 -34.31033,4.74405 z"
     id="path5974"
     inkscape:connector-curvature="0" />
  <ellipse
     style="opacity:1;fill:#000000;fill-opacity:1;stroke:none;stroke-width:0.52916664;stroke-linecap:round;stroke-linejoin:miter;stroke-miterlimit:4;stroke-dasharray:none;stroke-opacity:1;paint-order:normal"
     id="path6066"
     cx="772.95306"
     cy="156.11893"
     rx="9.9421978"
     ry="35.786701" />
  <path
     inkscape:connector-curvature="0"
     style="opacity:1;fill:#f8f8f8;fill-opacity:1;stroke:none;stroke-width:1.99999988;stroke-linecap:round;stroke-linejoin:miter;stroke-miterlimit:4;stroke-dasharray:none;stroke-opacity:1;paint-order:normal"
     d="m 774.51408,129.77239 c 1.41763,13.75087 1.29012,27.01696 0.0389,39.84437 a 4.7040125,19.9878 0 0 0 4.34439,-19.92441 4.7040125,19.9878 0 0 0 -4.38322,-19.91996 z"
     id="ellipse6106" />
  <path
     inkscape:connector-curvature="0"
     style="color:#000000;font-style:normal;font-variant:normal;font-weight:normal;font-stretch:normal;font-size:medium;line-height:normal;font-family:sans-serif;text-indent:0;text-align:start;text-decoration:none;text-decoration-line:none;text-decoration-style:solid;text-decoration-color:#000000;letter-spacing:normal;word-spacing:normal;text-transform:none;direction:ltr;writing-mode:lr-tb;baseline-shift:baseline;text-anchor:start;white-space:normal;clip-rule:nonzero;display:inline;overflow:visible;visibility:visible;opacity:1;isolation:auto;mix-blend-mode:normal;color-interpolation:sRGB;color-interpolation-filters:linearRGB;solid-color:#000000;solid-opacity:1;fill:#000000;fill-opacity:1;fill-rule:nonzero;stroke:none;stroke-width:1.99999988;stroke-linecap:butt;stroke-linejoin:miter;stroke-miterlimit:4;stroke-dasharray:none;stroke-dashoffset:0;stroke-opacity:1;color-rendering:auto;image-rendering:auto;shape-rendering:auto;text-rendering:auto;enable-background:accumulate"
     d="m 690.33895,154.18935 c 1.27581,-10.7411 2.95967,-21.43267 5.0381,-31.97607 3.62873,-1.63614 5.18054,-2.30754 7.77953,-3.48075 -0.002,-0.28142 -0.006,-0.54744 -0.007,-0.83062 -2.71966,1.22684 -4.41297,1.96247 -8.28516,3.70782 l -0.18048,0.0813 -0.0381,0.19083 c -2.00925,10.169 -3.67341,20.4761 -4.94064,30.83629 0.21402,0.48927 0.4182,0.98286 0.63433,1.47115 z"
     id="path6982" />
  <path
     inkscape:connector-curvature="0"
     style="color:#000000;font-style:normal;font-variant:normal;font-weight:normal;font-stretch:normal;font-size:medium;line-height:normal;font-family:sans-serif;text-indent:0;text-align:start;text-decoration:none;text-decoration-line:none;text-decoration-style:solid;text-decoration-color:#000000;letter-spacing:normal;word-spacing:normal;text-transform:none;direction:ltr;writing-mode:lr-tb;baseline-shift:baseline;text-anchor:start;white-space:normal;clip-rule:nonzero;display:inline;overflow:visible;visibility:visible;opacity:1;isolation:auto;mix-blend-mode:normal;color-interpolation:sRGB;color-interpolation-filters:linearRGB;solid-color:#000000;solid-opacity:1;fill:#000000;fill-opacity:1;fill-rule:nonzero;stroke:none;stroke-width:1.99999988;stroke-linecap:butt;stroke-linejoin:miter;stroke-miterlimit:4;stroke-dasharray:none;stroke-dashoffset:0;stroke-opacity:1;color-rendering:auto;image-rendering:auto;shape-rendering:auto;text-rendering:auto;enable-background:accumulate"
     d="m 690.33895,154.18935 c -0.21614,-0.48828 -0.42032,-0.98188 -0.63435,-1.47114 -0.0546,0.44617 -0.0848,0.89462 -0.13782,1.34098 0.21573,0.48883 0.41722,0.984 0.63509,1.47187 0.0515,-0.44678 0.0841,-0.89509 0.13708,-1.34171 z"
     id="path6980" />
  <path
     inkscape:connector-curvature="0"
     style="color:#000000;font-style:normal;font-variant:normal;font-weight:normal;font-stretch:normal;font-size:medium;line-height:normal;font-family:sans-serif;text-indent:0;text-align:start;text-decoration:none;text-decoration-line:none;text-decoration-style:solid;text-decoration-color:#000000;letter-spacing:normal;word-spacing:normal;text-transform:none;direction:ltr;writing-mode:lr-tb;baseline-shift:baseline;text-anchor:start;white-space:normal;clip-rule:nonzero;display:inline;overflow:visible;visibility:visible;opacity:1;isolation:auto;mix-blend-mode:normal;color-interpolation:sRGB;color-interpolation-filters:linearRGB;solid-color:#000000;solid-opacity:1;fill:#000000;fill-opacity:1;fill-rule:nonzero;stroke:none;stroke-width:1.99999988;stroke-linecap:butt;stroke-linejoin:miter;stroke-miterlimit:4;stroke-dasharray:none;stroke-dashoffset:0;stroke-opacity:1;color-rendering:auto;image-rendering:auto;shape-rendering:auto;text-rendering:auto;enable-background:accumulate"
     d="m 853.81635,254.11018 c -0.0995,-0.0232 -0.19588,-0.0579 -0.29546,-0.0806 l -0.15153,0.62424 c 0.107,0.0244 0.21067,0.0614 0.31753,0.0865 0.0423,-0.21047 0.0878,-0.41948 0.12946,-0.63016 z"
     id="path6978" />
  <path
     inkscape:connector-curvature="0"
     style="color:#000000;font-style:normal;font-variant:normal;font-weight:normal;font-stretch:normal;font-size:medium;line-height:normal;font-family:sans-serif;text-indent:0;text-align:start;text-decoration:none;text-decoration-line:none;text-decoration-style:solid;text-decoration-color:#000000;letter-spacing:normal;word-spacing:normal;text-transform:none;direction:ltr;writing-mode:lr-tb;baseline-shift:baseline;text-anchor:start;white-space:normal;clip-rule:nonzero;display:inline;overflow:visible;visibility:visible;opacity:1;isolation:auto;mix-blend-mode:normal;color-interpolation:sRGB;color-interpolation-filters:linearRGB;solid-color:#000000;solid-opacity:1;fill:#000000;fill-opacity:1;fill-rule:nonzero;stroke:none;stroke-width:1.99999988;stroke-linecap:butt;stroke-linejoin:miter;stroke-miterlimit:4;stroke-dasharray:none;stroke-dashoffset:0;stroke-opacity:1;color-rendering:auto;image-rendering:auto;shape-rendering:auto;text-rendering:auto;enable-background:accumulate"
     d="m 854.75757,249.04587 c -0.009,-0.002 -0.0182,-0.005 -0.0273,-0.008 l -0.1508,0.62426 c 0.0227,0.005 0.0445,0.0133 0.067,0.0185 0.0379,-0.21147 0.0738,-0.4237 0.11119,-0.63537 z"
     id="path6976" />
  <path
     inkscape:connector-curvature="0"
     style="color:#000000;font-style:normal;font-variant:normal;font-weight:normal;font-stretch:normal;font-size:medium;line-height:normal;font-family:sans-serif;text-indent:0;text-align:start;text-decoration:none;text-decoration-line:none;text-decoration-style:solid;text-decoration-color:#000000;letter-spacing:normal;word-spacing:normal;text-transform:none;direction:ltr;writing-mode:lr-tb;baseline-shift:baseline;text-anchor:start;white-space:normal;clip-rule:nonzero;display:inline;overflow:visible;visibility:visible;opacity:1;isolation:auto;mix-blend-mode:normal;color-interpolation:sRGB;color-interpolation-filters:linearRGB;solid-color:#000000;solid-opacity:1;fill:#000000;fill-opacity:1;fill-rule:nonzero;stroke:none;stroke-width:1.99999988;stroke-linecap:butt;stroke-linejoin:miter;stroke-miterlimit:4;stroke-dasharray:none;stroke-dashoffset:0;stroke-opacity:1;color-rendering:auto;image-rendering:auto;shape-rendering:auto;text-rendering:auto;enable-background:accumulate"
     d="m 851.67577,124.20808 c -0.0442,-0.23003 -0.0789,-0.46314 -0.12337,-0.69304 -0.11479,0.10093 -0.25101,0.17755 -0.36399,0.28032 l 0.43558,0.45266 c 0.0161,-0.0146 0.0357,-0.0254 0.0517,-0.0399 z"
     id="path7044" />
  <path
     inkscape:connector-curvature="0"
     style="color:#000000;font-style:normal;font-variant:normal;font-weight:normal;font-stretch:normal;font-size:medium;line-height:normal;font-family:sans-serif;text-indent:0;text-align:start;text-decoration:none;text-decoration-line:none;text-decoration-style:solid;text-decoration-color:#000000;letter-spacing:normal;word-spacing:normal;text-transform:none;direction:ltr;writing-mode:lr-tb;baseline-shift:baseline;text-anchor:start;white-space:normal;clip-rule:nonzero;display:inline;overflow:visible;visibility:visible;opacity:1;isolation:auto;mix-blend-mode:normal;color-interpolation:sRGB;color-interpolation-filters:linearRGB;solid-color:#000000;solid-opacity:1;fill:#000000;fill-opacity:1;fill-rule:nonzero;stroke:none;stroke-width:1.99999988;stroke-linecap:butt;stroke-linejoin:miter;stroke-miterlimit:4;stroke-dasharray:none;stroke-dashoffset:0;stroke-opacity:1;color-rendering:auto;image-rendering:auto;shape-rendering:auto;text-rendering:auto;enable-background:accumulate"
     d="m 858.01376,208.5558 c -1.33639,41.04438 -10.47897,80.49677 -30.9026,112.92071 0.21445,0.1445 0.43472,0.28202 0.64956,0.42604 12.69298,-20.13476 21.06831,-42.94628 25.92617,-67.16221 -0.10686,-0.025 -0.21053,-0.0621 -0.31753,-0.0865 l 0.15153,-0.62424 c 0.0996,0.0227 0.196,0.0575 0.29546,0.0806 0.29107,-1.47088 0.56464,-2.94815 0.83004,-4.42897 -0.0227,-0.005 -0.0443,-0.0133 -0.067,-0.0185 l 0.15079,-0.62425 c 0.009,0.002 0.0182,0.005 0.0275,0.008 2.36978,-13.41789 3.68115,-27.23017 4.10374,-41.21714 -0.28233,0.2426 -0.56439,0.48551 -0.84755,0.72706 z"
     id="path7040" />
  <path
     inkscape:connector-curvature="0"
     style="color:#000000;font-style:normal;font-variant:normal;font-weight:normal;font-stretch:normal;font-size:medium;line-height:normal;font-family:sans-serif;text-indent:0;text-align:start;text-decoration:none;text-decoration-line:none;text-decoration-style:solid;text-decoration-color:#000000;letter-spacing:normal;word-spacing:normal;text-transform:none;direction:ltr;writing-mode:lr-tb;baseline-shift:baseline;text-anchor:start;white-space:normal;clip-rule:nonzero;display:inline;overflow:visible;visibility:visible;opacity:1;isolation:auto;mix-blend-mode:normal;color-interpolation:sRGB;color-interpolation-filters:linearRGB;solid-color:#000000;solid-opacity:1;fill:#000000;fill-opacity:1;fill-rule:nonzero;stroke:none;stroke-width:1.99999988;stroke-linecap:butt;stroke-linejoin:miter;stroke-miterlimit:4;stroke-dasharray:none;stroke-dashoffset:0;stroke-opacity:1;color-rendering:auto;image-rendering:auto;shape-rendering:auto;text-rendering:auto;enable-background:accumulate"
     d="m 847.75021,120.13636 c -1.59507,-0.71109 -3.35415,-1.49508 -4.99318,-2.23445 -0.002,0.28318 -0.005,0.5492 -0.007,0.83062 2.59898,1.17321 4.15079,1.84461 7.77953,3.48075 5.09122,25.82649 7.94363,52.52706 7.70566,78.71536 0.24658,-0.21843 0.50511,-0.42494 0.75083,-0.64423 0.18226,-25.32278 -2.51098,-51.08489 -7.30968,-76.07633 -0.0161,0.0145 -0.0357,0.0254 -0.0517,0.0399 l -0.43558,-0.45265 c 0.11299,-0.10276 0.2492,-0.17939 0.364,-0.28032 -0.10495,-0.54179 -0.18476,-1.09211 -0.29167,-1.63313 l -0.038,-0.19082 -0.18046,-0.0813 c -1.24108,-0.5594 -1.75643,-0.78722 -2.65537,-1.18861 -0.0806,0.0718 -0.16837,0.13533 -0.24825,0.20785 l -0.43558,-0.45266 c 0.0153,-0.0138 0.032,-0.0262 0.0472,-0.0399 z"
     id="path7034" />
  <path
     inkscape:connector-curvature="0"
     style="color:#000000;font-style:normal;font-variant:normal;font-weight:normal;font-stretch:normal;font-size:medium;line-height:normal;font-family:sans-serif;text-indent:0;text-align:start;text-decoration:none;text-decoration-line:none;text-decoration-style:solid;text-decoration-color:#000000;letter-spacing:normal;word-spacing:normal;text-transform:none;direction:ltr;writing-mode:lr-tb;baseline-shift:baseline;text-anchor:start;white-space:normal;clip-rule:nonzero;display:inline;overflow:visible;visibility:visible;opacity:1;isolation:auto;mix-blend-mode:normal;color-interpolation:sRGB;color-interpolation-filters:linearRGB;solid-color:#000000;solid-opacity:1;fill:#000000;fill-opacity:1;fill-rule:nonzero;stroke:none;stroke-width:1.99999988;stroke-linecap:butt;stroke-linejoin:miter;stroke-miterlimit:4;stroke-dasharray:none;stroke-dashoffset:0;stroke-opacity:1;color-rendering:auto;image-rendering:auto;shape-rendering:auto;text-rendering:auto;enable-background:accumulate"
     d="m 847.75021,120.13636 c -0.0153,0.0138 -0.0318,0.0261 -0.0472,0.0399 l 0.43557,0.45266 c 0.0799,-0.0725 0.16764,-0.13612 0.24826,-0.20784 -0.21549,-0.0962 -0.43326,-0.19411 -0.63662,-0.28477 z"
     id="path6974" />
  <path
     inkscape:connector-curvature="0"
     style="color:#000000;font-style:normal;font-variant:normal;font-weight:normal;font-stretch:normal;font-size:medium;line-height:normal;font-family:sans-serif;text-indent:0;text-align:start;text-decoration:none;text-decoration-line:none;text-decoration-style:solid;text-decoration-color:#000000;letter-spacing:normal;word-spacing:normal;text-transform:none;direction:ltr;writing-mode:lr-tb;baseline-shift:baseline;text-anchor:start;white-space:normal;clip-rule:nonzero;display:inline;overflow:visible;visibility:visible;opacity:1;isolation:auto;mix-blend-mode:normal;color-interpolation:sRGB;color-interpolation-filters:linearRGB;solid-color:#000000;solid-opacity:1;fill:#000000;fill-opacity:1;fill-rule:nonzero;stroke:none;stroke-width:1.99999988;stroke-linecap:butt;stroke-linejoin:miter;stroke-miterlimit:4;stroke-dasharray:none;stroke-dashoffset:0;stroke-opacity:1;color-rendering:auto;image-rendering:auto;shape-rendering:auto;text-rendering:auto;enable-background:accumulate"
     d="m 691.45531,250.42899 c 0.0371,0.20362 0.0652,0.41046 0.10282,0.6139 0.15047,-0.0335 0.2972,-0.0816 0.44778,-0.1147 l -0.14013,-0.6043 c -0.138,0.0303 -0.27251,0.0743 -0.41044,0.10502 z"
     id="path7029" />
  <path
     inkscape:connector-curvature="0"
     style="color:#000000;font-style:normal;font-variant:normal;font-weight:normal;font-stretch:normal;font-size:medium;line-height:normal;font-family:sans-serif;text-indent:0;text-align:start;text-decoration:none;text-decoration-line:none;text-decoration-style:solid;text-decoration-color:#000000;letter-spacing:normal;word-spacing:normal;text-transform:none;direction:ltr;writing-mode:lr-tb;baseline-shift:baseline;text-anchor:start;white-space:normal;clip-rule:nonzero;display:inline;overflow:visible;visibility:visible;opacity:1;isolation:auto;mix-blend-mode:normal;color-interpolation:sRGB;color-interpolation-filters:linearRGB;solid-color:#000000;solid-opacity:1;fill:#000000;fill-opacity:1;fill-rule:nonzero;stroke:none;stroke-width:1.99999988;stroke-linecap:butt;stroke-linejoin:miter;stroke-miterlimit:4;stroke-dasharray:none;stroke-dashoffset:0;stroke-opacity:1;color-rendering:auto;image-rendering:auto;shape-rendering:auto;text-rendering:auto;enable-background:accumulate"
     d="m 708.66835,304.81466 c 7.8132,16.18659 17.94893,31.05343 30.75562,44.05144 4.08411,4.1451 12.45041,6.0229 19.809,6.94446 7.35862,0.92157 13.72537,0.8395 13.72537,0.8395 0.0165,1.9e-4 6.36564,0.0808 13.71468,-0.8395 7.3586,-0.92156 15.7249,-2.79936 19.80899,-6.94446 6.76479,-6.86585 12.77879,-14.25791 18.10706,-22.08563 -0.21475,-0.14376 -0.43363,-0.28028 -0.64804,-0.42456 -5.30399,7.79532 -11.29058,15.15401 -18.02253,21.98652 -3.79122,3.84786 -12.04905,5.80367 -19.34525,6.7174 -7.29619,0.91375 -13.61491,0.83284 -13.61491,0.83284 l -0.005,0 -0.005,0 c 0,0 -6.31874,0.0808 -13.61493,-0.83284 -7.2962,-0.91373 -15.55402,-2.86954 -19.34525,-6.7174 -12.74581,-12.9362 -22.83305,-27.74602 -30.61474,-43.8754 -0.23487,0.11569 -0.46968,0.2319 -0.7044,0.34763 z"
     id="path7025" />
  <path
     inkscape:connector-curvature="0"
     style="color:#000000;font-style:normal;font-variant:normal;font-weight:normal;font-stretch:normal;font-size:medium;line-height:normal;font-family:sans-serif;text-indent:0;text-align:start;text-decoration:none;text-decoration-line:none;text-decoration-style:solid;text-decoration-color:#000000;letter-spacing:normal;word-spacing:normal;text-transform:none;direction:ltr;writing-mode:lr-tb;baseline-shift:baseline;text-anchor:start;white-space:normal;clip-rule:nonzero;display:inline;overflow:visible;visibility:visible;opacity:1;isolation:auto;mix-blend-mode:normal;color-interpolation:sRGB;color-interpolation-filters:linearRGB;solid-color:#000000;solid-opacity:1;fill:#000000;fill-opacity:1;fill-rule:nonzero;stroke:none;stroke-width:1.99999988;stroke-linecap:butt;stroke-linejoin:miter;stroke-miterlimit:4;stroke-dasharray:none;stroke-dashoffset:0;stroke-opacity:1;color-rendering:auto;image-rendering:auto;shape-rendering:auto;text-rendering:auto;enable-background:accumulate"
     d="m 690.73493,246.13242 c 0.23574,1.43394 0.4611,2.87143 0.72038,4.29657 0.13793,-0.0307 0.27243,-0.0747 0.41044,-0.10502 l 0.14013,0.60429 c -0.15059,0.033 -0.2973,0.081 -0.44776,0.11471 3.13995,17.02043 7.94113,33.40265 14.75108,48.6823 0.23397,-0.11532 0.46741,-0.231 0.70135,-0.34614 -17.68292,-39.70758 -22.02513,-86.83675 -17.85269,-133.63358 -0.21978,-0.46039 -0.43031,-0.9248 -0.64804,-1.38609 -2.54188,27.42949 -2.11618,54.9845 2.1223,81.15839 0.0363,-0.008 0.0718,-0.0194 0.10813,-0.0273 l 0.14089,0.60429 c -0.0492,0.0111 -0.097,0.0269 -0.14621,0.0377 z"
     id="path7023" />
  <path
     inkscape:connector-curvature="0"
     style="color:#000000;font-style:normal;font-variant:normal;font-weight:normal;font-stretch:normal;font-size:medium;line-height:normal;font-family:sans-serif;text-indent:0;text-align:start;text-decoration:none;text-decoration-line:none;text-decoration-style:solid;text-decoration-color:#000000;letter-spacing:normal;word-spacing:normal;text-transform:none;direction:ltr;writing-mode:lr-tb;baseline-shift:baseline;text-anchor:start;white-space:normal;clip-rule:nonzero;display:inline;overflow:visible;visibility:visible;opacity:1;isolation:auto;mix-blend-mode:normal;color-interpolation:sRGB;color-interpolation-filters:linearRGB;solid-color:#000000;solid-opacity:1;fill:#000000;fill-opacity:1;fill-rule:nonzero;stroke:none;stroke-width:1.99999988;stroke-linecap:butt;stroke-linejoin:miter;stroke-miterlimit:4;stroke-dasharray:none;stroke-dashoffset:0;stroke-opacity:1;color-rendering:auto;image-rendering:auto;shape-rendering:auto;text-rendering:auto;enable-background:accumulate"
     d="m 690.73493,246.13242 c 0.0491,-0.0111 0.097,-0.027 0.14621,-0.0377 l -0.14089,-0.60427 c -0.0362,0.008 -0.0717,0.0194 -0.10813,0.0273 0.0333,0.20529 0.0691,0.40952 0.10285,0.61464 z"
     id="path7021" />
  <path
     inkscape:connector-curvature="0"
     style="color:#000000;font-style:normal;font-variant:normal;font-weight:normal;font-stretch:normal;font-size:medium;line-height:normal;font-family:sans-serif;text-indent:0;text-align:start;text-decoration:none;text-decoration-line:none;text-decoration-style:solid;text-decoration-color:#000000;letter-spacing:normal;word-spacing:normal;text-transform:none;direction:ltr;writing-mode:lr-tb;baseline-shift:baseline;text-anchor:start;white-space:normal;clip-rule:nonzero;display:inline;overflow:visible;visibility:visible;opacity:1;isolation:auto;mix-blend-mode:normal;color-interpolation:sRGB;color-interpolation-filters:linearRGB;solid-color:#000000;solid-opacity:1;fill:#000000;fill-opacity:1;fill-rule:nonzero;stroke:none;stroke-width:1.99999988;stroke-linecap:butt;stroke-linejoin:miter;stroke-miterlimit:4;stroke-dasharray:none;stroke-dashoffset:0;stroke-opacity:1;color-rendering:auto;image-rendering:auto;shape-rendering:auto;text-rendering:auto;enable-background:accumulate"
     d="m 688.50982,164.35939 c 0.21773,0.4613 0.42826,0.92569 0.64804,1.3861 0.0378,-0.42423 0.091,-0.8473 0.13021,-1.27145 -0.21815,-0.46076 -0.43116,-0.92369 -0.64728,-1.38535 -0.0406,0.42387 -0.0916,0.84678 -0.13097,1.2707 z"
     id="path6217" />
  <path
     inkscape:connector-curvature="0"
     style="fill:#000000;stroke-width:0.21016513"
     d="m 780.43477,280.9221 c -0.10659,0.30366 -0.14071,0.40307 -0.24368,0.69747 0.79744,0.85787 1.58072,1.73087 2.38502,2.58135 1.65536,1.75034 3.34487,3.46404 5.03279,5.17895 0.6586,0.55109 1.24503,1.17528 1.79183,1.84466 0.017,0.017 0.0333,0.0349 0.0503,0.0518 2.32376,2.32312 4.68163,4.60882 7.0797,6.8498 1.37567,1.28554 2.7965,2.52101 4.1997,3.77586 a 40.527005,130.67566 0 0 0 0.0366,-0.83949 c -1.26031,-1.13211 -2.54111,-2.24072 -3.77935,-3.3979 -2.39224,-2.23568 -4.74482,-4.51643 -7.06371,-6.83501 -2.31888,-2.31857 -4.60372,-4.67472 -6.86115,-7.06208 -0.88618,-0.93716 -1.74998,-1.89913 -2.62795,-2.84539 z"
     id="path7013" />
  <path
     inkscape:connector-curvature="0"
     style="fill:#000000;stroke-width:0.21016513"
     d="m 780.43477,280.9221 c 0.87797,0.94625 1.74179,1.90822 2.62795,2.84539 2.25742,2.38736 4.54228,4.74351 6.86115,7.06208 2.31888,2.31857 4.67148,4.59933 7.06371,6.835 1.23823,1.15718 2.51906,2.26579 3.77936,3.3979 a 40.527005,130.67566 0 0 0 0.58253,-21.06197 40.527005,130.67566 0 0 0 -0.33201,-15.37044 c -1.00634,0.79969 -2.28535,1.68174 -3.33385,2.28401 -0.26497,0.15221 -1.43546,0.79268 -2.6013,1.42306 -1.16585,0.6304 -3.62291,1.99282 -5.46,3.02735 -3.01832,1.69972 -5.05667,2.7689 -6.58014,3.45115 l -0.54296,0.24336 -0.63662,1.76699 c -0.54579,1.51557 -0.80199,2.31318 -1.42782,4.09612 z"
     id="path7011" />
  <path
     inkscape:connector-curvature="0"
     style="fill:#000000;stroke-width:0.21016513"
     d="m 799.8714,245.4172 c -1.66338,1.17084 -3.3222,2.34952 -4.99546,3.50367 -2.77082,1.9112 -5.5567,3.79717 -8.36284,5.65084 -0.16994,0.11224 -0.3439,0.21929 -0.51401,0.33136 -0.1135,0.32414 -0.21633,0.65544 -0.34192,0.96375 0.40245,-0.2641 0.81305,-0.51721 1.2146,-0.78255 2.81013,-1.85638 5.59889,-3.74495 8.37273,-5.65822 1.56728,-1.08105 3.12042,-2.1855 4.67869,-3.28106 a 40.527005,130.67566 0 0 0 -0.0518,-0.72779 z"
     id="path7068" />
  <path
     inkscape:connector-curvature="0"
     style="fill:#000000;stroke-width:0.21016513"
     d="m 767.55012,266.49765 c 0.13139,-0.0791 0.26621,-0.15374 0.39752,-0.23298 3.13627,-1.89257 6.254,-3.80909 9.34973,-5.75587 1.07229,-0.67431 2.12554,-1.37442 3.19223,-2.0562 -0.22299,-0.34903 -0.41469,-0.72799 -0.54676,-1.18712 -0.2211,-0.76864 -0.20807,-2.15382 0.0313,-3.25516 0.76592,-3.52509 3.37606,-6.88291 5.32367,-6.92597 l 0,-8.2e-4 c 0.0629,-0.001 0.1252,0.001 0.18657,0.008 0.70489,0.0646 1.114,0.43295 1.36996,1.23372 0.16182,0.50635 0.18577,0.69181 0.18275,1.41494 -0.002,0.45778 -0.048,1.15335 -0.1021,1.5451 -0.16466,1.19146 -0.52051,2.43192 -0.93589,3.61831 0.17011,-0.11212 0.34407,-0.21905 0.51402,-0.33135 2.80616,-1.85368 5.59203,-3.73964 8.36284,-5.65084 1.67328,-1.15415 3.33208,-2.33283 4.99547,-3.50368 a 40.527005,130.67566 0 0 0 -0.32897,-3.57097 164.38249,40.03281 0 0 0 -26.36784,-0.5784 164.38249,40.03281 0 0 0 -26.48055,0.56212 c 3.389,4.09929 6.79644,8.18762 10.23081,12.25878 3.51565,4.16061 7.06141,8.29447 10.62527,12.40892 z"
     id="path7066" />
  <path
     inkscape:connector-curvature="0"
     style="fill:#000000;stroke-width:0.21016513"
     d="m 767.9621,266.97915 c 0.10645,-0.0642 0.21572,-0.12439 0.32212,-0.18859 3.13926,-1.89441 6.26022,-3.81268 9.35964,-5.76181 1.09308,-0.6874 2.16729,-1.40091 3.25467,-2.09612 -0.14034,-0.15362 -0.29518,-0.30201 -0.40893,-0.48003 -1.06669,0.68178 -2.11994,1.38189 -3.19223,2.0562 -3.09573,1.94678 -6.21346,3.8633 -9.34973,5.75587 -0.13131,0.0792 -0.26613,0.15383 -0.39752,0.23298 0.13826,0.1596 0.27362,0.32202 0.41198,0.4815 z"
     id="path7064" />
  <path
     inkscape:connector-curvature="0"
     style="fill:#000000;stroke-width:0.21016513"
     d="m 784.19508,262.75433 c 1.87385,-0.4879 3.68698,-0.96152 6.43927,-1.57394 2.52912,-0.56277 5.87449,-1.51715 7.69197,-2.19451 0.51226,-0.19093 1.37976,-0.48383 1.92736,-0.65015 0.27934,-0.0849 0.31028,-0.0956 0.52088,-0.15976 a 40.527005,130.67566 0 0 0 -0.4394,-6.20854 c -0.71432,0.49718 -1.42001,1.00415 -2.13678,1.49852 -2.79815,1.92993 -5.61532,3.83792 -8.45727,5.71593 -1.83539,1.21244 -3.69473,2.38588 -5.54603,3.57245 z"
     id="path7062" />
  <path
     inkscape:connector-curvature="0"
     style="fill:#000000;stroke-width:0.21016513"
     d="m 800.28414,251.23964 c -0.82004,0.57149 -1.63115,1.15338 -2.45432,1.72114 -2.79513,1.92785 -5.60941,3.83323 -8.44737,5.70854 -2.33178,1.54038 -4.68948,3.03979 -7.04696,4.53916 0.49025,-0.13686 1.31848,-0.31325 1.85959,-0.45415 1.8513,-1.18657 3.71064,-2.36001 5.54603,-3.57245 2.84195,-1.87801 5.65912,-3.786 8.45727,-5.71593 0.71677,-0.49437 1.42246,-1.00134 2.13678,-1.49852 a 40.527005,130.67566 0 0 0 -0.051,-0.72779 z"
     id="path7009" />
  <path
     style="fill:#000000;stroke-width:0.21016513"
     d="m 793.32552,302.21778 c 0.0788,1.52419 1.00175,3.80164 -0.0891,5.15455 -0.82658,1.02515 -2.5902,1.32682 -3.88782,0.99981 -2.26623,-0.57112 -3.7232,-2.86483 -5.05927,-4.73225 -1.94103,-2.71288 -3.5188,-5.68652 -6.51057,-6.61253 -1.72224,-0.53308 -3.75802,0.12235 -5.32444,0.99851 -5.89768,3.29888 -9.03729,9.88854 -13.40943,14.95441 -1.25788,1.45746 -2.68462,3.09398 -3.68796,4.44078 5.83902,0.18928 11.71414,0.28855 17.59607,0.29735 8.95467,-0.002 17.89099,-0.21598 26.70594,-0.6361 0.24698,-2.83692 0.46414,-5.69997 0.65108,-8.58424 -2.37239,-2.05065 -4.69435,-4.15049 -6.98452,-6.28029 z"
     id="path6999"
     inkscape:connector-curvature="0"
     sodipodi:nodetypes="caasaaaccccc" />
  <path
     inkscape:connector-curvature="0"
     style="fill:#000000;stroke-width:0.21016513"
     d="m 793.32552,302.21778 c 2.29014,2.1298 4.61211,4.22964 6.98452,6.28029 a 40.527005,130.67566 0 0 0 0.0616,-0.81657 c -2.38538,-2.07039 -4.73493,-4.17649 -7.03782,-6.32761 -0.0273,-0.0255 -0.0534,-0.0521 -0.0807,-0.0776 0.0414,0.33587 0.0567,0.63972 0.0723,0.94156 z"
     id="path6997" />
  <path
     inkscape:connector-curvature="0"
     style="fill:#000000;stroke-width:0.21016513"
     d="m 778.24774,287.19423 c -0.007,0.0271 -0.15536,0.44056 -0.15536,0.446 0,0.18497 0.0838,0.15428 0.45919,-0.11766 -0.10252,-0.10843 -0.20141,-0.21988 -0.30383,-0.3284 z"
     id="path6995" />
  <path
     inkscape:connector-curvature="0"
     style="fill:#000000;stroke-width:0.21016513"
     d="m 778.24774,287.19423 c 0.10242,0.10855 0.2013,0.21999 0.30383,0.32841 0.0299,-0.0215 0.0299,-0.0164 0.064,-0.0414 0.15822,-0.11643 0.34615,-0.19165 0.52316,-0.28253 -0.21876,-0.23112 -0.42987,-0.46881 -0.64806,-0.70045 -0.0294,0.0909 -0.23089,0.65375 -0.2429,0.69601 z"
     id="path6993" />
  <path
     inkscape:connector-curvature="0"
     style="fill:#000000;stroke-width:0.21016513"
     d="m 769.74021,277.89993 c 0.14905,0.16676 0.29623,0.33488 0.44547,0.50148 0.004,-0.0373 0.0252,-0.1568 0.0259,-0.18269 l 0.0121,-0.43713 -0.2566,0.0317 c -0.0572,0.008 -0.16377,0.073 -0.22694,0.0865 z"
     id="path6991" />
  <path
     inkscape:connector-curvature="0"
     style="fill:#000000;stroke-width:0.21016513"
     d="m 744.55727,279.84666 c 1.46282,-0.82526 2.93135,-1.63538 4.39159,-2.46817 4.51679,-2.57658 8.9805,-5.22454 13.44816,-7.86681 -3.37944,-3.91146 -6.74844,-7.83181 -10.06556,-11.76618 -2.21954,-2.62821 -4.41555,-5.28839 -6.62433,-7.93337 a 40.527005,130.67565 0 0 0 -1.14986,30.03453 z"
     id="path7055" />
  <path
     inkscape:connector-curvature="0"
     style="fill:#000000;stroke-width:0.21016513"
     d="m 744.56641,280.55746 c 1.56764,-0.88358 3.14109,-1.75283 4.70532,-2.64496 4.54573,-2.593 9.03991,-5.25874 13.53728,-7.91932 -0.13845,-0.15999 -0.27368,-0.32142 -0.41199,-0.4815 -4.46766,2.64227 -8.93137,5.29023 -13.44816,7.86681 -1.46024,0.83279 -2.92877,1.64291 -4.39159,2.46817 a 40.527005,130.67565 0 0 0 -7.6e-4,0.15384 40.527005,130.67565 0 0 0 0.009,0.55696 z"
     id="path7053" />
  <path
     style="fill:#000000;stroke-width:0.21016513"
     d="m 744.66388,286.22827 c 0.15585,10.44775 0.70014,20.79737 1.62124,30.82668 0.7624,0.0324 1.52571,0.0632 2.28985,0.0924 0.7977,-1.6404 1.96357,-3.68217 2.92494,-5.08725 1.13702,-1.66179 1.91646,-2.71803 3.76259,-5.0961 0.8859,-1.14116 2.36011,-3.04035 3.27599,-4.22039 0.91587,-1.18005 2.15681,-2.82301 2.75741,-3.65159 1.2721,-1.755 3.34998,-5.00703 4.18064,-6.54211 2.24514,-4.14904 3.69251,-8.21876 4.49363,-12.63452 0.11212,-0.61787 0.19064,-1.205 0.21551,-1.51403 -0.14924,-0.16661 -0.29642,-0.33473 -0.44547,-0.50148 -0.84265,0.18109 -2.15188,0.87536 -3.49834,1.91344 -1.0047,0.7746 -3.66389,3.15139 -4.88201,4.36386 -1.92041,1.91149 -4.25368,4.23775 -4.84774,3.7522 -0.25033,-0.20461 -0.50077,-0.69859 -0.57798,-1.14051 -0.32005,-1.83214 2.60476,-6.72029 6.38902,-10.66414 0.0551,-0.0575 0.0978,-0.0951 0.1523,-0.15162 -3.53898,2.07375 -7.06024,4.18295 -10.61994,6.21297 -2.38522,1.36058 -4.79017,2.69955 -7.19164,4.04213 z"
     id="path7051"
     inkscape:connector-curvature="0"
     sodipodi:nodetypes="ccccccccccccccscccc" />
  <path
     inkscape:connector-curvature="0"
     style="fill:#000000;stroke-width:0.21016513"
     d="m 764.24215,274.21727 c -4.2283,2.49419 -8.4485,5.00481 -12.7095,7.43486 -2.28283,1.30213 -4.58419,2.58137 -6.88096,3.86681 a 40.527005,130.67565 0 0 0 0.0122,0.70933 c 2.40148,-1.34258 4.80643,-2.68155 7.19165,-4.04213 3.55969,-2.03003 7.08096,-4.13921 10.61994,-6.21296 0.63158,-0.65425 1.19199,-1.19312 1.76669,-1.75591 z"
     id="path6989" />
  <path
     inkscape:connector-curvature="0"
     style="fill:#000000;stroke:none;stroke-width:0.99999994px;stroke-linecap:butt;stroke-linejoin:miter;stroke-opacity:1"
     d="m 766.97672,266.83271 c 0.18947,-0.11385 0.38406,-0.22097 0.5734,-0.33506 -3.56389,-4.11444 -7.10961,-8.24832 -10.62527,-12.40893 -16.37516,-19.41142 -32.51224,-38.98036 -45.76334,-60.25692 -15.19699,-24.36473 -26.57899,-50.91234 -35.5828,-78.15545 -5.1168,-15.684771 -9.54116,-31.797252 -7.44904,-47.490031 1.02038,-7.836007 3.59792,-15.503563 8.07348,-21.90959 4.46342,-6.388653 10.83982,-11.611842 18.19918,-14.099001 8.54401,-2.979209 18.38993,-2.19498 27.10117,1.035503 8.74431,3.249408 16.47272,9.030096 23.14439,15.763181 13.35764,13.549413 22.32815,31.205354 25.27432,49.745177 l 0.65261,-0.0983 c -2.96806,-18.67251 -11.9975,-36.442928 -25.45023,-50.089886 -6.71529,-6.785524 -14.52281,-12.617689 -23.38274,-15.917772 -8.83359,-3.285139 -18.83241,-4.071586 -27.55884,-1.042157 -7.51035,2.545856 -13.99572,7.851324 -18.52663,14.345298 -4.5405,6.507736 -7.15354,14.267835 -8.18084,22.188439 -2.09455,15.857365 2.33804,32.061779 7.47493,47.765169 9.01372,27.27815 20.41636,53.87106 35.646,78.29154 13.28275,21.32323 29.43853,40.91655 45.81818,60.3309 3.49343,4.13532 7.01862,8.24595 10.56207,12.33792 z"
     id="path7113" />
  <path
     inkscape:connector-curvature="0"
     style="fill:#000000;stroke:none;stroke-width:0.99999994px;stroke-linecap:butt;stroke-linejoin:miter;stroke-opacity:1"
     d="m 767.38945,267.31421 c 0.18931,-0.11384 0.38346,-0.22102 0.57265,-0.33506 -0.13836,-0.15948 -0.27372,-0.3219 -0.41198,-0.4815 -0.18934,0.11409 -0.38393,0.22115 -0.5734,0.33506 0.13835,0.15977 0.27425,0.32184 0.41273,0.4815 z"
     id="path7111" />
  <path
     inkscape:connector-curvature="0"
     style="fill:#000000;stroke:none;stroke-width:0.99999994px;stroke-linecap:butt;stroke-linejoin:miter;stroke-opacity:1"
     d="m 770.72331,271.14777 c 12.60535,14.32811 25.79039,28.06702 40.72525,39.83252 8.1203,6.40739 16.75198,12.23199 25.59185,17.78093 7.59162,4.73719 15.27053,9.26738 23.61197,11.51692 4.16464,1.13215 8.46724,1.72358 12.6935,1.48593 4.22036,-0.23843 8.39442,-1.2728 12.00588,-3.23369 5.08316,-2.71994 9.10881,-7.32328 11.4812,-12.56943 2.39453,-5.26267 3.11891,-11.24844 2.92721,-17.20179 -0.44956,-12.65261 -5.31699,-25.17672 -13.58827,-34.96127 -8.26588,-9.78885 -19.96258,-16.8708 -32.65101,-19.76833 l -0.15153,0.62424 c 12.5441,2.86354 24.12142,9.87218 32.29233,19.55016 8.17785,9.67244 12.99562,22.06889 13.43903,34.57739 0.18313,5.88568 -0.52293,11.77844 -2.8724,16.92293 -2.32173,5.12491 -6.2529,9.62752 -11.19715,12.26619 -3.51045,1.91001 -7.59026,2.91759 -11.72261,3.15382 -4.13987,0.2352 -8.37005,-0.34863 -12.47723,-1.46301 -8.22996,-2.20976 -15.84861,-6.71395 -23.43225,-11.43853 -8.82712,-5.54148 -17.44031,-11.35259 -25.53475,-17.74023 -14.86408,-11.70552 -27.99978,-25.39044 -40.57218,-39.67722 -0.10567,0.0638 -0.20954,0.13074 -0.31525,0.19454 -0.0838,0.0507 -0.16974,0.0974 -0.25359,0.14793 z"
     id="path7107" />
  <path
     inkscape:connector-curvature="0"
     style="fill:#000000;stroke:none;stroke-width:0.99999994px;stroke-linecap:butt;stroke-linejoin:miter;stroke-opacity:1"
     d="m 770.72331,271.14777 c 0.0838,-0.0505 0.16974,-0.0974 0.25359,-0.14793 0.10571,-0.0638 0.20958,-0.13068 0.31525,-0.19454 -0.13957,-0.1586 -0.28167,-0.3146 -0.4211,-0.47337 -0.0773,0.0467 -0.15342,0.0953 -0.23074,0.14203 -0.11227,0.0678 -0.22733,0.13053 -0.33964,0.19822 0.14,0.15944 0.2825,0.31629 0.42264,0.47559 z"
     id="path7105" />
  <path
     inkscape:connector-curvature="0"
     style="fill:#000000;stroke:none;stroke-width:0.99999994px;stroke-linecap:butt;stroke-linejoin:miter;stroke-opacity:1"
     d="m 766.70332,273.49982 c -0.19097,0.11347 -0.38384,0.22322 -0.57491,0.33653 12.87838,14.67373 26.4697,28.86087 41.99236,41.12393 8.32726,6.56535 17.11315,12.49918 26.05486,18.10786 7.65541,4.83812 15.81177,9.57718 25.04511,12.14487 4.62446,1.27436 9.50256,1.92799 14.41984,1.67085 4.92447,-0.25611 9.85489,-1.50268 14.2744,-3.87052 6.19435,-3.37017 10.97819,-8.78443 13.75581,-15.00064 2.75504,-6.20809 3.62602,-12.93696 3.36584,-19.43179 -0.49883,-13.80546 -5.76517,-27.35456 -14.78384,-38.03595 -9.02561,-10.67587 -21.67974,-18.33703 -35.52263,-21.50649 l -0.15078,0.62426 c 13.69859,3.13546 26.23255,10.72404 35.16322,21.28903 8.92524,10.56928 14.1419,23.99 14.63457,37.65134 0.25163,6.42715 -0.60104,13.06303 -3.31101,19.15295 -2.72698,6.09494 -7.41632,11.40774 -13.47177,14.69663 -4.3185,2.31699 -9.15391,3.53749 -13.99036,3.79139 -4.83091,0.25471 -9.63736,-0.39135 -14.20433,-1.64791 -9.12185,-2.52794 -17.21796,-7.24098 -24.86539,-12.06647 -8.92899,-5.60123 -17.69637,-11.52084 -25.99774,-18.06643 0,0 0,-8.2e-4 0,-8.2e-4 -15.44886,-12.20054 -28.98852,-26.33177 -41.83325,-40.96269 z"
     id="path7103" />
  <path
     inkscape:connector-curvature="0"
     style="fill:#000000;stroke:none;stroke-width:0.99999994px;stroke-linecap:butt;stroke-linejoin:miter;stroke-opacity:1"
     d="m 766.28069,273.02424 c -0.19098,0.11348 -0.38385,0.22326 -0.57491,0.33653 0.13963,0.15941 0.2828,0.31628 0.42263,0.47558 0.19107,-0.11336 0.38394,-0.22306 0.57491,-0.33653 -0.13984,-0.15931 -0.28295,-0.31618 -0.42263,-0.47558 z"
     id="path7101" />
  <path
     inkscape:connector-curvature="0"
     style="fill:#000000;stroke:none;stroke-width:0.99999994px;stroke-linecap:butt;stroke-linejoin:miter;stroke-opacity:1"
     d="m 762.96968,269.17662 c -0.19014,0.11274 -0.38241,0.22254 -0.57266,0.33506 0.13831,0.16007 0.27354,0.32151 0.41199,0.4815 0.19024,-0.11249 0.3825,-0.22234 0.57264,-0.33504 -0.13844,-0.15995 -0.27366,-0.32148 -0.41197,-0.48152 z"
     id="path7097" />
  <path
     inkscape:connector-curvature="0"
     style="fill:#000000;stroke:none;stroke-width:0.99999994px;stroke-linecap:butt;stroke-linejoin:miter;stroke-opacity:1"
     d="m 704.19451,24.594212 c -3.98137,0.164953 -7.94628,0.856061 -11.766,2.142739 -8.71823,3.015445 -16.07764,8.976955 -21.1485,16.313473 -5.06024,7.321338 -7.96095,15.827115 -9.04361,24.424373 -2.11396,17.173992 2.38979,34.110933 7.68738,49.963353 9.09306,27.55844 20.66602,54.51518 36.15698,79.38179 13.53586,21.69662 29.83526,41.48781 46.2507,60.92556 3.31713,3.93437 6.68618,7.85479 10.06556,11.76618 0.19025,-0.1125 0.38252,-0.22239 0.57266,-0.33506 -3.39997,-3.93411 -6.78894,-7.87777 -10.12799,-11.83718 -16.41098,-19.43482 -32.69166,-39.20165 -46.1959,-60.8516 -15.45829,-24.81085 -27.01063,-51.72229 -36.09376,-79.24569 -5.27751,-15.83379 -9.77229,-32.678796 -7.66074,-49.688213 1.07573,-8.512665 3.94023,-16.925148 8.93549,-24.144789 5.00335,-7.231198 12.25379,-13.110417 20.82104,-16.067176 0,0 0,-8.14e-4 0,-8.14e-4 10.00346,-3.380921 21.06862,-2.578949 30.75868,1.088755 9.66917,3.654792 18.03438,9.848071 25.055,17.000601 14.11833,14.329883 23.55658,32.906702 26.67778,52.507735 l 0.6526,-0.0976 C 772.64882,78.107003 763.15163,59.414979 748.9382,44.987538 741.87398,37.782571 733.42887,31.537814 723.64409,27.832346 717.51133,25.505877 710.83012,24.319282 704.19451,24.594212 Z"
     id="path6745" />
  <path
     inkscape:connector-curvature="0"
     style="fill:#000000;stroke:none;stroke-width:0.26458332px;stroke-linecap:butt;stroke-linejoin:miter;stroke-opacity:1"
     d="m 851.62426,124.24798 c 4.34921,-3.95678 10.08955,-6.53599 16.01007,-7.19354 2.22981,-0.2508 4.50607,-0.23792 6.76677,0.001 3.90761,0.42303 7.7322,1.52485 11.10042,3.35647 3.29829,1.84711 6.22894,4.326 7.54283,7.39836 10e-6,0 10e-6,2e-5 10e-6,2e-5 0.86748,1.83298 1.19663,4.04539 1.42341,6.39661 1.10582,12.39625 -2.84594,25.05204 -9.34154,36.08399 0,0 0,0 0,1e-5 -6.52068,11.04825 -15.6762,20.59888 -25.50184,29.44404 0,1e-5 0,1e-5 0,1e-5 -12.55923,11.28016 -26.28051,21.39801 -40.08016,31.50487 -10.90611,7.98315 -21.80683,15.91669 -33.03146,23.33141 -12.18503,8.05197 -24.80173,15.52649 -37.56382,22.8066 -7.0109,3.99834 -14.04315,7.92547 -21.17589,11.63236 -8.99446,4.67594 -18.22379,9.03931 -27.39284,13.64126 -10e-6,0 -2e-5,0 -2e-5,10e-6 -10.86312,5.40978 -21.46994,11.11988 -32.83618,13.02796 -5.6703,0.96698 -11.48874,1.04672 -16.91303,-0.26863 -5.40603,-1.313 -10.50728,-3.97475 -14.10725,-7.89815 0,0 0,-10e-6 0,-10e-6 -2.61561,-2.84008 -4.51527,-6.32742 -5.15383,-9.97605 -0.67214,-3.59146 -0.12675,-7.44879 1.2032,-11.03066 0,0 0,-1e-5 0,-1e-5 1.80852,-4.8775 5.21459,-9.23295 9.28277,-12.90422 4.08322,-3.6731 8.92556,-6.64336 13.99133,-9.36004 11.33254,-6.04757 23.54679,-10.54492 36.15897,-13.31393 l -0.14063,-0.6042 c -12.67061,2.78185 -24.94036,7.29964 -36.32545,13.37522 -5.09081,2.72704 -9.97481,5.72641 -14.11634,9.44734 -4.12977,3.71944 -7.59143,8.15575 -9.44952,13.14681 0,10e-6 -2e-5,10e-6 -2e-5,5e-5 -1.36699,3.66791 -1.9221,7.63188 -1.23255,11.35049 0.66593,3.77669 2.61705,7.36663 5.30818,10.28376 3.70402,4.02638 8.91242,6.75043 14.42877,8.08512 5.53071,1.33655 11.43729,1.25959 17.17746,0.27693 11.50033,-1.94515 22.16737,-7.67509 33.0169,-13.08746 l 10e-6,0 c 9.16003,-4.59742 18.39207,-8.96218 27.40097,-13.64542 7.14409,-3.71289 14.1837,-7.64401 21.19793,-11.64437 12.76836,-7.28344 25.39699,-14.76527 37.59957,-22.82856 11.24056,-7.42554 22.14965,-15.36492 33.05665,-23.34892 13.8014,-10.10716 27.539,-20.23827 40.12912,-31.54461 l 2e-5,-1e-5 c 9.85279,-8.86383 19.04827,-18.46309 25.6217,-29.5899 l 0,-3e-5 c 6.55366,-11.11373 10.53303,-23.88957 9.42441,-36.44422 -0.22362,-2.38243 -0.57008,-4.66101 -1.47533,-6.59512 -1.40301,-3.23015 -4.42475,-5.80621 -7.81611,-7.68984 -3.45107,-1.87451 -7.35596,-3.0012 -11.34121,-3.4311 -2.30493,-0.24458 -4.62869,-0.25735 -6.90926,-10e-4 -6.05952,0.67395 -11.92081,3.3075 -16.37286,7.35656 z m -3.48543,-3.61909 c 5.17208,-4.69506 11.87991,-7.70898 18.91251,-8.49766 2.63594,-0.29315 5.29213,-0.28123 7.90656,-0.001 4.52891,0.478 8.99567,1.77881 13.02692,3.95347 4.04276,2.13942 7.70212,5.39556 9.72896,9.73014 0,2e-5 0,3e-5 0,3e-5 1.16962,2.64209 1.63719,5.38383 1.83872,7.98461 1.12832,13.66346 -3.04441,27.27984 -10.00451,38.96579 l 0,1e-5 c -6.94271,11.67685 -16.41789,21.61649 -26.46075,30.61104 l -2e-5,1e-5 c -12.80643,11.48967 -26.65831,21.71351 -40.472,31.82281 -10.91309,7.99003 -21.88092,15.97024 -33.2328,23.4715 -12.3256,8.14245 -25.03765,15.67558 -37.8499,22.98239 -7.0376,4.01432 -14.12861,7.97346 -21.35215,11.7284 -9.11007,4.73444 -18.36108,9.10891 -27.45793,13.67451 l -2e-5,0 c -10.75427,5.43045 -21.843,11.2992 -34.28196,13.50391 -6.22917,1.09223 -12.75275,1.14982 -19.02844,-0.33505 -6.28845,-1.48632 -12.24704,-4.64656 -16.67928,-9.39363 0,0 -1e-5,-1e-5 -1e-5,-1e-5 -3.21987,-3.45683 -5.5311,-7.7648 -6.38853,-12.438 -0.81171,-4.60869 -0.18815,-9.319 1.43789,-13.58951 0,0 0,-2e-5 0,-3e-5 2.20519,-5.78596 6.05596,-10.78829 10.61685,-14.84494 4.54971,-4.0557 9.72544,-7.25881 14.99147,-10.05852 11.75286,-6.27158 24.41106,-10.9324 37.49081,-13.80429 l -0.14063,-0.60422 c -13.13818,2.88478 -25.85188,7.56601 -37.65728,13.86561 -5.29108,2.81009 -10.50845,6.04231 -15.11648,10.14582 -4.62251,4.1048 -8.52885,9.188 -10.7836,15.08754 -2e-5,10e-6 -2e-5,10e-6 -2e-5,2e-5 -1.66303,4.35661 -2.29639,9.17353 -1.46723,13.90937 0.8848,4.80124 3.24748,9.21182 6.54288,12.74569 4.53627,4.85002 10.60202,8.07258 17.00079,9.58057 6.3821,1.50606 12.99383,1.45124 19.29286,0.34335 12.57304,-2.2418 23.72201,-8.13037 34.46269,-13.56341 0,0 0,0 0,0 9.08783,-4.56105 18.34154,-8.9369 27.46608,-13.67866 7.23487,-3.76095 14.33324,-7.72409 21.37419,-11.7404 12.8185,-7.31016 25.54248,-14.8506 37.88564,-23.00437 11.36778,-7.51206 22.34401,-15.49813 33.25796,-23.48901 13.81546,-10.10961 27.68366,-20.34669 40.52099,-31.86254 0,-1e-5 1e-5,-1e-5 1e-5,-1e-5 10.07002,-9.01324 19.58516,-19.0015 26.58062,-30.75692 l 10e-6,-3e-5 c 7.01815,-11.7677 11.21853,-25.50414 10.08737,-39.32598 -0.19838,-2.63199 -0.68327,-5.4399 -1.89063,-8.18314 -2.11593,-4.49235 -5.8664,-7.84566 -10.00222,-10.02162 -4.1141,-2.21753 -8.66116,-3.54323 -13.26772,-4.02809 -2.65866,-0.28503 -5.36234,-0.29685 -8.04905,0.001 -7.1716,0.80506 -14.00037,3.87331 -19.2753,8.66067 z"
     id="path6781" />
  <path
     inkscape:connector-curvature="0"
     style="fill:#000000;stroke:none;stroke-width:0.99999994px;stroke-linecap:butt;stroke-linejoin:miter;stroke-opacity:1"
     d="m 747.06719,413.73469 c 0.66095,0.0528 1.2909,0.0745 2.02864,0.20339 0.009,0 0.0203,0.003 0.0297,0.006 -6.85318,-2.63417 -13.22888,-6.46524 -18.69492,-11.26695 -4.12321,-3.61283 -7.76042,-7.80977 -11.1073,-12.26098 -4.9704,-6.65982 -9.22728,-13.79392 -11.45074,-21.46508 -2.24281,-7.74233 -2.4906,-16.11402 0.17743,-23.522 2.51624,-7.10385 7.70528,-13.36742 14.31171,-17.27428 l -0.33202,-0.52883 c -6.7361,3.98504 -12.01567,10.35756 -14.5828,17.6012 -2.71124,7.5535 -2.46718,16.04945 -0.18808,23.89403 2.25768,7.76763 6.54749,14.9669 11.54895,21.66033 3.36373,4.47583 7.03007,8.70358 11.19489,12.35493 5.02997,4.4185 10.84104,7.97744 17.06453,10.59832 z"
     id="path7613" />
  <path
     inkscape:connector-curvature="0"
     style="fill:#000000;stroke:none;stroke-width:0.99999994px;stroke-linecap:butt;stroke-linejoin:miter;stroke-opacity:1"
     d="m 746.19298,418.09706 c 0.40508,0.26055 0.7273,0.52359 1.18794,0.78477 0.0314,0.0179 0.0697,0.0367 0.10125,0.0547 l 0.0975,-0.24259 c -0.47144,-0.17837 -0.91967,-0.40815 -1.38671,-0.59689 z"
     id="path7607" />
  <path
     inkscape:connector-curvature="0"
     style="fill:#000000;stroke:none;stroke-width:0.99999994px;stroke-linecap:butt;stroke-linejoin:miter;stroke-opacity:1"
     d="m 719.37282,323.39515 c -7.77355,4.61056 -13.77491,11.85405 -16.74929,20.21581 -3.05698,8.71785 -2.84105,18.20565 -0.27187,26.86813 2.53152,8.53921 7.08262,16.25864 12.33256,23.22098 3.49843,4.67253 7.39862,9.15228 11.89622,13.11156 5.99963,5.26929 12.97875,9.4622 20.50273,12.34532 -1.01137,-0.57182 -1.92634,-1.14525 -2.63098,-1.75293 a 0.19324344,0.1876949 0 0 1 -0.0129,-0.0124 0.19324344,0.1876949 0 0 1 -0.0128,-0.014 0.19324344,0.1876949 0 0 1 -0.0107,-0.0155 0.19324344,0.1876949 0 0 1 -0.009,-0.0163 0.19324344,0.1876949 0 0 1 -0.009,-0.017 0.19324344,0.1876949 0 0 1 -0.002,-0.006 c -6.3293,-2.77374 -12.23634,-6.44625 -17.38817,-10.97106 -4.456,-3.92082 -8.32705,-8.36969 -11.80865,-13.01764 -5.21888,-6.92871 -9.73704,-14.58294 -12.23432,-23.02571 -2.53294,-8.56024 -2.75333,-17.92376 0.26043,-26.49609 2.92347,-8.22198 8.8351,-15.35651 16.47895,-19.8889 l -0.33201,-0.52884 z"
     id="path6793" />
  <rect
     style="opacity:1;fill:none;fill-opacity:1;stroke:#000000;stroke-width:0.33286768;stroke-linecap:round;stroke-linejoin:round;stroke-miterlimit:4;stroke-dasharray:none;stroke-opacity:1;paint-order:normal"
     id="rect7214"
     width="37.898144"
     height="29.330057"
     x="918.80768"
     y="126.58559"
     transform="matrix(0.94196057,0.33572352,-0.35341284,0.93546746,0,0)" />
  <rect
     style="opacity:1;fill:#000000;fill-opacity:1;stroke:none;stroke-width:0.22976795;stroke-linecap:round;stroke-linejoin:round;stroke-miterlimit:4;stroke-dasharray:none;stroke-opacity:1;paint-order:normal"
     id="rect7296"
     width="37.898144"
     height="2.2763772"
     x="1010.8477"
     y="182.54288"
     transform="matrix(0.94196057,0.33572352,-0.77680838,0.62973705,0,0)" />
  <path
     inkscape:connector-curvature="0"
     style="opacity:1;fill:#000000;fill-opacity:1;stroke:#000000;stroke-width:0.27774054;stroke-linecap:round;stroke-linejoin:round;stroke-miterlimit:4;stroke-dasharray:none;stroke-opacity:1;paint-order:normal"
     d="m 756.34932,425.08177 c -1.99769,5.28777 -5.39314,11.41928 0.63928,13.56926 l 0,0 51.25287,18.26701 1.72086,-1.44999 -51.00824,-18.1798 1.0234,-0.70968 z"
     id="rect7298" />
  <path
     inkscape:connector-curvature="0"
     style="opacity:1;fill:none;fill-opacity:1;stroke:#000000;stroke-width:0.38085982;stroke-linecap:round;stroke-linejoin:round;stroke-miterlimit:4;stroke-dasharray:none;stroke-opacity:1;paint-order:normal"
     d="m 772.32216,408.32719 c -4.70828,-1.67807 -9.84711,0.54003 -11.52202,4.97344 l -0.73202,1.93767 c -4.35987,0.92631 -10.45769,-1.51495 -14.18223,-1.43277 l -0.65345,1.72962 -0.65345,1.72965 c 2.78583,2.40254 9.06208,4.37152 11.77033,7.81697 l -0.73202,1.93767 c -1.67494,4.43339 0.76717,9.35344 5.47544,11.0315 l 48.85317,17.41169 11.22942,-29.72371 z"
     id="rect7212"
     sodipodi:nodetypes="sscccccssccs" />
  <rect
     style="opacity:1;fill:none;fill-opacity:1;stroke:#000000;stroke-width:0.4368988;stroke-linecap:round;stroke-linejoin:round;stroke-miterlimit:4;stroke-dasharray:none;stroke-opacity:1;paint-order:normal"
     id="rect7222"
     width="4.0864544"
     height="5.8329797"
     x="936.42468"
     y="130.44884"
     transform="matrix(0.94196057,0.33572352,-0.35341284,0.93546746,0,0)" />
  <rect
     y="146.21944"
     x="936.42468"
     height="5.8329797"
     width="4.0864544"
     id="rect7224"
     style="opacity:1;fill:none;fill-opacity:1;stroke:#000000;stroke-width:0.4368988;stroke-linecap:round;stroke-linejoin:round;stroke-miterlimit:4;stroke-dasharray:none;stroke-opacity:1;paint-order:normal"
     transform="matrix(0.94196057,0.33572352,-0.35341284,0.93546746,0,0)" />
  <path
     id="path7234"
     style="opacity:1;fill:none;fill-opacity:1;stroke:#000000;stroke-width:0.32764503;stroke-linecap:butt;stroke-linejoin:miter;stroke-miterlimit:4;stroke-dasharray:none;stroke-opacity:1"
     d="m 815.56079,440.6007 5.98404,2.13277 -1.0077,2.66739 3.22506,1.14941 1.00771,-2.66735 10.05089,3.58225 m 16.43854,5.85884 -6.23782,-2.22325 -1.0077,2.66738 -3.22508,-1.14941 1.0077,-2.6674 -9.79708,-3.49178"
     inkscape:connector-curvature="0"
     sodipodi:nodetypes="cccccccccccc" />
  <path
     inkscape:connector-curvature="0"
     style="opacity:1;fill:#000000;fill-opacity:1;stroke:none;stroke-width:0.99117225;stroke-linecap:round;stroke-linejoin:round;stroke-miterlimit:4;stroke-dasharray:none;stroke-opacity:1;paint-order:normal"
     d="m 745.97671,412.99134 -0.31907,0.88089 0.17973,0.0613 -0.60465,1.60132 -0.65337,1.72999 c 2.78583,2.40257 9.06158,4.37109 11.76981,7.81654 l -0.7318,1.93782 c -1.67492,4.43344 0.76694,9.35365 5.47522,11.03174 l 48.85352,17.41183 3.0544,-8.08571 a 17.727442,8.9093783 19.251578 0 1 -15.49357,-1.16719 17.727442,8.9093783 19.251578 0 1 -13.54792,-14.28757 17.727442,8.9093783 19.251578 0 1 2.42006,-2.6938 19.55045,11.284889 19.076884 0 1 -10.85144,-1.85942 19.55045,11.284889 19.076884 0 1 -14.29646,-11.85938 l -1.1156,-0.39793 -0.0472,0.12648 c -0.0992,0.0212 -0.20061,0.0385 -0.30156,0.0562 a 3.297465,7.0807171 20.995263 0 1 -5.3549,4.89346 3.297465,7.0807171 20.995263 0 1 -1.47579,-3.01551 2.8611645,9.0455893 20.816246 0 1 -2.59673,1.50441 2.8611645,9.0455893 20.816246 0 1 -0.90391,-3.92969 1.9785331,5.981821 20.828846 0 1 -1.72251,0.92012 1.9785331,5.981821 20.828846 0 1 -0.70059,-1.821 c -0.059,-0.005 -0.11467,-0.006 -0.17287,-0.01 l 0.17745,-0.4889 -1.04022,-0.35574 z"
     id="path7259" />
  <path
     style="fill:#ffffff"
     d="m 756.49484,211.36269 c -2.24215,-0.24733 -8.05747,-1.2561 -12.92292,-2.24172 -28.89287,-5.85295 -35.96875,-18.86927 -38.63739,-71.07481 -0.68555,-13.41114 -0.81068,-23.74728 -0.29462,-24.33791 1.38184,-1.58152 16.09994,-6.88479 27.01713,-9.73489 7.96669,-2.07982 30.80214,-5.0645 38.85122,-5.077998 1.55943,-0.0026 1.78353,1.317598 1.78353,10.506768 0,8.33458 -0.32538,10.66068 -1.57215,11.23897 -4.2655,1.97849 -7.82093,17.67865 -7.85318,34.67828 -0.0341,17.97716 3.50422,34.37314 7.85318,36.39034 1.23619,0.57339 1.57215,2.84352 1.57215,10.62303 l 0,9.89381 -5.86016,-0.20709 c -3.22309,-0.11389 -7.69465,-0.40944 -9.93679,-0.65678 z"
     id="path3468"
     inkscape:connector-curvature="0" />
  <path
     style="fill:#ffffff"
     d="m 773.31095,202.6892 c 0,-9.14505 0.18864,-10.03897 2.50565,-11.87404 5.33474,-4.22508 9.04838,-29.86658 6.801,-46.95868 -1.73631,-13.20517 -3.1166,-17.96119 -6.34526,-21.86379 -2.77327,-3.35217 -2.96139,-4.20274 -2.96139,-13.39017 l 0,-9.810616 11.97511,0.803362 c 16.10249,1.080254 32.48566,4.510244 45.25193,9.473964 l 10.54698,4.10083 0.32968,7.3359 c 0.44678,9.94126 -1.54838,39.93273 -3.32954,50.05017 -3.07832,17.48568 -10.47478,29.20527 -21.6103,34.24127 -7.05263,3.18953 -19.45211,5.80736 -32.75068,6.91447 l -10.41318,0.8669 0,-9.88957 z"
     id="path3470"
     inkscape:connector-curvature="0" />
  <path
     style="fill:#ffffff"
     d="m 799.55432,242.71592 c -0.3231,-1.17174 -6.73909,-1.59013 -26.83783,-1.7501 l -26.41324,-0.21023 -10.02943,-12.72465 c -16.88355,-21.42065 -31.11629,-43.93877 -41.82425,-66.17157 l -3.7889,-7.86686 2.13442,-13.69127 c 2.81314,-18.04504 2.66483,-17.59543 6.31103,-19.13183 1.74235,-0.73417 3.2577,-1.33485 3.36745,-1.33485 0.10974,0 0.50212,8.45387 0.87194,18.78637 1.761,49.1996 10.15504,65.66631 36.55675,71.71385 20.67907,4.73672 37.17246,5.05698 59.58517,1.157 32.37249,-5.63306 40.34803,-18.72999 43.06452,-70.71792 0.57706,-11.04384 1.24303,-20.31399 1.47993,-20.60034 0.2369,-0.28635 1.79657,0.33311 3.46595,1.37656 2.85677,1.78567 3.1598,2.71432 5.15474,15.79748 2.97268,19.49542 4.08699,30.50584 4.86296,48.05064 l 0.67324,15.22229 -14.15727,11.22217 c -12.94907,10.26446 -42.79726,32.41313 -43.68087,32.41313 -0.20444,0 -0.56277,-0.69294 -0.79631,-1.53987 z"
     id="path3472"
     inkscape:connector-curvature="0" />
  <path
     style="fill:#ffffff"
     d="m 818.06738,314.34482 c -4.71697,-3.4586 -10.3622,-7.87181 -12.54493,-9.80715 l -3.96862,-3.51878 0.21232,-18.52641 c 0.11679,-10.18952 0.0149,-18.5264 -0.22634,-18.5264 -0.24127,0 -4.83151,2.51526 -10.20052,5.58948 -6.5024,3.72316 -9.98514,6.43984 -10.43059,8.13628 -0.62552,2.38223 -0.92695,2.24203 -4.6648,-2.16975 l -3.99607,-4.71655 5.8779,-3.59262 c 3.23284,-1.97594 9.66343,-4.67126 14.29019,-5.9896 7.92236,-2.25739 8.41372,-2.58812 8.43662,-5.67861 0.0209,-2.82521 1.33208,-4.20863 9.42722,-9.94694 9.75786,-6.91695 41.43833,-30.78071 45.15823,-34.01608 2.09277,-1.82018 2.11729,-1.74515 1.71575,5.25064 -1.44247,25.13154 -8.23703,56.59594 -16.57014,76.73353 -3.68782,8.91185 -12.86159,27.06731 -13.67685,27.06731 -0.14468,0 -4.12239,-2.82976 -8.83937,-6.28835 z"
     id="path3474"
     inkscape:connector-curvature="0" />
  <path
     style="fill:#ffffff"
     d="m 752.78759,353.26585 c -9.39388,-2.26187 -12.12138,-4.26432 -21.62005,-15.87284 -7.43601,-9.08769 -21.63022,-31.24509 -20.72038,-32.34485 1.10371,-1.33409 33.30881,-17.26474 33.77149,-16.70548 0.30573,0.36954 0.55985,4.32138 0.56473,8.78186 0.0129,11.80629 1.1057,21.04485 2.48933,21.04485 0.65732,0 2.13172,-1.52447 3.27646,-3.38771 1.14474,-1.86324 4.94972,-7.20701 8.45552,-11.87506 3.50581,-4.66804 7.62518,-11.68471 9.15417,-15.5926 l 2.77997,-7.10526 3.53655,3.88962 c 1.94511,2.13929 6.79331,7.09809 10.77381,11.01956 7.73313,7.61848 8.94927,9.63013 7.14229,11.81429 -1.77529,2.14587 -2.36609,1.8049 -8.49264,-4.90145 -4.99571,-5.46848 -6.14271,-6.18616 -8.84331,-5.5333 -4.09737,0.99053 -8.39926,5.07966 -14.92967,14.1913 l -5.36144,7.48061 22.47614,0 22.47614,0 0.64116,-4.13104 0.64115,-4.13103 7.3035,5.80324 c 4.01693,3.19178 8.79402,6.72804 10.61577,7.85835 1.82174,1.13031 3.31227,2.71686 3.31227,3.52566 0,2.6355 -16.09621,20.66634 -20.59739,23.07304 -2.41135,1.2893 -7.36254,2.92823 -11.00265,3.64207 -8.93922,1.75302 -29.53292,1.45707 -37.84292,-0.54383 z"
     id="path3476"
     inkscape:connector-curvature="0" />
  <path
     style="fill:#ffffff"
     d="m 703.55637,289.45864 c -8.44815,-22.40783 -13.34205,-47.21718 -14.74884,-74.76829 -0.79121,-15.49547 -0.50708,-40.36543 0.50457,-44.16517 0.24378,-0.91567 3.83366,4.46892 7.97748,11.96574 9.5797,17.33117 18.88851,31.10125 34.81764,51.5041 l 12.66729,16.22495 0,7.30829 c 0,4.01956 -0.28872,10.6473 -0.64161,14.72831 -0.60694,7.01899 -0.84104,7.53691 -4.33142,9.58294 -4.37158,2.56256 -31.79115,16.61958 -32.41811,16.61958 -0.23853,0 -1.96067,-4.0502 -3.827,-9.00045 z"
     id="path3478"
     inkscape:connector-curvature="0" />
  <path
     style="fill:#ffffff"
     d="m 749.4463,210.30964 c -34.24429,-5.63523 -41.81841,-17.96483 -44.57892,-72.56812 -0.68517,-13.55271 -0.78584,-23.37872 -0.24568,-23.97801 1.2085,-1.34076 12.14778,-5.53886 22.31755,-8.56465 10.15656,-3.02186 20.27091,-4.71057 34.39659,-5.742898 l 10.95595,-0.800682 0,10.6283 c 0,8.44141 -0.32349,10.77835 -1.57215,11.35752 -2.30545,1.06935 -5.19391,8.64946 -6.60905,17.34392 -1.91776,11.78252 -0.84161,36.14079 1.98762,44.98911 1.24658,3.89863 3.1501,7.66001 4.23005,8.35862 1.6863,1.09086 1.96353,2.65555 1.96353,11.08201 l 0,9.8118 -6.36974,-0.12694 c -3.50335,-0.0698 -10.91744,-0.8753 -16.47575,-1.78998 z"
     id="path3480"
     inkscape:connector-curvature="0" />
  <path
     style="fill:#ffffff"
     d="m 773.31095,203.07777 c 0,-8.82048 0.21294,-9.77653 2.90137,-13.02613 4.49755,-5.43635 6.64002,-16.31148 6.67381,-33.87623 0.0333,-17.34301 -2.07772,-28.13191 -6.66644,-34.06952 -2.6949,-3.48707 -2.90874,-4.48529 -2.90874,-13.57764 l 0,-9.813866 11.97511,0.835647 c 16.20649,1.130919 32.55561,4.578149 45.25193,9.541409 l 10.54698,4.12304 -0.23609,19.39068 c -0.4222,34.67577 -4.03294,52.1905 -13.01026,63.10936 -7.87626,9.57966 -20.65471,14.19921 -44.50297,16.08831 l -10.0247,0.79408 0,-9.51914 z"
     id="path3482"
     inkscape:connector-curvature="0" />
  <path
     style="fill:#ffffff"
     d="m 796.90252,445.16099 c -9.18337,-3.83329 -13.87143,-9.25758 -11.67509,-13.50859 1.10531,-2.1393 0.70078,-2.44118 -5.10322,-3.80835 -7.45513,-1.75611 -15.29387,-6.58374 -17.60104,-10.83993 -1.55168,-2.86247 -1.52373,-3.19591 0.4697,-5.60545 1.29635,-1.56694 3.41471,-2.55243 5.45443,-2.53747 3.27399,0.024 49.60363,16.00905 50.85459,17.54627 0.35111,0.43146 -1.11675,5.35788 -3.26192,10.9476 l -3.90029,10.16312 -4.89136,-0.0402 c -2.69025,-0.0221 -7.34586,-1.06476 -10.3458,-2.31699 z"
     id="path3484"
     inkscape:connector-curvature="0" />
  <path
     style="fill:#ffffff"
     d="m 649.24678,319.81113 c -9.74188,-2.58196 -17.99316,-9.2166 -21.14421,-17.00149 -1.51258,-3.73692 -1.68126,-4.90762 -1.41558,-9.8251 0.3593,-6.65046 1.89882,-10.70931 6.15698,-16.23252 4.17441,-5.41455 8.76581,-9.3441 15.96031,-13.6596 11.0951,-6.6552 24.3405,-12.19908 36.27149,-15.18149 4.11522,-1.0287 5.02266,-1.06013 5.47846,-0.18978 0.30046,0.57371 0.46419,1.35774 0.36386,1.74229 -0.10033,0.38455 -3.1883,1.51398 -6.86214,2.50987 -12.93629,3.50666 -29.30737,10.94456 -38.42457,17.45748 -15.62616,11.16265 -19.82519,27.26372 -9.9642,38.20745 8.00995,8.88946 20.99792,11.73216 36.33829,7.95345 7.8761,-1.94008 13.26556,-4.29143 37.72136,-16.45737 30.9653,-15.40419 59.76723,-31.85341 81.42726,-46.50435 27.34972,-18.49946 62.72165,-45.70564 75.13694,-57.79129 17.47706,-17.01302 27.15541,-34.23578 28.91456,-51.45391 1.23305,-12.0687 -0.84697,-18.23697 -7.66149,-22.72009 -4.55891,-2.99919 -9.87527,-4.42857 -16.43277,-4.41816 -6.34731,0.0101 -11.00971,1.22553 -15.88266,4.14051 -2.57723,1.54169 -3.41362,1.73499 -4.37315,1.01067 -0.65254,-0.49259 -1.18643,-1.14194 -1.18643,-1.44301 0,-0.99564 8.03287,-5.20216 12.20319,-6.39036 13.90006,-3.96036 31.47657,2.44795 35.71057,13.01991 4.37934,10.93482 0.63008,31.36261 -8.45445,46.06398 -11.7087,18.94804 -28.29716,34.24108 -70.21369,64.73059 -37.32981,27.1532 -65.2926,44.00271 -109.23394,65.821 -29.99774,14.89484 -35.604,16.91063 -48.60684,17.47711 -5.12364,0.22321 -8.70842,-0.0392 -11.82715,-0.86579 z"
     id="path3486"
     inkscape:connector-curvature="0" />
  <path
     style="fill:#ffffff"
     d="m 744.5259,246.6392 c -24.26746,-29.49242 -35.68622,-45.7355 -47.3034,-67.2886 -14.56584,-27.02369 -29.51373,-66.80209 -33.29932,-88.614062 -1.30533,-7.5211 -1.30098,-21.343477 0.009,-27.432686 3.05395,-14.199723 10.73423,-25.542838 21.75539,-32.130836 10.7322,-6.415268 24.82505,-7.203254 38.03868,-2.126891 13.65541,5.246083 28.66261,18.689447 38.16202,34.185318 5.44805,8.887103 10.69182,22.343103 12.60078,32.334794 0.37979,1.987846 0.26988,2.125067 -1.70214,2.125067 -2.06637,0 -2.13023,-0.103353 -3.22264,-5.216074 -6.28714,-29.425434 -30.49296,-57.023337 -54.43469,-62.062887 -6.86253,-1.444509 -17.61784,-0.606344 -23.29243,1.815186 -19.44986,8.29988 -28.65347,31.249296 -23.67375,59.031094 2.3823,13.290857 8.9621,33.678457 17.60531,54.550297 5.90407,14.2573 9.034,20.77936 16.58861,34.56682 11.78427,21.50681 23.52781,37.94304 48.97493,68.54521 14.09191,16.94663 14.82901,17.97435 13.4402,18.73923 -0.80818,0.44509 -1.65257,0.80926 -1.87643,0.80926 -0.22387,0 -8.49025,-9.82361 -18.36975,-21.83024 z"
     id="path3488"
     inkscape:connector-curvature="0" />
  <path
     style="fill:#ffffff"
     d="m 828.45435,460.23484 c -9.03097,-3.25524 -16.58653,-6.12601 -16.79015,-6.3795 -0.4903,-0.61042 3.9282,-12.28951 4.64945,-12.28951 0.30803,0 1.43461,0.36851 2.50352,0.81891 1.41865,0.59778 1.86172,1.19685 1.64071,2.21842 -0.42622,1.97002 2.9473,3.01526 4.01821,1.245 0.67558,-1.11677 1.53666,-0.95877 8.78405,1.61177 7.14804,2.53531 7.96839,3.00042 7.43139,4.21326 -0.50379,1.13786 -0.26404,1.4535 1.44967,1.90846 1.49426,0.3967 2.21604,0.23328 2.65101,-0.60024 0.47841,-0.91675 1.08855,-0.99476 3.05694,-0.39083 1.35258,0.41498 2.45924,1.01654 2.45924,1.3368 0,1.23514 -4.46912,12.36278 -4.93848,12.29629 -0.27259,-0.0386 -7.88459,-2.73359 -16.91556,-5.98883 z m 5.23674,-4.7705 1.30925,-3.10203 -1.65752,-0.76173 c -2.70695,-1.244 -3.42399,-0.90943 -4.45726,2.07971 -1.16422,3.36798 -0.71665,4.07651 3.0298,4.79643 0.25656,0.0493 1.05565,-1.30627 1.77573,-3.01238 z"
     id="path3490"
     inkscape:connector-curvature="0" />
  <path
     style="fill:#ffffff"
     d="m 842.22511,452.67267 c -0.4022,-0.19933 -0.58441,-1.04123 -0.40492,-1.87087 0.1795,-0.82965 0.19548,-1.50846 0.0355,-1.50846 -0.26929,0 -13.4936,-4.64985 -16.45046,-5.78421 -0.93844,-0.36002 -1.30839,-0.15948 -1.30839,0.70925 0,0.71828 -0.5507,1.2112 -1.35318,1.2112 -1.04443,0 -1.27586,-0.35738 -1.01429,-1.56636 0.28448,-1.31495 -0.11414,-1.71281 -2.48358,-2.47882 -3.22065,-1.04119 -3.21755,-0.8322 -0.13029,-8.80664 1.42895,-3.69099 2.19504,-4.87807 2.97361,-4.60771 16.16142,5.61199 32.49867,11.59423 32.90787,12.04992 0.29322,0.32653 -0.49505,3.28356 -1.75171,6.57118 -2.05109,5.36596 -2.43266,5.92663 -3.72966,5.48036 -4.02433,-1.38466 -4.9437,-1.41355 -5.3392,-0.16775 -0.4086,1.28705 -0.68561,1.3962 -1.95132,0.76891 z m -2.94328,-12.13882 c 1.09869,-3.3296 1.06134,-3.42488 -1.59401,-4.0668 -1.75341,-0.42389 -2.09925,-0.19681 -3.03635,1.99357 -1.2591,2.94307 -0.93543,4.41015 1.07362,4.86632 2.27347,0.51622 2.53165,0.31346 3.55674,-2.79309 z"
     id="path3492"
     inkscape:connector-curvature="0" />
  <path
     style="fill:#ffffff"
     d="m 740.02817,414.65791 c -13.2482,-7.32591 -23.25099,-17.61958 -31.36207,-32.27404 -8.17134,-14.76335 -9.49513,-29.97978 -3.65644,-42.02947 3.6449,-7.52222 13.17927,-16.72849 15.21242,-14.68891 1.4336,1.43813 1.18994,1.98659 -1.8343,4.12886 -4.19481,2.97146 -9.66021,10.53831 -11.36175,15.73035 -2.07623,6.33535 -2.0883,16.36805 -0.0284,23.59027 2.27714,7.98384 7.09338,16.213 15.04093,25.69938 7.17793,8.56773 12.073,12.69827 19.73678,16.65418 2.01581,1.04052 3.67,2.0862 3.67601,2.32373 0.006,0.23752 -0.3487,1.00671 -0.78823,1.70931 -0.73261,1.17112 -1.11842,1.1009 -4.63496,-0.84366 z"
     id="path3494"
     inkscape:connector-curvature="0" />
  <path
     style="fill:#ffffff"
     d="m 859.89797,344.23103 c -7.29633,-1.88627 -12.04057,-4.15597 -24.10841,-11.53372 -23.21726,-14.19403 -39.66211,-27.83771 -60.36849,-50.0855 l -8.43188,-9.05957 1.85225,-0.91514 c 1.78226,-0.88056 2.04121,-0.70652 6.85403,4.60655 21.10283,23.29634 39.19505,38.41915 63.42507,53.01538 13.89259,8.36893 20.42921,10.87826 29.73965,11.41671 11.40862,0.65979 18.92857,-2.44888 24.84171,-10.26931 4.67588,-6.18408 6.09344,-11.12282 6.08743,-21.2084 -0.004,-7.04441 -0.26019,-8.99165 -1.94223,-14.77327 -5.51528,-18.95754 -19.76031,-33.73353 -38.6075,-40.04655 -2.551,-0.85447 -4.72964,-1.66414 -4.84142,-1.79926 -0.11178,-0.13511 -0.0455,-0.97491 0.14736,-1.8662 0.33876,-1.56585 0.47509,-1.58543 4.03988,-0.58023 2.02912,0.57217 5.53814,1.88147 7.79784,2.90955 24.19363,11.00731 38.77558,34.29959 37.45772,59.83259 -0.76768,14.87361 -9.05577,26.35778 -21.88449,30.32368 -6.27696,1.94047 -14.63106,1.95285 -22.05852,0.0327 z"
     id="path3496"
     inkscape:connector-curvature="0" />
  <path
     style="fill:#ffffff"
     d="m 779.98477,256.05461 c 0,-4.72723 5.47399,-10.91357 6.57846,-7.43455 0.75281,2.37128 -0.40497,5.31524 -2.81294,7.15262 -3.00729,2.29469 -3.76552,2.35146 -3.76552,0.28193 z"
     id="path3498"
     inkscape:connector-curvature="0" />
  <path
     style="fill:#ffffff"
     d="m 703.58925,289.89522 c -11.03772,-28.06795 -16.48765,-63.88981 -15.36906,-101.01921 0.24968,-8.28776 0.64496,-16.59086 0.87841,-18.45132 l 0.42443,-3.38266 1.48341,3.19821 c 2.85596,6.15742 10.57621,19.87282 16.14454,28.68154 7.24428,11.45996 14.84002,21.93508 27.74574,38.26359 l 10.39283,13.14915 -0.65136,14.76477 -0.65137,14.76476 -8.69203,4.67353 c -9.73404,5.23379 -27.23482,14.06917 -27.86768,14.06917 -0.22663,0 -1.95367,-3.92019 -3.83786,-8.71153 z"
     id="path3500"
     inkscape:connector-curvature="0" />
  <path
     style="fill:#ffffff"
     d="m 799.80324,243.48976 c 0,-0.65435 -0.64729,-1.4388 -1.43843,-1.7432 -0.79114,-0.3044 -12.72419,-0.58864 -26.51787,-0.63164 l -25.07943,-0.0782 -5.80713,-6.95476 C 722.26957,211.69737 705.64853,185.99529 694.10449,161.626 l -3.57409,-7.54484 1.55661,-10.61482 c 0.85613,-5.83816 2.02467,-12.9507 2.59676,-15.80564 l 1.04015,-5.19081 3.29261,-1.49253 c 1.81094,-0.82088 3.3616,-1.41536 3.44591,-1.32107 0.0843,0.0943 0.44398,7.52393 0.79924,16.51029 1.31904,33.36462 4.75043,49.56537 12.68273,59.87937 7.97891,10.37462 18.42306,14.41798 44.68923,17.30103 10.97238,1.20435 12.58672,1.20495 24.03849,0.009 15.21283,-1.58895 22.78334,-3.10085 30.01945,-5.99514 18.14707,-7.25846 25.13499,-22.45621 27.29972,-59.37297 0.36354,-6.19984 0.87326,-15.14843 1.13268,-19.88574 l 0.4717,-8.61326 3.28298,1.48626 c 3.2567,1.47436 3.29092,1.52476 4.27518,6.29504 3.13056,15.1724 5.96476,41.30925 6.5966,60.83328 l 0.41262,12.7504 -12.71778,10.12867 c -11.70194,9.31961 -19.5404,15.23077 -37.20349,28.05599 -7.86351,5.70973 -8.43855,6.01305 -8.43855,4.45144 z"
     id="path3502"
     inkscape:connector-curvature="0" />
  <path
     style="fill:#ffffff"
     d="m 820.54646,316.43989 c -3.49737,-2.51716 -9.23572,-6.95083 -12.75189,-9.85258 l -6.39306,-5.27592 0,-17.89768 c 0,-9.84373 -0.17324,-18.10907 -0.38497,-18.36742 -0.21174,-0.25835 -2.3694,0.70094 -4.7948,2.13175 -2.4254,1.43082 -6.51517,3.76008 -9.08837,5.17613 -3.66908,2.01912 -4.92115,3.14622 -5.80289,5.22367 l -1.12435,2.64903 -3.94651,-4.41645 c -2.17058,-2.42905 -3.94651,-4.66461 -3.94651,-4.96792 0,-0.95311 13.62105,-8.40752 16.30229,-8.92178 4.51411,-0.86579 10.84201,-2.88832 11.72985,-3.7491 0.5479,-0.5312 0.74027,-1.73956 0.52829,-3.31852 -0.32994,-2.45754 -0.25319,-2.54082 7.44931,-8.08233 14.18059,-10.20212 35.81571,-26.38539 42.46502,-31.76421 l 6.55288,-5.30082 -0.012,4.84698 c -0.0173,6.97122 -2.1436,25.73293 -4.14002,36.5298 -3.93499,21.2809 -12.01639,44.57482 -21.38033,61.62695 -2.50894,4.5689 -4.63852,8.30709 -4.7324,8.30709 -0.0939,0 -3.03217,-2.0595 -6.52953,-4.57667 z"
     id="path3504"
     inkscape:connector-curvature="0" />
  <path
     style="fill:#ffffff"
     d="m 773.59172,202.76193 0,-10.06938 2.15684,-2.28902 c 4.7769,-5.06966 6.98209,-15.8845 7.00806,-34.36947 0.0154,-10.92378 -0.2147,-14.27657 -1.36558,-19.90281 -1.65421,-8.0868 -3.23341,-12.0592 -5.85337,-14.72392 l -1.94595,-1.9792 0,-10.21736 0,-10.217356 11.02802,0.510089 c 18.22544,0.842997 31.58144,3.662527 48.45047,10.228197 l 8.71962,3.3938 -0.22604,12.18126 c -0.65465,35.28051 -3.55673,54.21779 -10.09703,65.8875 -5.51162,9.83424 -13.68805,15.06757 -28.31553,18.12337 -5.48657,1.1462 -24.18043,3.51368 -27.74428,3.51368 l -1.81523,0 0,-10.06938 z"
     id="path3506"
     inkscape:connector-curvature="0" />
  <path
     style="fill:#ffffff"
     d="m 757.60908,211.62364 c -25.0094,-2.98462 -35.20718,-7.58257 -42.41277,-19.12298 -6.69845,-10.72819 -9.54342,-26.65127 -10.65749,-59.64915 -0.33003,-9.77531 -0.60712,-18.19447 -0.61574,-18.70925 -0.0199,-1.19237 15.23123,-7.15374 25.25096,-9.87007 10.66821,-2.89212 19.32084,-4.17709 32.11104,-4.768687 l 11.02803,-0.510089 0,10.217356 0,10.21736 -1.94595,1.9792 c -3.7119,3.77531 -5.83221,11.25914 -7.06237,24.92729 -0.84008,9.334 0.0429,24.65368 1.88351,32.67679 1.39356,6.07465 4.1043,11.90097 5.84828,12.57003 1.19237,0.45743 1.27653,1.17407 1.27653,10.8698 l 0,10.38007 -3.0367,-0.0888 c -1.67019,-0.0488 -6.92049,-0.55234 -11.66733,-1.11883 z"
     id="path3508"
     inkscape:connector-curvature="0" />
  <path
     style="fill:#ffffff"
     d="M 744.17446,246.25415 C 720.91837,217.90972 710.82994,203.7468 699.48895,183.52117 684.0659,156.01558 667.87221,113.89603 663.96462,91.122914 c -1.35649,-7.905537 -1.37263,-21.589398 -0.0328,-27.819062 3.06814,-14.265714 10.65208,-25.463572 21.75539,-32.12233 7.21681,-4.327982 12.83282,-5.593929 22.69535,-5.115919 12.30729,0.596501 21.28569,4.222811 32.37694,13.076809 16.80835,13.417883 29.59698,34.811489 33.72892,56.423825 0.37965,1.985772 0.26929,2.124683 -1.68364,2.119213 -2.06665,-0.0058 -2.10578,-0.07469 -3.51445,-6.188537 -4.66159,-20.232073 -18.60525,-41.139541 -34.99305,-52.469432 -2.71441,-1.87664 -7.85762,-4.655453 -11.42935,-6.175141 -6.38655,-2.717328 -6.65808,-2.762771 -16.40329,-2.745199 -8.56576,0.01544 -10.44373,0.248413 -13.85161,1.718331 -11.58967,4.998977 -20.09068,15.240243 -23.88436,28.773749 -1.98427,7.078664 -2.39522,19.055905 -0.96775,28.205438 3.77821,24.216931 21.44049,69.549531 38.23646,98.138921 10.90582,18.56344 19.51557,30.38184 42.63547,58.52475 16.56202,20.16026 17.51972,21.47867 16.13835,22.21661 -0.80768,0.43147 -1.67075,0.78509 -1.91792,0.78582 -0.24716,7.3e-4 -8.65263,-9.99675 -18.67881,-22.21661 z"
     id="path3510"
     inkscape:connector-curvature="0" />
  <path
     style="fill:#ffffff"
     d="m 649.30102,319.86315 c -9.51578,-2.39886 -18.0436,-9.25924 -21.19845,-17.05351 -1.5145,-3.74166 -1.68188,-4.9075 -1.41803,-9.87701 0.22657,-4.26729 0.74178,-6.61756 2.12314,-9.68537 2.33159,-5.17811 9.16155,-12.97095 14.94907,-17.0566 9.34241,-6.59517 26.61943,-14.39526 39.58295,-17.87057 5.649,-1.51442 6.68642,-1.61017 7.1818,-0.66297 0.31845,0.60893 0.49425,1.43146 0.39066,1.82784 -0.1036,0.39638 -3.15593,1.5236 -6.78297,2.50492 -15.4692,4.18532 -35.09331,13.88982 -43.32048,21.4228 -17.0867,15.64497 -12.45295,36.79783 9.34851,42.67552 6.57141,1.77166 17.34292,1.10549 25.83097,-1.59753 13.54647,-4.31387 58.32244,-27.17008 88.01394,-44.92731 20.25952,-12.11637 29.64911,-18.35257 50.8248,-33.75584 50.46273,-36.7068 67.3155,-53.51225 76.12341,-75.9097 5.4207,-13.78417 6.13879,-27.30782 1.81395,-34.16154 -6.28369,-9.95798 -25.55645,-12.65297 -37.53279,-5.24838 -2.55491,1.57962 -3.27685,1.73949 -4.31532,0.95559 -0.6859,-0.51777 -1.24709,-1.18773 -1.24709,-1.4888 0,-1.03075 8.11652,-5.23057 12.53067,-6.48388 9.09032,-2.581 21.24715,-0.37888 28.99929,5.25302 6.78677,4.93056 9.33145,13.05576 7.87361,25.1406 -2.31024,19.15082 -11.93767,36.07783 -30.86371,54.26476 -12.80369,12.30368 -49.78373,40.60466 -75.75772,57.9777 -11.11279,7.43294 -39.43267,24.49286 -52.42306,31.5797 -13.08895,7.14061 -48.20325,24.54346 -55.63781,27.57442 -3.52621,1.43758 -8.56074,3.1722 -11.18785,3.8547 -6.77436,1.75992 -18.43827,2.12467 -23.90149,0.74744 z"
     id="path3512"
     inkscape:connector-curvature="0" />
  <path
     style="fill:#ffffff"
     d="m 860.53728,344.59269 c -6.63682,-1.79909 -13.10124,-4.82647 -22.69535,-10.62854 -24.76441,-14.97635 -41.92239,-29.12558 -63.05415,-51.99722 l -7.7821,-8.42284 1.84426,-0.91119 c 1.75954,-0.86934 2.04363,-0.69304 6.18444,3.83787 9.08184,9.93743 20.89799,21.64952 28.28505,28.03597 13.49553,11.6675 36.19438,27.07223 47.94792,32.54017 17.48772,8.13559 33.63575,5.99637 42.41862,-5.61942 4.54332,-6.00876 6.02189,-11.07756 6.07993,-20.84308 0.0545,-9.17098 -1.33576,-15.40688 -5.42688,-24.34168 -3.31587,-7.24169 -11.85585,-17.63082 -18.17592,-22.11153 -4.94122,-3.50315 -14.66431,-8.40529 -18.22451,-9.18835 -3.13043,-0.68853 -3.80442,-1.32869 -3.39437,-3.224 0.34034,-1.57314 0.47324,-1.59243 4.0412,-0.58633 2.02912,0.57217 5.53814,1.88147 7.79784,2.90955 24.1484,10.98673 38.77524,34.30619 37.46316,59.72722 -0.71092,13.77394 -7.88605,24.77922 -19.38679,29.73568 -5.00062,2.15512 -17.8324,2.73856 -23.92235,1.08772 z"
     id="path3514"
     inkscape:connector-curvature="0" />
  <path
     style="fill:#ffffff"
     d="m 744.17867,246.26794 c -24.51283,-29.90161 -34.15944,-43.55223 -45.7455,-64.73307 -16.01365,-29.27507 -31.13685,-69.3834 -34.81906,-92.343835 -1.02268,-6.376908 -0.881,-19.696868 0.27329,-25.694007 3.44522,-17.89959 16.24322,-32.671906 31.70903,-36.600714 5.99929,-1.524007 18.84083,-1.05698 24.93292,0.906772 22.66484,7.305892 44.59037,32.593741 52.02418,60.002149 2.67064,9.846634 2.67154,9.886069 0.22511,9.886069 -2.07367,0 -2.13889,-0.104492 -3.25559,-5.216074 C 766.84584,80.220467 759.6576,65.588574 751.2348,55.248914 736.494,37.153393 720.83759,28.840429 703.58776,29.950122 692.23632,30.680366 685.481,34.182721 677.86097,43.28839 c -12.92377,15.443454 -14.31449,36.228578 -4.54489,67.92607 7.55828,24.52285 16.79858,46.46954 28.95655,68.7749 11.47605,21.05427 20.87318,34.31661 46.38617,65.46555 16.5175,20.16632 17.49208,21.51151 16.11239,22.23958 -0.80769,0.42622 -1.67076,0.78175 -1.91792,0.79006 -0.24717,0.008 -8.65074,-9.98916 -18.6746,-22.21661 z"
     id="path3516"
     inkscape:connector-curvature="0" />
  <path
     style="fill:#ffffff"
     d="m 842.22511,452.67267 c -0.4022,-0.19933 -0.58932,-1.0185 -0.41584,-1.82038 0.25069,-1.15877 -0.1896,-1.62253 -2.14561,-2.25996 -1.35357,-0.44111 -5.28388,-1.82689 -8.73401,-3.07951 -5.16506,-1.87526 -6.33449,-2.08373 -6.62129,-1.18037 -0.5647,1.77879 -2.65432,1.31396 -2.88408,-0.64156 -0.1513,-1.28766 -0.82795,-1.9249 -2.60846,-2.45654 -2.75422,-0.82237 -2.75627,-0.76296 0.29971,-8.65659 1.43158,-3.6978 2.19359,-4.87724 2.97361,-4.60252 25.8523,9.10499 32.47416,11.5313 32.94351,12.07081 0.32699,0.37587 -0.42183,3.17512 -1.76156,6.58508 -2.08039,5.29512 -2.48424,5.8783 -3.7653,5.43727 -4.01208,-1.38122 -4.93409,-1.4097 -5.32936,-0.16464 -0.4086,1.28705 -0.68561,1.3962 -1.95132,0.76891 z m -3.10163,-11.88747 c 0.63585,-1.70439 1.01817,-3.26559 0.84961,-3.46934 -0.16856,-0.20374 -1.19694,-0.58571 -2.28527,-0.84881 -1.75341,-0.42389 -2.09925,-0.19681 -3.03635,1.99357 -1.2588,2.94238 -0.93582,4.40805 1.07362,4.87191 0.81264,0.1876 1.64961,0.38844 1.85992,0.44632 0.21031,0.0579 0.90262,-1.28927 1.53847,-2.99365 z"
     id="path3518"
     inkscape:connector-curvature="0" />
  <path
     style="fill:#ffffff"
     d="m 754.38215,420.06458 c -0.7492,-0.36111 -1.0691,-0.94083 -1.34271,-2.43328 l -0.0873,-0.47615 -0.83001,0.70751 c -1.04516,0.89092 -1.73717,0.97857 -2.23234,0.28274 -0.36769,-0.51669 -0.5623,-1.69379 -0.44893,-2.71539 0.0414,-0.37243 0.0458,-0.67715 0.01,-0.67715 -0.0358,0 -0.30079,0.19353 -0.58879,0.43008 -0.83054,0.68216 -1.48111,0.49841 -1.67492,-0.47309 -0.0907,-0.45461 -0.0727,-0.47308 0.45969,-0.47308 0.30473,0 1.51253,0.18809 2.68398,0.41799 4.31869,0.84755 5.44394,1.00608 7.27495,1.02497 2.1523,0.0222 2.0841,-0.10105 0.94165,1.70142 -0.7774,1.22652 -1.94176,2.31023 -2.82889,2.63295 -0.76988,0.28006 -0.85349,0.28322 -1.33636,0.0505 z"
     id="path3520"
     inkscape:connector-curvature="0" />
  <path
     style="fill:#ffffff"
     d="m 828.2477,460.42703 c -12.4643,-4.46091 -17.42859,-6.30666 -17.41363,-6.47446 0.0241,-0.26997 4.72714,-12.73671 4.86754,-12.90275 0.0511,-0.0604 1.24564,0.30752 2.65464,0.81757 1.409,0.51005 2.65789,0.90514 2.7753,0.87799 0.47673,-0.11024 -0.58658,-0.65251 -2.81088,-1.43348 -1.27201,-0.44662 -2.31323,-0.89584 -2.31383,-0.99826 -6e-4,-0.10242 1.0999,-3.09963 2.44555,-6.66046 2.43584,-6.44568 2.44824,-6.47358 2.81196,-6.3245 0.20094,0.0824 7.98672,2.86258 17.30177,6.17826 9.31503,3.31569 17.07899,6.0843 17.25322,6.15247 0.30533,0.11946 0.22972,0.35429 -2.08938,6.48909 -1.3234,3.50083 -2.46108,6.47251 -2.52817,6.60374 -0.0998,0.19518 -0.61533,0.0621 -2.83315,-0.73113 -1.49114,-0.53335 -2.90425,-0.96973 -3.14025,-0.96973 -0.39292,0 -0.46807,0.10221 -0.89154,1.21274 -0.26108,0.68464 -0.53365,1.17946 -0.62595,1.1363 -0.0899,-0.042 -0.69186,-0.25727 -1.33765,-0.47828 -0.66531,-0.2277 -1.17416,-0.49483 -1.17416,-0.6164 0,-0.118 0.17448,-0.64457 0.38773,-1.17014 0.28588,-0.70459 0.35018,-1.02756 0.24476,-1.22955 -0.16099,-0.30852 -16.17482,-6.07997 -16.86984,-6.07997 -0.37746,0 -0.45668,0.11115 -0.86404,1.21238 -0.25244,0.6824 -0.51957,1.17941 -0.6111,1.13696 -0.0894,-0.0415 -0.67192,-0.24725 -1.29441,-0.45727 -0.62249,-0.21002 -1.17606,-0.41374 -1.23015,-0.45271 -0.0541,-0.039 0.0246,-0.39814 0.17478,-0.79812 0.28041,-0.74665 0.36522,-1.50139 0.16872,-1.50139 -0.17873,0 -0.92387,2.21182 -0.83715,2.48497 0.0436,0.13722 0.32268,0.32981 0.62025,0.42797 0.29757,0.0982 0.95798,0.32369 1.46758,0.50117 1.23105,0.42873 1.43012,0.3165 1.92253,-1.08393 0.24961,-0.70993 0.46778,-1.10963 0.57781,-1.05859 0.0972,0.0451 3.8171,1.37656 8.26639,2.95881 4.4493,1.58226 8.10647,2.8915 8.12706,2.90944 0.0206,0.0179 -0.18694,0.62782 -0.46121,1.35528 -0.35038,0.92932 -0.44616,1.34315 -0.32209,1.39155 1.51005,0.58905 2.77944,0.96047 3.1378,0.91811 0.39716,-0.0469 0.4984,-0.18124 0.90516,-1.20074 l 0.45798,-1.14788 1.68053,0.59739 c 4.07398,1.44821 4.05865,1.44144 3.96552,1.75136 -0.40514,1.34829 -4.87921,12.93031 -4.98912,12.91533 -0.0783,-0.0107 -7.98787,-2.82728 -17.57688,-6.25914 z m 4.48495,-3.13953 c 0.80634,-2.04043 1.77726,-4.69103 1.77726,-4.8519 0,-0.0917 -0.24017,-0.24501 -0.53371,-0.34068 -0.29354,-0.0957 -1.17249,-0.40585 -1.95322,-0.6893 -1.2284,-0.44598 -1.45868,-0.48435 -1.71041,-0.28499 -0.29527,0.23386 -2.06961,4.77214 -2.06654,5.28565 8.3e-4,0.154 0.0826,0.36121 0.18158,0.46047 0.19369,0.1943 3.29726,1.37021 3.68173,1.39497 0.14827,0.01 0.37392,-0.34314 0.62331,-0.97422 z m 5.52855,-14.62263 c 0.18719,-0.44943 0.67774,-1.73908 1.09012,-2.86588 0.66644,-1.82103 0.72457,-2.07102 0.52294,-2.24924 -0.12477,-0.11027 -0.99529,-0.45777 -1.9345,-0.77221 -2.16659,-0.72538 -2.10778,-0.7641 -3.19089,2.10052 -0.78447,2.07476 -0.97962,3.07939 -0.64653,3.32822 0.26521,0.19812 3.1568,1.2362 3.5007,1.25675 0.24321,0.0145 0.39773,-0.17285 0.65816,-0.79816 z"
     id="path3522"
     inkscape:connector-curvature="0" />
  <path
     style="fill:#ffffff"
     d="m 841.27025,465.08161 c -2.4266,-0.87606 -10.24014,-3.66794 -17.36341,-6.20419 -7.12325,-2.53625 -12.9996,-4.66138 -13.05853,-4.72252 -0.0962,-0.0998 4.61937,-12.84049 4.85038,-13.10487 0.0527,-0.0603 1.27308,0.31007 2.71204,0.82297 1.43897,0.5129 2.65573,0.88489 2.70392,0.82664 0.18928,-0.22879 -0.48862,-0.56465 -2.75007,-1.36248 -1.29616,-0.45729 -2.35719,-0.91655 -2.35784,-1.02059 -6.5e-4,-0.10403 1.09716,-3.1019 2.43959,-6.66192 l 2.44077,-6.47277 1.0829,0.39682 c 0.5956,0.21826 8.51217,3.04297 17.59237,6.27715 9.08021,3.23417 16.52247,5.89374 16.53835,5.91015 0.0465,0.0481 -4.81366,12.905 -4.93937,13.06636 -0.0629,0.0807 -1.25731,-0.26115 -2.65435,-0.75961 -1.39706,-0.49846 -2.79627,-0.91284 -3.10938,-0.92083 -0.56239,-0.0143 -0.57481,-0.001 -1.02436,1.10368 -0.25029,0.61501 -0.50647,1.1182 -0.56929,1.1182 -0.40332,0 -2.60488,-0.88696 -2.60488,-1.04945 0,-0.10956 0.16598,-0.63744 0.36885,-1.17305 0.20286,-0.53562 0.3379,-1.07134 0.30007,-1.19049 -0.0803,-0.25293 -1.19028,-0.67568 -9.99108,-3.80529 -3.60077,-1.28046 -6.7106,-2.3284 -6.91075,-2.32877 -0.30992,-5.7e-4 -0.43535,0.1779 -0.84585,1.20355 -0.26508,0.66232 -0.49032,1.20421 -0.50055,1.20421 -0.0388,0 -2.42527,-0.86586 -2.59227,-0.94054 -0.13005,-0.0582 -0.10089,-0.28791 0.11314,-0.89143 0.15859,-0.4472 0.2649,-0.97274 0.23626,-1.16786 -0.038,-0.25932 -0.17767,-0.0417 -0.51893,0.80901 -0.25678,0.64008 -0.43492,1.26439 -0.39589,1.38735 0.0785,0.24734 2.41133,1.14754 2.97376,1.14754 0.44598,0 0.70919,-0.35695 1.11645,-1.51409 0.17654,-0.50159 0.39174,-0.88006 0.47821,-0.84103 0.0865,0.039 3.80782,1.36991 8.26965,2.95753 4.46183,1.58762 8.12988,2.90326 8.15123,2.92365 0.0213,0.0204 -0.15723,0.56524 -0.39685,1.21078 -0.23962,0.64555 -0.4068,1.26467 -0.3715,1.37585 0.0914,0.2879 2.83124,1.18154 3.2412,1.05717 0.24098,-0.0731 0.47136,-0.42668 0.79513,-1.22029 l 0.45584,-1.11736 0.6805,0.24567 c 0.37427,0.13512 1.62775,0.58638 2.78552,1.0028 1.15776,0.41643 2.14373,0.80393 2.19105,0.86113 0.12266,0.14826 -4.83587,13.18869 -5.0077,13.16975 -0.0783,-0.009 -2.12772,-0.73247 -4.55433,-1.60853 z m -8.8257,-7.20778 c 0.26138,-0.48218 2.06536,-5.22332 2.06536,-5.42808 0,-0.18272 -3.39372,-1.39437 -3.90551,-1.39437 -0.35386,0 -0.45856,0.18684 -1.30386,2.32689 -1.01761,2.57626 -1.17399,3.18805 -0.8872,3.47106 0.18172,0.17934 3.27462,1.37957 3.63822,1.41185 0.096,0.009 0.27289,-0.16578 0.39299,-0.38735 z m 6.49599,-16.97227 c 0.52576,-1.37195 0.96082,-2.6998 0.96679,-2.95078 0.0116,-0.48775 -0.14091,-0.567 -2.79256,-1.4513 -1.23033,-0.4103 -1.36219,-0.27624 -2.36443,2.40393 -0.7795,2.08455 -0.97528,3.05838 -0.66189,3.2925 0.30819,0.23023 3.35155,1.26982 3.61762,1.23576 0.21049,-0.0269 0.51206,-0.64503 1.23447,-2.53011 z"
     id="path3524"
     inkscape:connector-curvature="0" />
  <path
     style="fill:#ffffff"
     d="m 830.34747,457.01546 c -0.8412,-0.29981 -1.52969,-0.63198 -1.52997,-0.73815 -2.8e-4,-0.10617 0.38386,-1.18997 0.85364,-2.40843 0.58269,-1.51131 0.92398,-2.20739 1.07387,-2.1902 0.44346,0.0509 3.05222,1.01062 3.05274,1.12312 8.3e-4,0.22907 -1.75122,4.78645 -1.83509,4.77276 -0.0472,-0.008 -0.77399,-0.25929 -1.61519,-0.5591 z"
     id="path3526"
     inkscape:connector-curvature="0" />
  <path
     style="fill:#ffffff"
     d="m 835.82639,442.23734 c -0.80234,-0.28874 -1.4588,-0.58747 -1.4588,-0.66385 0,-0.11831 1.68042,-4.64928 1.76172,-4.75015 0.0157,-0.0195 0.53843,0.15577 1.16154,0.38954 0.62312,0.23377 1.3667,0.50224 1.6524,0.59659 l 0.51946,0.17155 -0.90042,2.36343 c -0.49524,1.29989 -0.98517,2.37568 -1.08875,2.39066 -0.10358,0.015 -0.84479,-0.20902 -1.64715,-0.49777 z"
     id="path3528"
     inkscape:connector-curvature="0" />
  <path
     style="fill:#ffffff"
     d="m 754.29884,420.01909 c -0.60158,-0.32451 -0.99604,-0.98171 -1.19702,-1.99436 l -0.16927,-0.85288 -0.8202,0.69917 c -1.03503,0.88227 -1.72899,0.96795 -2.22255,0.27438 -0.36769,-0.51669 -0.5623,-1.69379 -0.44893,-2.71539 0.0414,-0.37243 0.0458,-0.67715 0.01,-0.67715 -0.0358,0 -0.30079,0.19353 -0.58879,0.43008 -0.28799,0.23654 -0.69725,0.43007 -0.90947,0.43007 -0.41255,0 -0.82897,-0.53774 -0.82897,-1.07046 0,-0.44022 0.51339,-0.40392 4.21873,0.29828 3.69921,0.70103 6.34886,1.00029 7.43588,0.83981 l 0.7669,-0.11322 -0.33993,0.74119 c -0.18697,0.40765 -0.75623,1.25335 -1.26504,1.87934 -1.34352,1.65294 -2.70366,2.33692 -3.6413,1.83114 z"
     id="path3530"
     inkscape:connector-curvature="0" />
  <path
     style="fill:#ffffff"
     d="m 754.29884,420.01909 c -0.59955,-0.32341 -0.99591,-0.98105 -1.19457,-1.98202 l -0.16682,-0.84054 -0.80766,0.66929 c -1.04175,0.86327 -1.54373,0.98698 -2.05033,0.50531 -0.45897,-0.43639 -0.67681,-1.28325 -0.6779,-2.6353 l -7.9e-4,-0.99537 -0.53117,0.43627 c -0.29214,0.23996 -0.7048,0.43628 -0.91702,0.43628 -0.41255,0 -0.82898,-0.53774 -0.82898,-1.07046 0,-0.43646 0.44899,-0.40478 4.28105,0.30209 3.68121,0.67905 6.34302,0.97212 7.42385,0.81739 l 0.72059,-0.10315 -0.34192,0.74546 c -0.18806,0.41 -0.75821,1.25762 -1.26702,1.88361 -1.34352,1.65294 -2.70366,2.33692 -3.64131,1.83114 z"
     id="path3532"
     inkscape:connector-curvature="0" />
  <path
     style="fill:#ffffff"
     d="m 803.55466,447.69568 c -8.82874,-1.5111 -17.12945,-6.56585 -19.23381,-11.71251 -0.93266,-2.28103 -0.71804,-3.94173 0.7159,-5.53938 l 0.6485,-0.72255 -0.34885,-0.27629 c -0.23167,-0.18348 -0.91157,-0.32887 -2.02417,-0.43284 -8.30144,-0.77577 -16.89315,-5.29099 -20.56446,-10.8073 -0.46895,-0.70462 -0.98782,-1.61746 -1.15305,-2.02854 -0.20321,-0.50559 -0.41709,-0.78098 -0.661,-0.85115 -0.19833,-0.0571 -0.40943,-0.13691 -0.46913,-0.17746 -0.0597,-0.0405 0.18569,-0.76229 0.54529,-1.60387 0.48756,-1.14105 0.88444,-1.79091 1.56076,-2.55564 1.98243,-2.24156 5.12902,-3.33259 8.03626,-2.78643 0.92244,0.17329 49.61742,17.40392 50.04109,17.70695 0.1009,0.0722 -1.28098,3.91751 -3.87331,10.77813 l -4.03017,10.66592 -0.75221,0.23011 c -1.12959,0.34557 -6.64682,0.41936 -8.43764,0.11285 z"
     id="path3534"
     inkscape:connector-curvature="0" />
  <path
     style="fill:#ffffff"
     d="m 756.65562,285.8085 c 0,-1.87322 5.35745,-9.11317 7.6525,-10.34145 1.40721,-0.75311 2.1744,-0.64213 3.0767,0.44508 1.00104,1.20618 0.4248,2.1384 -3.44626,5.57518 -5.92415,5.25956 -7.28294,6.06577 -7.28294,4.32119 z"
     id="path3430"
     inkscape:connector-curvature="0" />
</svg>
