<?xml version="1.0" encoding="UTF-8" standalone="no"?>
<!-- Created with Inkscape (http://www.inkscape.org/) -->

<svg
   xmlns:dc="http://purl.org/dc/elements/1.1/"
   xmlns:cc="http://creativecommons.org/ns#"
   xmlns:rdf="http://www.w3.org/1999/02/22-rdf-syntax-ns#"
   xmlns:svg="http://www.w3.org/2000/svg"
   xmlns="http://www.w3.org/2000/svg"
   xmlns:sodipodi="http://sodipodi.sourceforge.net/DTD/sodipodi-0.dtd"
   xmlns:inkscape="http://www.inkscape.org/namespaces/inkscape"
   width="210mm"
   height="297mm"
   viewBox="0 0 210 297"
   version="1.1"
   id="svg5425"
   sodipodi:docname="SourisRezoleo.svg"
   inkscape:version="0.92.1 unknown"
   inkscape:export-filename="/home/nymous/Pictures/VectorGraphics/SourisRezoleo.svg.png"
   inkscape:export-xdpi="96"
   inkscape:export-ydpi="96">
  <defs
     id="defs5419" />
  <sodipodi:namedview
     id="base"
     pagecolor="#ffffff"
     bordercolor="#666666"
     borderopacity="1.0"
     inkscape:pageopacity="0"
     inkscape:pageshadow="2"
     inkscape:zoom="0.5"
     inkscape:cx="81.240562"
     inkscape:cy="509.23179"
     inkscape:document-units="px"
     inkscape:current-layer="layer1"
     showgrid="false"
     showborder="false"
     inkscape:window-width="1920"
     inkscape:window-height="1056"
     inkscape:window-x="1280"
     inkscape:window-y="24"
     inkscape:window-maximized="1"
     inkscape:object-nodes="true"
     inkscape:snap-smooth-nodes="false"
     inkscape:snap-object-midpoints="false"
     inkscape:snap-bbox="false"
     inkscape:snap-bbox-edge-midpoints="false"
     inkscape:bbox-paths="false"
     inkscape:bbox-nodes="false"
     inkscape:snap-bbox-midpoints="false"
     inkscape:object-paths="false"
     inkscape:snap-intersection-paths="false"
     inkscape:snap-midpoints="false"
     inkscape:snap-nodes="false"
     inkscape:pagecheckerboard="false" />
  <metadata
     id="metadata5422">
    <rdf:RDF>
      <cc:Work
         rdf:about="">
        <dc:format>image/svg+xml</dc:format>
        <dc:type
           rdf:resource="http://purl.org/dc/dcmitype/StillImage" />
        <dc:title></dc:title>
      </cc:Work>
    </rdf:RDF>
  </metadata>
  <g
     inkscape:label="Layer 1"
     inkscape:groupmode="layer"
     id="layer1">
    <path
       style="color:#000000;font-style:normal;font-variant:normal;font-weight:normal;font-stretch:normal;font-size:medium;line-height:normal;font-family:sans-serif;font-variant-ligatures:normal;font-variant-position:normal;font-variant-caps:normal;font-variant-numeric:normal;font-variant-alternates:normal;font-feature-settings:normal;text-indent:0;text-align:start;text-decoration:none;text-decoration-line:none;text-decoration-style:solid;text-decoration-color:#000000;letter-spacing:normal;word-spacing:normal;text-transform:none;writing-mode:lr-tb;direction:ltr;text-orientation:mixed;dominant-baseline:auto;baseline-shift:baseline;text-anchor:start;white-space:normal;shape-padding:0;clip-rule:nonzero;display:inline;overflow:visible;visibility:visible;opacity:1;isolation:auto;mix-blend-mode:normal;color-interpolation:sRGB;color-interpolation-filters:linearRGB;solid-color:#000000;solid-opacity:1;vector-effect:none;fill:#000000;fill-opacity:1;fill-rule:nonzero;stroke:none;stroke-width:0.52916664;stroke-linecap:butt;stroke-linejoin:miter;stroke-miterlimit:4;stroke-dasharray:none;stroke-dashoffset:0;stroke-opacity:1;color-rendering:auto;image-rendering:auto;shape-rendering:auto;text-rendering:auto;enable-background:accumulate"
       d="m -16.93332,60.718665 v 0.0021 c -17.02849,0.01951 -28.77183,1.909871 -46.98266,9.986469 l -0.15606,0.07028 v 0.171567 c 0,32.914509 2.12883,49.720999 9.1798,58.822249 3.52549,4.55063 8.28048,7.13904 14.53865,8.81083 6.20528,1.65767 13.90248,2.4262 23.42027,3.33778 0.0811,0.008 0.15686,0.0155 0.23823,0.0232 l 0.0253,0.003 0.0253,-0.003 c 0.0821,-0.008 0.1585,-0.0154 0.2403,-0.0232 9.51683,-0.91149 17.21338,-1.68024 23.41821,-3.33778 6.25816,-1.67179 11.01523,-4.2602 14.54071,-8.81083 7.05097,-9.10125 9.1798,-25.90774 9.1798,-58.822248 V 70.777515 L 30.5764,70.707235 C 12.36632,62.630967 0.62318,60.740429 -16.40419,60.720765 v -0.0021 h -0.26562 z m 0,0.538986 v 80.128959 c -9.48191,-0.90841 -17.16028,-1.67883 -23.28333,-3.31453 -6.1915,-1.65398 -10.81383,-4.17906 -14.25805,-8.62479 -6.87436,-8.87329 -9.05515,-25.56209 -9.06404,-58.320472 18.05632,-7.986959 29.67836,-9.848945 46.60542,-9.869167 z m 0.52917,0 c 16.92674,0.02037 28.54838,1.883653 46.60542,9.871232 -0.009,32.756927 -2.1919,49.445317 -9.06611,58.318407 -3.44421,4.44573 -8.06448,6.97081 -14.25598,8.62479 -6.12259,1.63558 -13.8024,2.40621 -23.28333,3.31453 z"
       id="path5974"
       inkscape:connector-curvature="0" />
    <ellipse
       style="opacity:1;fill:#000000;fill-opacity:1;stroke:none;stroke-width:0.52916664;stroke-linecap:round;stroke-linejoin:miter;stroke-miterlimit:4;stroke-dasharray:none;stroke-opacity:1;paint-order:normal"
       id="path6066"
       cx="-16.668732"
       cy="101.33221"
       rx="6.7468748"
       ry="25.003124" />
    <path
       style="opacity:1;fill:#f8f8f8;fill-opacity:1;stroke:none;stroke-width:1.99999988;stroke-linecap:round;stroke-linejoin:miter;stroke-miterlimit:4;stroke-dasharray:none;stroke-opacity:1;paint-order:normal"
       d="M -58.996094 313.41602 C -55.360157 349.7272 -55.687141 384.75826 -58.896484 418.63086 A 12.064971 52.780695 0 0 0 -47.753906 366.01758 A 12.064971 52.780695 0 0 0 -58.996094 313.41602 z "
       transform="scale(0.26458333)"
       id="ellipse6106" />
    <path
       style="color:#000000;font-style:normal;font-variant:normal;font-weight:normal;font-stretch:normal;font-size:medium;line-height:normal;font-family:sans-serif;font-variant-ligatures:normal;font-variant-position:normal;font-variant-caps:normal;font-variant-numeric:normal;font-variant-alternates:normal;font-feature-settings:normal;text-indent:0;text-align:start;text-decoration:none;text-decoration-line:none;text-decoration-style:solid;text-decoration-color:#000000;letter-spacing:normal;word-spacing:normal;text-transform:none;writing-mode:lr-tb;direction:ltr;text-orientation:mixed;dominant-baseline:auto;baseline-shift:baseline;text-anchor:start;white-space:normal;shape-padding:0;clip-rule:nonzero;display:inline;overflow:visible;visibility:visible;opacity:1;isolation:auto;mix-blend-mode:normal;color-interpolation:sRGB;color-interpolation-filters:linearRGB;solid-color:#000000;solid-opacity:1;vector-effect:none;fill:#000000;fill-opacity:1;fill-rule:nonzero;stroke:none;stroke-width:1.99999988;stroke-linecap:butt;stroke-linejoin:miter;stroke-miterlimit:4;stroke-dasharray:none;stroke-dashoffset:0;stroke-opacity:1;color-rendering:auto;image-rendering:auto;shape-rendering:auto;text-rendering:auto;enable-background:accumulate"
       d="M -274.89062 377.89258 C -271.61841 349.52913 -267.29959 321.29648 -261.96875 293.45508 C -252.66168 289.13462 -248.68156 287.36169 -242.01562 284.26367 C -242.02038 283.52055 -242.03106 282.81808 -242.03516 282.07031 C -249.01062 285.30996 -253.35366 287.2525 -263.28516 291.86133 L -263.74805 292.07617 L -263.8457 292.58008 C -268.99904 319.43279 -273.26735 346.6502 -276.51758 374.00781 C -275.96864 375.29977 -275.44499 376.60317 -274.89062 377.89258 z "
       id="path6982"
       transform="scale(0.26458333)" />
    <path
       style="color:#000000;font-style:normal;font-variant:normal;font-weight:normal;font-stretch:normal;font-size:medium;line-height:normal;font-family:sans-serif;font-variant-ligatures:normal;font-variant-position:normal;font-variant-caps:normal;font-variant-numeric:normal;font-variant-alternates:normal;font-feature-settings:normal;text-indent:0;text-align:start;text-decoration:none;text-decoration-line:none;text-decoration-style:solid;text-decoration-color:#000000;letter-spacing:normal;word-spacing:normal;text-transform:none;writing-mode:lr-tb;direction:ltr;text-orientation:mixed;dominant-baseline:auto;baseline-shift:baseline;text-anchor:start;white-space:normal;shape-padding:0;clip-rule:nonzero;display:inline;overflow:visible;visibility:visible;opacity:1;isolation:auto;mix-blend-mode:normal;color-interpolation:sRGB;color-interpolation-filters:linearRGB;solid-color:#000000;solid-opacity:1;vector-effect:none;fill:#000000;fill-opacity:1;fill-rule:nonzero;stroke:none;stroke-width:1.99999988;stroke-linecap:butt;stroke-linejoin:miter;stroke-miterlimit:4;stroke-dasharray:none;stroke-dashoffset:0;stroke-opacity:1;color-rendering:auto;image-rendering:auto;shape-rendering:auto;text-rendering:auto;enable-background:accumulate"
       d="M -274.89062 377.89258 C -275.44499 376.60317 -275.96864 375.29977 -276.51758 374.00781 C -276.65755 375.18596 -276.73492 376.37017 -276.87109 377.54883 C -276.31777 378.83969 -275.80098 380.14725 -275.24219 381.43555 C -275.10996 380.25575 -275.02668 379.07192 -274.89062 377.89258 z "
       id="path6980"
       transform="scale(0.26458333)" />
    <path
       style="color:#000000;font-style:normal;font-variant:normal;font-weight:normal;font-stretch:normal;font-size:medium;line-height:normal;font-family:sans-serif;font-variant-ligatures:normal;font-variant-position:normal;font-variant-caps:normal;font-variant-numeric:normal;font-variant-alternates:normal;font-feature-settings:normal;text-indent:0;text-align:start;text-decoration:none;text-decoration-line:none;text-decoration-style:solid;text-decoration-color:#000000;letter-spacing:normal;word-spacing:normal;text-transform:none;writing-mode:lr-tb;direction:ltr;text-orientation:mixed;dominant-baseline:auto;baseline-shift:baseline;text-anchor:start;white-space:normal;shape-padding:0;clip-rule:nonzero;display:inline;overflow:visible;visibility:visible;opacity:1;isolation:auto;mix-blend-mode:normal;color-interpolation:sRGB;color-interpolation-filters:linearRGB;solid-color:#000000;solid-opacity:1;vector-effect:none;fill:#000000;fill-opacity:1;fill-rule:nonzero;stroke:none;stroke-width:1.99999988;stroke-linecap:butt;stroke-linejoin:miter;stroke-miterlimit:4;stroke-dasharray:none;stroke-dashoffset:0;stroke-opacity:1;color-rendering:auto;image-rendering:auto;shape-rendering:auto;text-rendering:auto;enable-background:accumulate"
       d="M 144.40039 641.74805 C 144.14529 641.68664 143.89799 641.59521 143.64258 641.53516 L 143.25391 643.18359 C 143.52835 643.24809 143.79428 643.34602 144.06836 643.41211 C 144.17665 642.85632 144.29346 642.30439 144.40039 641.74805 z "
       id="path6978"
       transform="scale(0.26458333)" />
    <path
       style="color:#000000;font-style:normal;font-variant:normal;font-weight:normal;font-stretch:normal;font-size:medium;line-height:normal;font-family:sans-serif;font-variant-ligatures:normal;font-variant-position:normal;font-variant-caps:normal;font-variant-numeric:normal;font-variant-alternates:normal;font-feature-settings:normal;text-indent:0;text-align:start;text-decoration:none;text-decoration-line:none;text-decoration-style:solid;text-decoration-color:#000000;letter-spacing:normal;word-spacing:normal;text-transform:none;writing-mode:lr-tb;direction:ltr;text-orientation:mixed;dominant-baseline:auto;baseline-shift:baseline;text-anchor:start;white-space:normal;shape-padding:0;clip-rule:nonzero;display:inline;overflow:visible;visibility:visible;opacity:1;isolation:auto;mix-blend-mode:normal;color-interpolation:sRGB;color-interpolation-filters:linearRGB;solid-color:#000000;solid-opacity:1;vector-effect:none;fill:#000000;fill-opacity:1;fill-rule:nonzero;stroke:none;stroke-width:1.99999988;stroke-linecap:butt;stroke-linejoin:miter;stroke-miterlimit:4;stroke-dasharray:none;stroke-dashoffset:0;stroke-opacity:1;color-rendering:auto;image-rendering:auto;shape-rendering:auto;text-rendering:auto;enable-background:accumulate"
       d="M 146.81445 628.375 C 146.79076 628.3694 146.76784 628.36105 146.74414 628.35547 L 146.35742 630.00391 C 146.41544 630.01758 146.47129 630.039 146.5293 630.05273 C 146.62651 629.49434 146.71858 628.93391 146.81445 628.375 z "
       id="path6976"
       transform="scale(0.26458333)" />
    <path
       style="color:#000000;font-style:normal;font-variant:normal;font-weight:normal;font-stretch:normal;font-size:medium;line-height:normal;font-family:sans-serif;font-variant-ligatures:normal;font-variant-position:normal;font-variant-caps:normal;font-variant-numeric:normal;font-variant-alternates:normal;font-feature-settings:normal;text-indent:0;text-align:start;text-decoration:none;text-decoration-line:none;text-decoration-style:solid;text-decoration-color:#000000;letter-spacing:normal;word-spacing:normal;text-transform:none;writing-mode:lr-tb;direction:ltr;text-orientation:mixed;dominant-baseline:auto;baseline-shift:baseline;text-anchor:start;white-space:normal;shape-padding:0;clip-rule:nonzero;display:inline;overflow:visible;visibility:visible;opacity:1;isolation:auto;mix-blend-mode:normal;color-interpolation:sRGB;color-interpolation-filters:linearRGB;solid-color:#000000;solid-opacity:1;vector-effect:none;fill:#000000;fill-opacity:1;fill-rule:nonzero;stroke:none;stroke-width:1.99999988;stroke-linecap:butt;stroke-linejoin:miter;stroke-miterlimit:4;stroke-dasharray:none;stroke-dashoffset:0;stroke-opacity:1;color-rendering:auto;image-rendering:auto;shape-rendering:auto;text-rendering:auto;enable-background:accumulate"
       d="M 138.91016 298.72266 C 138.79687 298.11523 138.70795 297.49965 138.59375 296.89258 C 138.29933 297.15911 137.94997 297.36144 137.66016 297.63281 L 138.77734 298.82812 C 138.81856 298.78952 138.86884 298.76116 138.91016 298.72266 z "
       id="path7044"
       transform="scale(0.26458333)" />
    <path
       style="color:#000000;font-style:normal;font-variant:normal;font-weight:normal;font-stretch:normal;font-size:medium;line-height:normal;font-family:sans-serif;font-variant-ligatures:normal;font-variant-position:normal;font-variant-caps:normal;font-variant-numeric:normal;font-variant-alternates:normal;font-feature-settings:normal;text-indent:0;text-align:start;text-decoration:none;text-decoration-line:none;text-decoration-style:solid;text-decoration-color:#000000;letter-spacing:normal;word-spacing:normal;text-transform:none;writing-mode:lr-tb;direction:ltr;text-orientation:mixed;dominant-baseline:auto;baseline-shift:baseline;text-anchor:start;white-space:normal;shape-padding:0;clip-rule:nonzero;display:inline;overflow:visible;visibility:visible;opacity:1;isolation:auto;mix-blend-mode:normal;color-interpolation:sRGB;color-interpolation-filters:linearRGB;solid-color:#000000;solid-opacity:1;vector-effect:none;fill:#000000;fill-opacity:1;fill-rule:nonzero;stroke:none;stroke-width:1.99999988;stroke-linecap:butt;stroke-linejoin:miter;stroke-miterlimit:4;stroke-dasharray:none;stroke-dashoffset:0;stroke-opacity:1;color-rendering:auto;image-rendering:auto;shape-rendering:auto;text-rendering:auto;enable-background:accumulate"
       d="M 155.16602 521.45508 C 151.73841 629.83874 128.28929 734.01855 75.90625 819.63867 C 76.45625 820.02022 77.021214 820.38339 77.572266 820.76367 C 110.12752 767.59494 131.60877 707.35778 144.06836 643.41211 C 143.79428 643.34602 143.52835 643.24809 143.25391 643.18359 L 143.64258 641.53516 C 143.89799 641.59521 144.14529 641.68664 144.40039 641.74805 C 145.14693 637.86397 145.84857 633.96303 146.5293 630.05273 C 146.47129 630.039 146.41544 630.01758 146.35742 630.00391 L 146.74414 628.35547 C 146.76784 628.36105 146.79076 628.3694 146.81445 628.375 C 152.89251 592.94313 156.25597 556.46979 157.33984 519.53516 C 156.6157 520.1758 155.89229 520.81722 155.16602 521.45508 z "
       id="path7040"
       transform="scale(0.26458333)" />
    <path
       style="color:#000000;font-style:normal;font-variant:normal;font-weight:normal;font-stretch:normal;font-size:medium;line-height:normal;font-family:sans-serif;font-variant-ligatures:normal;font-variant-position:normal;font-variant-caps:normal;font-variant-numeric:normal;font-variant-alternates:normal;font-feature-settings:normal;text-indent:0;text-align:start;text-decoration:none;text-decoration-line:none;text-decoration-style:solid;text-decoration-color:#000000;letter-spacing:normal;word-spacing:normal;text-transform:none;writing-mode:lr-tb;direction:ltr;text-orientation:mixed;dominant-baseline:auto;baseline-shift:baseline;text-anchor:start;white-space:normal;shape-padding:0;clip-rule:nonzero;display:inline;overflow:visible;visibility:visible;opacity:1;isolation:auto;mix-blend-mode:normal;color-interpolation:sRGB;color-interpolation-filters:linearRGB;solid-color:#000000;solid-opacity:1;vector-effect:none;fill:#000000;fill-opacity:1;fill-rule:nonzero;stroke:none;stroke-width:1.99999988;stroke-linecap:butt;stroke-linejoin:miter;stroke-miterlimit:4;stroke-dasharray:none;stroke-dashoffset:0;stroke-opacity:1;color-rendering:auto;image-rendering:auto;shape-rendering:auto;text-rendering:auto;enable-background:accumulate"
       d="M 128.8418 287.9707 C 124.75072 286.09298 120.23899 284.02272 116.03516 282.07031 C 116.03106 282.81808 116.02038 283.52055 116.01562 284.26367 C 122.68156 287.36169 126.66168 289.13462 135.96875 293.45508 C 149.02684 361.6537 156.34281 432.16046 155.73242 501.31445 C 156.36488 500.73768 157.02796 500.19233 157.6582 499.61328 C 158.12563 432.74478 151.21796 364.71618 138.91016 298.72266 C 138.86884 298.76116 138.81856 298.78952 138.77734 298.82812 L 137.66016 297.63281 C 137.94997 297.36144 138.29933 297.15911 138.59375 296.89258 C 138.32462 295.46191 138.11988 294.00873 137.8457 292.58008 L 137.74805 292.07617 L 137.28516 291.86133 C 134.10202 290.38416 132.78025 289.78253 130.47461 288.72266 C 130.26784 288.91204 130.0428 289.07998 129.83789 289.27148 L 128.7207 288.07617 C 128.75987 288.03958 128.80257 288.00722 128.8418 287.9707 z "
       id="path7034"
       transform="scale(0.26458333)" />
    <path
       style="color:#000000;font-style:normal;font-variant:normal;font-weight:normal;font-stretch:normal;font-size:medium;line-height:normal;font-family:sans-serif;font-variant-ligatures:normal;font-variant-position:normal;font-variant-caps:normal;font-variant-numeric:normal;font-variant-alternates:normal;font-feature-settings:normal;text-indent:0;text-align:start;text-decoration:none;text-decoration-line:none;text-decoration-style:solid;text-decoration-color:#000000;letter-spacing:normal;word-spacing:normal;text-transform:none;writing-mode:lr-tb;direction:ltr;text-orientation:mixed;dominant-baseline:auto;baseline-shift:baseline;text-anchor:start;white-space:normal;shape-padding:0;clip-rule:nonzero;display:inline;overflow:visible;visibility:visible;opacity:1;isolation:auto;mix-blend-mode:normal;color-interpolation:sRGB;color-interpolation-filters:linearRGB;solid-color:#000000;solid-opacity:1;vector-effect:none;fill:#000000;fill-opacity:1;fill-rule:nonzero;stroke:none;stroke-width:1.99999988;stroke-linecap:butt;stroke-linejoin:miter;stroke-miterlimit:4;stroke-dasharray:none;stroke-dashoffset:0;stroke-opacity:1;color-rendering:auto;image-rendering:auto;shape-rendering:auto;text-rendering:auto;enable-background:accumulate"
       d="M 128.8418 287.9707 C 128.80257 288.00722 128.75987 288.03958 128.7207 288.07617 L 129.83789 289.27148 C 130.0428 289.07998 130.26784 288.91204 130.47461 288.72266 C 129.92191 288.46859 129.36336 288.21009 128.8418 287.9707 z "
       id="path6974"
       transform="scale(0.26458333)" />
    <path
       style="color:#000000;font-style:normal;font-variant:normal;font-weight:normal;font-stretch:normal;font-size:medium;line-height:normal;font-family:sans-serif;font-variant-ligatures:normal;font-variant-position:normal;font-variant-caps:normal;font-variant-numeric:normal;font-variant-alternates:normal;font-feature-settings:normal;text-indent:0;text-align:start;text-decoration:none;text-decoration-line:none;text-decoration-style:solid;text-decoration-color:#000000;letter-spacing:normal;word-spacing:normal;text-transform:none;writing-mode:lr-tb;direction:ltr;text-orientation:mixed;dominant-baseline:auto;baseline-shift:baseline;text-anchor:start;white-space:normal;shape-padding:0;clip-rule:nonzero;display:inline;overflow:visible;visibility:visible;opacity:1;isolation:auto;mix-blend-mode:normal;color-interpolation:sRGB;color-interpolation-filters:linearRGB;solid-color:#000000;solid-opacity:1;vector-effect:none;fill:#000000;fill-opacity:1;fill-rule:nonzero;stroke:none;stroke-width:1.99999988;stroke-linecap:butt;stroke-linejoin:miter;stroke-miterlimit:4;stroke-dasharray:none;stroke-dashoffset:0;stroke-opacity:1;color-rendering:auto;image-rendering:auto;shape-rendering:auto;text-rendering:auto;enable-background:accumulate"
       d="M -272.02734 632.02734 C -271.93233 632.56503 -271.85993 633.11124 -271.76367 633.64844 C -271.37775 633.55984 -271.00145 633.433 -270.61523 633.3457 L -270.97461 631.75 C -271.32861 631.83002 -271.67359 631.94624 -272.02734 632.02734 z "
       id="path7029"
       transform="scale(0.26458333)" />
    <path
       style="color:#000000;font-style:normal;font-variant:normal;font-weight:normal;font-stretch:normal;font-size:medium;line-height:normal;font-family:sans-serif;font-variant-ligatures:normal;font-variant-position:normal;font-variant-caps:normal;font-variant-numeric:normal;font-variant-alternates:normal;font-feature-settings:normal;text-indent:0;text-align:start;text-decoration:none;text-decoration-line:none;text-decoration-style:solid;text-decoration-color:#000000;letter-spacing:normal;word-spacing:normal;text-transform:none;writing-mode:lr-tb;direction:ltr;text-orientation:mixed;dominant-baseline:auto;baseline-shift:baseline;text-anchor:start;white-space:normal;shape-padding:0;clip-rule:nonzero;display:inline;overflow:visible;visibility:visible;opacity:1;isolation:auto;mix-blend-mode:normal;color-interpolation:sRGB;color-interpolation-filters:linearRGB;solid-color:#000000;solid-opacity:1;vector-effect:none;fill:#000000;fill-opacity:1;fill-rule:nonzero;stroke:none;stroke-width:1.99999988;stroke-linecap:butt;stroke-linejoin:miter;stroke-miterlimit:4;stroke-dasharray:none;stroke-dashoffset:0;stroke-opacity:1;color-rendering:auto;image-rendering:auto;shape-rendering:auto;text-rendering:auto;enable-background:accumulate"
       d="M -227.87891 775.64062 C -207.83942 818.38368 -181.84301 857.64174 -148.99609 891.96484 C -138.52109 902.91062 -117.06299 907.86921 -98.189453 910.30273 C -79.315914 912.73626 -62.986328 912.51953 -62.986328 912.51953 C -62.943997 912.52006 -46.65958 912.73308 -27.810547 910.30273 C -8.9370067 907.86921 12.521087 902.91062 22.996094 891.96484 C 40.346575 873.8346 55.771456 854.3148 69.4375 833.64453 C 68.886714 833.26494 68.325354 832.90441 67.775391 832.52344 C 54.171584 853.10812 38.81704 872.5398 21.550781 890.58203 C 11.826938 900.74288 -9.3529421 905.90746 -28.066406 908.32031 C -46.779871 910.7332 -62.986328 910.51953 -62.986328 910.51953 L -63 910.51953 L -63.013672 910.51953 C -63.013672 910.51953 -79.220129 910.73309 -97.933594 908.32031 C -116.64706 905.90746 -137.82694 900.74288 -147.55078 890.58203 C -180.24155 856.42209 -206.11355 817.31463 -226.07227 774.72266 C -226.67463 775.02802 -227.27688 775.33503 -227.87891 775.64062 z "
       id="path7025"
       transform="scale(0.26458333)" />
    <path
       style="color:#000000;font-style:normal;font-variant:normal;font-weight:normal;font-stretch:normal;font-size:medium;line-height:normal;font-family:sans-serif;font-variant-ligatures:normal;font-variant-position:normal;font-variant-caps:normal;font-variant-numeric:normal;font-variant-alternates:normal;font-feature-settings:normal;text-indent:0;text-align:start;text-decoration:none;text-decoration-line:none;text-decoration-style:solid;text-decoration-color:#000000;letter-spacing:normal;word-spacing:normal;text-transform:none;writing-mode:lr-tb;direction:ltr;text-orientation:mixed;dominant-baseline:auto;baseline-shift:baseline;text-anchor:start;white-space:normal;shape-padding:0;clip-rule:nonzero;display:inline;overflow:visible;visibility:visible;opacity:1;isolation:auto;mix-blend-mode:normal;color-interpolation:sRGB;color-interpolation-filters:linearRGB;solid-color:#000000;solid-opacity:1;vector-effect:none;fill:#000000;fill-opacity:1;fill-rule:nonzero;stroke:none;stroke-width:1.99999988;stroke-linecap:butt;stroke-linejoin:miter;stroke-miterlimit:4;stroke-dasharray:none;stroke-dashoffset:0;stroke-opacity:1;color-rendering:auto;image-rendering:auto;shape-rendering:auto;text-rendering:auto;enable-background:accumulate"
       d="M -273.875 620.68164 C -273.27036 624.46813 -272.69236 628.26405 -272.02734 632.02734 C -271.67359 631.94624 -271.32861 631.83002 -270.97461 631.75 L -270.61523 633.3457 C -271.00145 633.433 -271.37775 633.55984 -271.76367 633.64844 C -263.71021 678.59341 -251.39603 721.85305 -233.92969 762.20117 C -233.32965 761.89672 -232.73087 761.59117 -232.13086 761.28711 C -277.48448 656.43348 -288.62146 531.98206 -277.91992 408.4082 C -278.48359 407.19247 -279.02358 405.96616 -279.58203 404.74805 C -286.10147 477.1796 -285.00964 549.94262 -274.13867 619.05859 C -274.04548 619.03745 -273.95454 619.0074 -273.86133 618.98633 L -273.5 620.58203 C -273.62619 620.61056 -273.74884 620.65298 -273.875 620.68164 z "
       id="path7023"
       transform="scale(0.26458333)" />
    <path
       style="color:#000000;font-style:normal;font-variant:normal;font-weight:normal;font-stretch:normal;font-size:medium;line-height:normal;font-family:sans-serif;font-variant-ligatures:normal;font-variant-position:normal;font-variant-caps:normal;font-variant-numeric:normal;font-variant-alternates:normal;font-feature-settings:normal;text-indent:0;text-align:start;text-decoration:none;text-decoration-line:none;text-decoration-style:solid;text-decoration-color:#000000;letter-spacing:normal;word-spacing:normal;text-transform:none;writing-mode:lr-tb;direction:ltr;text-orientation:mixed;dominant-baseline:auto;baseline-shift:baseline;text-anchor:start;white-space:normal;shape-padding:0;clip-rule:nonzero;display:inline;overflow:visible;visibility:visible;opacity:1;isolation:auto;mix-blend-mode:normal;color-interpolation:sRGB;color-interpolation-filters:linearRGB;solid-color:#000000;solid-opacity:1;vector-effect:none;fill:#000000;fill-opacity:1;fill-rule:nonzero;stroke:none;stroke-width:1.99999988;stroke-linecap:butt;stroke-linejoin:miter;stroke-miterlimit:4;stroke-dasharray:none;stroke-dashoffset:0;stroke-opacity:1;color-rendering:auto;image-rendering:auto;shape-rendering:auto;text-rendering:auto;enable-background:accumulate"
       d="M -273.875 620.68164 C -273.74884 620.65298 -273.62619 620.61056 -273.5 620.58203 L -273.86133 618.98633 C -273.95454 619.0074 -274.04548 619.03745 -274.13867 619.05859 C -274.05341 619.60069 -273.96149 620.14 -273.875 620.68164 z "
       id="path7021"
       transform="scale(0.26458333)" />
    <path
       style="color:#000000;font-style:normal;font-variant:normal;font-weight:normal;font-stretch:normal;font-size:medium;line-height:normal;font-family:sans-serif;font-variant-ligatures:normal;font-variant-position:normal;font-variant-caps:normal;font-variant-numeric:normal;font-variant-alternates:normal;font-feature-settings:normal;text-indent:0;text-align:start;text-decoration:none;text-decoration-line:none;text-decoration-style:solid;text-decoration-color:#000000;letter-spacing:normal;word-spacing:normal;text-transform:none;writing-mode:lr-tb;direction:ltr;text-orientation:mixed;dominant-baseline:auto;baseline-shift:baseline;text-anchor:start;white-space:normal;shape-padding:0;clip-rule:nonzero;display:inline;overflow:visible;visibility:visible;opacity:1;isolation:auto;mix-blend-mode:normal;color-interpolation:sRGB;color-interpolation-filters:linearRGB;solid-color:#000000;solid-opacity:1;vector-effect:none;fill:#000000;fill-opacity:1;fill-rule:nonzero;stroke:none;stroke-width:1.99999988;stroke-linecap:butt;stroke-linejoin:miter;stroke-miterlimit:4;stroke-dasharray:none;stroke-dashoffset:0;stroke-opacity:1;color-rendering:auto;image-rendering:auto;shape-rendering:auto;text-rendering:auto;enable-background:accumulate"
       d="M -279.58203 404.74805 C -279.02358 405.96616 -278.48359 407.19247 -277.91992 408.4082 C -277.82291 407.28801 -277.68653 406.17082 -277.58594 405.05078 C -278.14543 403.83409 -278.69179 402.61164 -279.24609 401.39258 C -279.35041 402.51184 -279.48127 403.62858 -279.58203 404.74805 z "
       id="path6217"
       transform="scale(0.26458333)" />
    <path
       style="fill:#000000;stroke-width:0.21016513"
       d="M -43.810547 712.54883 C -44.083928 713.3507 -44.171435 713.61323 -44.435547 714.39062 C -42.390263 716.65597 -40.381274 718.96122 -38.318359 721.20703 C -34.072716 725.82909 -29.739376 730.35435 -25.410156 734.88281 C -23.720982 736.33805 -22.216884 737.98629 -20.814453 739.75391 C -20.770869 739.79879 -20.72914 739.84576 -20.685547 739.89062 C -14.725495 746.02518 -8.6779855 752.06087 -2.5273438 757.97852 C 1.0009756 761.37318 4.6451993 764.63558 8.2441406 767.94922 A 103.94469 345.06809 0 0 0 8.3378906 765.73242 C 5.1054281 762.74292 1.8203799 759.81549 -1.3554688 756.75977 C -7.4911556 750.85615 -13.525122 744.83346 -19.472656 738.71094 C -25.420191 732.58842 -31.280405 726.36668 -37.070312 720.0625 C -39.343184 717.58775 -41.55869 715.04758 -43.810547 712.54883 z "
       id="path7013"
       transform="scale(0.26458333)" />
    <path
       style="fill:#000000;stroke-width:0.21016513"
       d="M -43.810547 712.54883 C -41.55869 715.04758 -39.343184 717.58775 -37.070312 720.0625 C -31.280405 726.36668 -25.420191 732.58842 -19.472656 738.71094 C -13.525122 744.83346 -7.4911556 750.85615 -1.3554688 756.75977 C 1.8203799 759.81549 5.1054281 762.74292 8.3378906 765.73242 A 103.94469 345.06809 0 0 0 9.8320312 710.11523 A 103.94469 345.06809 0 0 0 8.9804688 669.52734 C 6.3993515 671.63904 3.1189272 673.96821 0.4296875 675.55859 C -0.24990058 675.96051 -3.2519993 677.65179 -6.2421875 679.31641 C -9.2323743 680.98106 -15.534285 684.57874 -20.246094 687.31055 C -27.98757 691.79892 -33.215592 694.62224 -37.123047 696.42383 L -38.515625 697.06641 L -40.148438 701.73242 C -41.548287 705.73452 -42.205428 707.84075 -43.810547 712.54883 z "
       id="path7011"
       transform="scale(0.26458333)" />
    <path
       style="fill:#000000;stroke-width:0.21016513"
       d="M 6.0410156 618.79297 C 1.7747145 621.88475 -2.4798431 624.99721 -6.7714844 628.04492 C -13.878141 633.09173 -21.023395 638.07188 -28.220703 642.9668 C -28.656572 643.26334 -29.102765 643.54585 -29.539062 643.8418 C -29.830128 644.69774 -30.093891 645.57257 -30.416016 646.38672 C -29.383767 645.68934 -28.330689 645.02098 -27.300781 644.32031 C -20.093274 639.41826 -12.940617 634.43121 -5.8261719 629.37891 C -1.8063711 626.52426 2.1771433 623.60779 6.1738281 620.71484 A 103.94469 345.06808 0 0 0 6.0410156 618.79297 z "
       id="path7068"
       transform="scale(0.26458333)" />
    <path
       style="fill:#000000;stroke-width:0.21016513"
       d="M -76.857422 674.45898 C -76.52048 674.24997 -76.174671 674.05299 -75.837891 673.84375 C -67.793872 668.84614 -59.79746 663.78533 -51.857422 658.64453 C -49.10722 656.86391 -46.405795 655.0152 -43.669922 653.21484 C -44.241854 652.2932 -44.733538 651.29252 -45.072266 650.08008 C -45.639335 648.0504 -45.605921 644.3926 -44.992188 641.48438 C -43.02774 632.17585 -36.333213 623.30904 -31.337891 623.19531 L -31.337891 623.19336 C -31.17675 623.18958 -31.016763 623.19698 -30.859375 623.21289 C -29.051469 623.38335 -28.002159 624.35613 -27.345703 626.4707 C -26.930627 627.80779 -26.869177 628.29754 -26.876953 630.20703 C -26.881942 631.41588 -26.999812 633.25261 -27.138672 634.28711 C -27.561008 637.4333 -28.473721 640.70893 -29.539062 643.8418 C -29.102765 643.54585 -28.656572 643.26334 -28.220703 642.9668 C -21.023395 638.07188 -13.878141 633.09173 -6.7714844 628.04492 C -2.4798431 624.99721 1.7747145 621.88475 6.0410156 618.79297 A 103.94469 345.06808 0 0 0 5.1972656 609.36328 A 421.61237 105.71246 0 0 0 -62.431641 607.83594 A 421.61237 105.71246 0 0 0 -130.34961 609.32031 C -121.65744 620.14508 -112.91793 630.9409 -104.10938 641.69141 C -95.092351 652.67808 -85.998074 663.59416 -76.857422 674.45898 z "
       id="path7066"
       transform="scale(0.26458333)" />
    <path
       style="fill:#000000;stroke-width:0.21016513"
       d="M -75.800781 675.73047 C -75.527781 675.56107 -75.247505 675.40197 -74.974609 675.23242 C -66.922948 670.22998 -58.918243 665.16453 -50.96875 660.01758 C -48.165169 658.20238 -45.410037 656.31825 -42.621094 654.48242 C -42.981032 654.07678 -43.378204 653.68493 -43.669922 653.21484 C -46.405795 655.0152 -49.10722 656.86391 -51.857422 658.64453 C -59.79746 663.78533 -67.793872 668.84614 -75.837891 673.84375 C -76.174671 674.05299 -76.52048 674.24997 -76.857422 674.45898 C -76.502849 674.88044 -76.155649 675.30933 -75.800781 675.73047 z "
       id="path7064"
       transform="scale(0.26458333)" />
    <path
       style="fill:#000000;stroke-width:0.21016513"
       d="M -34.166016 664.57422 C -29.359927 663.28582 -24.709526 662.03516 -17.650391 660.41797 C -11.163662 658.9319 -2.5833504 656.41171 2.078125 654.62305 C 3.391995 654.1189 5.6170017 653.34547 7.0214844 652.90625 C 7.7379585 652.68212 7.8172688 652.65376 8.3574219 652.48438 A 103.94469 345.06808 0 0 0 7.2304688 636.08984 C 5.3983657 637.4027 3.5883867 638.74142 1.75 640.04688 C -5.426756 645.14315 -12.65231 650.18145 -19.941406 655.14062 C -24.64888 658.34226 -29.417763 661.44088 -34.166016 664.57422 z "
       id="path7062"
       transform="scale(0.26458333)" />
    <path
       style="fill:#000000;stroke-width:0.21016513"
       d="M 7.0996094 634.16797 C 4.9963566 635.67709 2.9159933 637.21363 0.8046875 638.71289 C -6.3642798 643.80367 -13.58243 648.83508 -20.861328 653.78711 C -26.841906 657.85476 -32.88899 661.81412 -38.935547 665.77344 C -37.678149 665.41204 -35.553888 664.94628 -34.166016 664.57422 C -29.417763 661.44088 -24.64888 658.34226 -19.941406 655.14062 C -12.65231 650.18145 -5.426756 645.14315 1.75 640.04688 C 3.5883867 638.74142 5.3983657 637.4027 7.2304688 636.08984 A 103.94469 345.06808 0 0 0 7.0996094 634.16797 z "
       id="path7009"
       transform="scale(0.26458333)" />
    <path
       style="fill:#000000;stroke-width:0.21016513"
       d="m -10.748047,768.7832 c 0.202037,4.02484 2.5693231,10.03876 -0.228515,13.61133 -2.120008,2.70705 -6.643398,3.50368 -9.971586,2.64014 -5.812484,-1.50812 -9.549319,-7.56502 -12.976147,-12.49617 -4.978352,-7.16377 -9.025098,-15.01609 -16.69845,-17.46138 -4.417285,-1.40767 -9.638677,0.32306 -13.65625,2.63672 -15.12655,8.71117 -23.179118,26.11211 -34.39288,39.48928 -3.226225,3.84864 -6.885545,8.17011 -9.458985,11.72657 14.976085,0.49978 30.044749,0.76193 45.13086,0.78515 22.967154,-0.008 45.887277,-0.5703 68.4960938,-1.67968 C 6.12956,800.54383 6.686519,792.98352 7.1660156,785.36719 1.0812299,779.95214 -4.8742273,774.40725 -10.748047,768.7832 Z"
       id="path6999"
       transform="scale(0.26458333)"
       inkscape:connector-curvature="0"
       sodipodi:nodetypes="caasaaaccccc" />
    <path
       style="fill:#000000;stroke-width:0.21016513"
       d="M -10.748047 768.7832 C -4.8742273 774.40725 1.0812299 779.95214 7.1660156 785.36719 A 103.94469 345.06809 0 0 0 7.3242188 783.21094 C 1.2061127 777.74377 -4.8200514 772.18233 -10.726562 766.50195 C -10.796601 766.4346 -10.863583 766.36426 -10.933594 766.29688 C -10.827615 767.18379 -10.788058 767.98613 -10.748047 768.7832 z "
       id="path6997"
       transform="scale(0.26458333)" />
    <path
       style="fill:#000000;stroke-width:0.21016513"
       d="M -49.419922 729.11133 C -49.439662 729.18282 -49.818359 730.27468 -49.818359 730.28906 C -49.818359 730.77747 -49.603399 730.69644 -48.640625 729.97852 C -48.903631 729.69224 -49.157242 729.3979 -49.419922 729.11133 z "
       id="path6995"
       transform="scale(0.26458333)" />
    <path
       style="fill:#000000;stroke-width:0.21016513"
       d="M -49.419922 729.11133 C -49.157242 729.3979 -48.903631 729.69224 -48.640625 729.97852 C -48.564208 729.92153 -48.563773 729.9352 -48.476562 729.86914 C -48.070765 729.56176 -47.588727 729.36303 -47.134766 729.12305 C -47.695825 728.51271 -48.23728 727.8851 -48.796875 727.27344 C -48.872168 727.51349 -49.38911 728.99974 -49.419922 729.11133 z "
       id="path6993"
       transform="scale(0.26458333)" />
    <path
       style="fill:#000000;stroke-width:0.21016513"
       d="M -71.240234 704.56836 C -70.857954 705.00872 -70.480501 705.45265 -70.097656 705.89258 C -70.089957 705.79412 -70.033163 705.47855 -70.03125 705.41016 L -70 704.25586 L -70.658203 704.33984 C -70.804867 704.3585 -71.078222 704.53251 -71.240234 704.56836 z "
       id="path6991"
       transform="scale(0.26458333)" />
    <path
       style="fill:#000000;stroke-width:0.21016513"
       d="M -135.83008 709.70898 C -132.07821 707.52976 -128.31169 705.3905 -124.56641 703.19141 C -112.98165 696.38757 -101.533 689.39527 -90.074219 682.41797 C -98.741906 672.0892 -107.3828 661.73691 -115.89062 651.34766 C -121.58339 644.4075 -127.21575 637.38288 -132.88086 630.39844 A 103.94469 345.06807 0 0 0 -135.83008 709.70898 z "
       id="path7055"
       transform="scale(0.26458333)" />
    <path
       style="fill:#000000;stroke-width:0.21016513"
       d="M -135.80664 711.58594 C -131.78591 709.25272 -127.75029 706.95733 -123.73828 704.60156 C -112.07934 697.75436 -100.55253 690.71509 -89.017578 683.68945 C -89.372673 683.26697 -89.719491 682.84068 -90.074219 682.41797 C -101.533 689.39527 -112.98165 696.38757 -124.56641 703.19141 C -128.31169 705.3905 -132.07821 707.52976 -135.83008 709.70898 A 103.94469 345.06807 0 0 0 -135.83203 710.11523 A 103.94469 345.06807 0 0 0 -135.80664 711.58594 z "
       id="path7053"
       transform="scale(0.26458333)" />
    <path
       style="fill:#000000;stroke-width:0.21016513"
       d="m -135.55664,726.56055 c 0.3997,27.58879 1.79576,54.91849 4.1582,81.40234 1.95541,0.0855 3.91315,0.16683 5.87305,0.24414 2.04598,-4.33172 5.03623,-9.72331 7.50195,-13.43359 2.91625,-4.38819 4.9154,-7.17739 9.65039,-13.45703 2.27218,-3.01338 6.05328,-8.02848 8.402347,-11.14453 2.349056,-3.11611 5.531875,-7.45461 7.072265,-9.64258 3.262731,-4.63431 8.59216,-13.22177 10.722657,-17.27539 5.758363,-10.95614 9.470597,-21.70284 11.52539,-33.36329 0.287549,-1.63158 0.488919,-3.18197 0.552735,-3.99804 -0.382845,-0.43993 -0.760298,-0.88386 -1.142578,-1.32422 -2.161238,0.47823 -5.519209,2.31151 -8.972657,5.05273 -2.576859,2.04545 -9.397232,8.32173 -12.521484,11.52344 -4.925503,5.04756 -10.909945,11.19037 -12.433595,9.9082 -0.64205,-0.54032 -1.28441,-1.84471 -1.48242,-3.01171 -0.82088,-4.83799 6.680752,-17.74586 16.386718,-28.16016 0.141359,-0.15168 0.250859,-0.25133 0.390625,-0.40039 -9.07688,5.47604 -18.108283,11.04567 -27.238283,16.40625 -6.11767,3.59281 -12.28596,7.12854 -18.44531,10.67383 z"
       id="path7051"
       transform="scale(0.26458333)"
       inkscape:connector-curvature="0"
       sodipodi:nodetypes="ccccccccccccccscccc" />
    <path
       style="fill:#000000;stroke-width:0.21016513"
       d="M -85.341797 694.84375 C -96.186655 701.43003 -107.01075 708.05968 -117.93945 714.47656 C -123.79453 717.91508 -129.69707 721.29308 -135.58789 724.6875 A 103.94469 345.06807 0 0 0 -135.55664 726.56055 C -129.39729 723.01526 -123.229 719.47953 -117.11133 715.88672 C -107.98133 710.52614 -98.949927 704.95651 -89.873047 699.48047 C -88.253154 697.75284 -86.815797 696.3299 -85.341797 694.84375 z "
       id="path6989"
       transform="scale(0.26458333)" />
    <path
       style="fill:#000000;stroke:none;stroke-width:0.99999994px;stroke-linecap:butt;stroke-linejoin:miter;stroke-opacity:1"
       d="M -78.328125 675.34375 C -77.842144 675.04294 -77.343072 674.76025 -76.857422 674.45898 C -85.99819 663.59421 -95.092354 652.67808 -104.10938 641.69141 C -146.10883 590.4327 -187.4976 538.75811 -221.48438 482.57422 C -260.46198 418.23562 -289.65484 348.13278 -312.74805 276.19336 C -325.87174 234.77545 -337.21945 192.22812 -331.85352 150.78906 C -329.23643 130.09691 -322.62548 109.84964 -311.14648 92.933594 C -299.69857 76.063419 -283.34424 62.270825 -264.46875 55.703125 C -242.55486 47.836069 -217.30181 49.90694 -194.95898 58.4375 C -172.53132 67.018037 -152.70933 82.282786 -135.59766 100.0625 C -101.33765 135.84167 -78.329843 182.46477 -70.773438 231.42188 L -69.099609 231.16211 C -76.712126 181.85472 -99.871103 134.92936 -134.375 98.892578 C -151.59854 80.974416 -171.62348 65.573726 -194.34766 56.859375 C -217.00429 48.184498 -242.64945 46.107768 -265.03125 54.107422 C -284.294 60.830128 -300.92782 74.839998 -312.54883 91.988281 C -324.19447 109.17289 -330.89642 129.66457 -333.53125 150.58008 C -338.90341 192.45374 -327.53459 235.24384 -314.35938 276.71094 C -291.24074 348.74288 -261.99498 418.96533 -222.93359 483.45117 C -188.86567 539.75827 -147.42891 591.49725 -105.41797 642.76367 C -96.457957 653.68358 -87.41643 664.5383 -78.328125 675.34375 z "
       id="path7113"
       transform="scale(0.26458333)" />
    <path
       style="fill:#000000;stroke:none;stroke-width:0.99999994px;stroke-linecap:butt;stroke-linejoin:miter;stroke-opacity:1"
       d="M -77.269531 676.61523 C -76.783969 676.3146 -76.286019 676.03157 -75.800781 675.73047 C -76.155652 675.30933 -76.502844 674.88044 -76.857422 674.45898 C -77.343072 674.76025 -77.842144 675.04294 -78.328125 675.34375 C -77.973252 675.76567 -77.624706 676.19362 -77.269531 676.61523 z "
       id="path7111"
       transform="scale(0.26458333)" />
    <path
       style="fill:#000000;stroke:none;stroke-width:0.99999994px;stroke-linecap:butt;stroke-linejoin:miter;stroke-opacity:1"
       d="M -68.71875 686.73828 C -36.388226 724.57377 -2.5709104 760.85334 35.734375 791.92188 C 56.56155 808.84153 78.70033 824.22219 101.37305 838.875 C 120.8442 851.38425 140.53926 863.34686 161.93359 869.28711 C 172.61519 872.27672 183.65058 873.83845 194.49023 873.21094 C 205.3147 872.58131 216.02045 869.8499 225.2832 864.67188 C 238.32062 857.48949 248.64571 845.33372 254.73047 831.48047 C 260.87202 817.58364 262.72995 801.77732 262.23828 786.05664 C 261.08522 752.64558 248.60109 719.57386 227.38672 693.73633 C 206.18619 667.88742 176.18617 649.18651 143.64258 641.53516 L 143.25391 643.18359 C 175.42737 650.74518 205.12117 669.25249 226.07812 694.80859 C 247.05288 720.35011 259.40961 753.08473 260.54688 786.11523 C 261.01659 801.65722 259.20567 817.21794 253.17969 830.80273 C 247.22485 844.33579 237.1421 856.22557 224.46094 863.19336 C 215.45726 868.23703 204.99326 870.89767 194.39453 871.52148 C 183.77642 872.14257 172.92676 870.60087 162.39258 867.6582 C 141.28419 861.82299 121.74367 849.92904 102.29297 837.45312 C 79.652907 822.82 57.561612 807.47492 36.800781 790.60742 C -1.3229992 759.69733 -35.013766 723.56026 -67.259766 685.83398 C -67.530796 686.00261 -67.797243 686.17919 -68.068359 686.34766 C -68.283375 686.48126 -68.503681 686.60477 -68.71875 686.73828 z "
       id="path7107"
       transform="scale(0.26458333)" />
    <path
       style="fill:#000000;stroke:none;stroke-width:0.99999994px;stroke-linecap:butt;stroke-linejoin:miter;stroke-opacity:1"
       d="M -68.71875 686.73828 C -68.503681 686.60477 -68.283375 686.48126 -68.068359 686.34766 C -67.797243 686.17919 -67.530796 686.00261 -67.259766 685.83398 C -67.617764 685.41514 -67.982204 685.00322 -68.339844 684.58398 C -68.538098 684.70729 -68.733339 684.83577 -68.931641 684.95898 C -69.219593 685.13791 -69.514684 685.30367 -69.802734 685.48242 C -69.443664 685.90345 -69.07819 686.31764 -68.71875 686.73828 z "
       id="path7105"
       transform="scale(0.26458333)" />
    <path
       style="fill:#000000;stroke:none;stroke-width:0.99999994px;stroke-linecap:butt;stroke-linejoin:miter;stroke-opacity:1"
       d="M -79.029297 692.94922 C -79.519147 693.24886 -80.01382 693.5387 -80.503906 693.83789 C -47.473065 732.586 -12.61373 770.0492 27.199219 802.43164 C 48.557154 819.76837 71.091429 835.43751 94.025391 850.24805 C 113.66018 863.02379 134.57983 875.53796 158.26172 882.31836 C 170.12262 885.68346 182.63411 887.4095 195.24609 886.73047 C 207.87646 886.05416 220.52216 882.76246 231.85742 876.50977 C 247.74484 867.61038 260.01455 853.31323 267.13867 836.89844 C 274.20488 820.50504 276.43881 802.73649 275.77148 785.58594 C 274.49205 749.13066 260.98481 713.35227 237.85352 685.14648 C 214.70438 656.95533 182.24875 636.72489 146.74414 628.35547 L 146.35742 630.00391 C 181.49191 638.28357 213.63936 658.32231 236.54492 686.2207 C 259.43661 714.13044 272.81644 749.56981 274.08008 785.64453 C 274.72545 802.61639 272.53854 820.13938 265.58789 836.2207 C 258.59369 852.31529 246.56633 866.34451 231.03516 875.0293 C 219.95895 881.14763 207.55697 884.37057 195.15234 885.04102 C 182.7619 885.71362 170.43419 884.00761 158.7207 880.68945 C 135.32476 874.01409 114.55965 861.56858 94.945312 848.82617 C 72.044006 834.03533 49.557215 818.40371 28.265625 801.11914 C 28.265625 801.11914 28.265625 801.11719 28.265625 801.11719 C -11.357986 768.89985 -46.084862 731.58432 -79.029297 692.94922 z "
       id="path7103"
       transform="scale(0.26458333)" />
    <path
       style="fill:#000000;stroke:none;stroke-width:0.99999994px;stroke-linecap:butt;stroke-linejoin:miter;stroke-opacity:1"
       d="M -80.113281 691.69336 C -80.603111 691.99289 -81.097819 692.28294 -81.587891 692.58203 C -81.229729 693.00299 -80.862499 693.41723 -80.503906 693.83789 C -80.01382 693.5387 -79.519147 693.24886 -79.029297 692.94922 C -79.38799 692.52857 -79.755012 692.11432 -80.113281 691.69336 z "
       id="path7101"
       transform="scale(0.26458333)" />
    <path
       style="fill:#000000;stroke:none;stroke-width:0.99999994px;stroke-linecap:butt;stroke-linejoin:miter;stroke-opacity:1"
       d="M -88.605469 681.5332 C -89.093145 681.83073 -89.586252 682.12084 -90.074219 682.41797 C -89.719497 682.84067 -89.372667 683.26697 -89.017578 683.68945 C -88.529607 683.39224 -88.036516 683.1023 -87.548828 682.80469 C -87.903906 682.38234 -88.25075 681.95578 -88.605469 681.5332 z "
       id="path7097"
       transform="scale(0.26458333)" />
    <path
       style="fill:#000000;stroke:none;stroke-width:0.99999994px;stroke-linecap:butt;stroke-linejoin:miter;stroke-opacity:1"
       d="M -239.35352 35.677734 C -249.56502 36.113314 -259.73435 37.93828 -269.53125 41.335938 C -291.892 49.298688 -310.76763 65.040922 -323.77344 84.414062 C -336.75206 103.74712 -344.19192 126.20786 -346.96875 148.91016 C -352.39071 194.26062 -340.83934 238.98506 -327.25195 280.8457 C -303.92985 353.61774 -274.24721 424.80092 -234.51562 490.46484 C -199.79848 547.75795 -157.99337 600.01944 -115.89062 651.34766 C -107.38279 661.73691 -98.741741 672.08936 -90.074219 682.41797 C -89.586252 682.12084 -89.093145 681.83073 -88.605469 681.5332 C -97.325819 671.14462 -106.01791 660.7308 -114.58203 650.27539 C -156.6733 598.95489 -198.43041 546.75774 -233.06641 489.58789 C -272.71421 424.07122 -302.34396 353.00763 -325.64062 280.32812 C -339.17649 238.51667 -350.7048 194.03501 -345.28906 149.11914 C -342.52998 126.6402 -335.18306 104.42583 -322.37109 85.361328 C -309.53838 66.266293 -290.94226 50.741342 -268.96875 42.933594 C -268.96875 42.933594 -268.96875 42.931641 -268.96875 42.931641 C -243.31159 34.003816 -214.93142 36.121549 -190.07812 45.806641 C -165.27839 55.457664 -143.82305 71.81191 -125.81641 90.699219 C -89.605339 128.53935 -65.397871 177.59415 -57.392578 229.35352 L -55.71875 229.0957 C -63.780153 176.98607 -88.138801 127.62704 -124.59375 89.529297 C -142.71226 70.503541 -164.37251 54.013346 -189.46875 44.228516 C -205.19819 38.085137 -222.33434 34.951768 -239.35352 35.677734 z "
       id="path6745"
       transform="scale(0.26458333)" />
    <path
       style="fill:#000000;stroke:none;stroke-width:0.26458332px;stroke-linecap:butt;stroke-linejoin:miter;stroke-opacity:1"
       d="m 36.718367,79.064916 c 2.951408,-2.764484 6.846865,-4.566508 10.864592,-5.025921 1.513163,-0.175229 3.057859,-0.166228 4.592002,0.0011 2.651731,0.295554 5.247146,1.065364 7.53285,2.34507 2.238246,1.290515 4.227023,3.022446 5.118638,5.169017 2e-6,4e-6 4e-6,9e-6 6e-6,1.3e-5 0.58868,1.280648 0.812047,2.826393 0.965946,4.469127 0.750412,8.660896 -1.931286,17.503118 -6.339266,25.210828 -3e-6,0 -3e-6,0 -4e-6,1e-5 -4.424995,7.71908 -10.638033,14.39183 -17.305797,20.57168 -5e-6,1e-5 -9e-6,1e-5 -1.4e-5,1e-5 -8.522811,7.88112 -17.834204,14.95017 -27.198793,22.01153 -7.4009943,5.5776 -14.7983326,11.12053 -22.4154837,16.30098 -8.2688763,5.62568 -16.8306993,10.84791 -25.4911883,15.9343 -4.757658,2.79353 -9.529812,5.5373 -14.370167,8.1272 -6.10373,3.26693 -12.366838,6.31549 -18.589055,9.53074 -6e-6,0 -1.1e-5,0 -1.6e-5,1e-5 -7.371824,3.77966 -14.569707,7.76914 -22.282951,9.10225 -3.847926,0.67561 -7.796388,0.73132 -11.477352,-0.18768 -3.668594,-0.91736 -7.130354,-2.77704 -9.573324,-5.51821 0,0 0,-1e-5 -1e-5,-1e-5 -1.77497,-1.98427 -3.0641,-4.42078 -3.49744,-6.96996 -0.45611,-2.50925 -0.086,-5.20426 0.81651,-7.7068 0,0 0,-1e-5 0,-1e-5 1.22728,-3.40777 3.53868,-6.45079 6.29938,-9.01581 2.77091,-2.56629 6.056972,-4.64152 9.494657,-6.53958 7.690382,-4.22526 15.979095,-7.36743 24.537844,-9.30205 l -0.09543,-0.42214 c -8.598411,1.94359 -16.924783,5.10004 -24.650819,9.34487 -3.454672,1.9053 -6.769012,4.00088 -9.579492,6.60058 -2.8025,2.59867 -5.15162,5.69819 -6.41254,9.1853 0,1e-5 -10e-6,1e-5 -10e-6,2e-5 -0.92765,2.56267 -1.30436,5.33218 -0.83642,7.93027 0.45191,2.63866 1.77595,5.14684 3.60218,7.18497 2.51358,2.8131 6.04806,4.71632 9.791509,5.64883 3.753187,0.9338 7.761463,0.88003 11.656795,0.19348 7.804242,-1.35902 15.043007,-5.36236 22.405601,-9.14383 h 7e-6 c 6.216092,-3.21208 12.48104,-6.26161 18.594577,-9.53365 4.848056,-2.59409 9.625195,-5.34065 14.385121,-8.13558 8.664741,-5.08873 17.234653,-10.31607 25.5154539,-15.94965 7.62794477,-5.18801 15.0309758,-10.73502 22.4325621,-16.31321 9.365778,-7.06158 18.688251,-14.13989 27.232033,-22.0393 l 1.3e-5,-10e-6 c 6.686192,-6.19289 12.926344,-12.89962 17.387139,-20.6736 l 4e-6,-1e-5 c 4.447383,-7.76484 7.147825,-16.690949 6.395503,-25.462512 -0.151757,-1.664534 -0.386868,-3.256513 -1.00118,-4.607827 -0.952092,-2.256805 -3.002683,-4.056618 -5.30408,-5.372663 -2.341946,-1.309663 -4.991835,-2.096853 -7.696269,-2.397207 -1.564148,-0.170886 -3.141072,-0.179804 -4.688687,-8.75e-4 -4.11206,0.470864 -8.089585,2.310852 -11.110797,5.139814 z m -2.365262,-2.528557 c 3.509832,-3.280305 8.061832,-5.386043 12.834222,-5.937064 1.788776,-0.204821 3.591297,-0.196487 5.36548,-8.74e-4 3.073359,0.333958 6.104555,1.242802 8.840192,2.762169 2.743459,1.494751 5.226747,3.769734 6.602173,6.798175 2e-6,6e-6 5e-6,1.2e-5 8e-6,1.8e-5 0.793695,1.845947 1.111003,3.761522 1.247771,5.578614 0.765691,9.546256 -2.065974,19.059623 -6.789165,27.224253 l -5e-6,10e-6 c -4.711394,8.15827 -11.141343,15.10281 -17.95653,21.38704 l -1.4e-5,1e-5 c -8.690568,8.02749 -18.090598,15.17059 -27.464703,22.23366 -7.4057298,5.5824 -14.84861,11.15795 -22.5521102,16.39885 -8.3642708,5.6889 -16.9908028,10.95207 -25.6853148,16.05713 -4.775801,2.80469 -9.587829,5.57082 -14.48979,8.19429 -6.182189,3.30782 -12.460022,6.36413 -18.633231,9.55398 h -1.6e-5 c -7.297954,3.79409 -14.822878,7.89442 -23.264074,9.43479 -4.227179,0.7631 -8.654153,0.80334 -12.912888,-0.23409 -4.26741,-1.03846 -8.31097,-3.24642 -11.31873,-6.56305 0,0 -10e-6,-1e-5 -10e-6,-1e-5 -2.18504,-2.41516 -3.75346,-5.42502 -4.33532,-8.69004 -0.55083,-3.21996 -0.12768,-6.51091 0.97577,-9.4946 0,0 0,-1e-5 0,-2e-5 1.49646,-4.04248 4.10963,-7.53747 7.2047,-10.37172 3.08748,-2.8336 6.59978,-5.07152 10.173361,-7.0276 7.975612,-4.38177 16.565591,-7.63815 25.441639,-9.64466 l -0.09543,-0.42214 c -8.91571,2.0155 -17.543347,5.28615 -25.554612,9.68749 -3.590578,1.96333 -7.131138,4.22159 -10.258198,7.08859 -3.13687,2.86791 -5.78776,6.41939 -7.31785,10.54122 -2e-5,1e-5 -2e-5,1e-5 -2e-5,2e-5 -1.12855,3.04383 -1.55835,6.40927 -0.99567,9.71807 0.60043,3.35449 2.20376,6.43603 4.44006,8.90504 3.07835,3.38857 7.19464,5.64007 11.53691,6.69367 4.330952,1.05223 8.817739,1.01393 13.092323,0.23989 8.532192,-1.56628 16.097998,-5.68046 23.386722,-9.47636 2e-6,0 5e-6,0 7e-6,0 6.167083,-3.18667 12.446756,-6.24395 18.638753,-9.55688 4.909662,-2.62767 9.726674,-5.3966 14.504743,-8.20268 8.698764,-5.10739 17.333385,-10.37568 25.7095799,-16.07248 7.7142937,-5.24846 15.1628666,-10.82809 22.5691881,-16.41108 9.375294,-7.06329 18.786404,-14.21564 27.497943,-22.26143 3e-6,-1e-5 8e-6,-1e-5 1.2e-5,-1e-5 6.833615,-6.29728 13.290678,-13.27579 18.037871,-21.48896 l 5e-6,-2e-5 C 67.59145,104.95583 70.441859,95.358575 69.674258,85.701653 69.539632,83.862761 69.210579,81.900952 68.391252,79.984337 66.955351,76.845664 64.410249,74.5028 61.60364,72.98252 c -2.791878,-1.549324 -5.877546,-2.475547 -9.003608,-2.814306 -1.804187,-0.199144 -3.638937,-0.207396 -5.462164,0.0011 -4.86672,0.562471 -9.500787,2.706174 -13.080421,6.050955 z"
       id="path6781" />
    <path
       style="fill:#000000;stroke:none;stroke-width:0.99999994px;stroke-linecap:butt;stroke-linejoin:miter;stroke-opacity:1"
       d="M -129.39258 1063.2598 C -127.69736 1063.3995 -126.08164 1063.4565 -124.18945 1063.7969 C -124.16524 1063.8012 -124.13752 1063.8081 -124.11328 1063.8125 C -141.69049 1056.8566 -158.04305 1046.7401 -172.0625 1034.0605 C -182.63781 1024.5203 -191.96659 1013.4377 -200.55078 1001.6836 C -213.29898 984.09738 -224.21711 965.25875 -229.91992 945.00195 C -235.67238 924.55717 -236.30787 902.45052 -229.46484 882.88867 C -223.01115 864.12993 -209.70213 847.59004 -192.75781 837.27344 L -193.60938 835.87695 C -210.8863 846.40003 -224.42746 863.22762 -231.01172 882.35547 C -237.96559 902.30162 -237.3396 924.73641 -231.49414 945.45117 C -225.70355 965.96271 -214.70091 984.97344 -201.87305 1002.6484 C -193.24567 1014.4675 -183.84216 1025.6315 -173.16016 1035.2734 C -160.25915 1046.9411 -145.35475 1056.339 -129.39258 1063.2598 z "
       id="path7613"
       transform="scale(0.26458333)" />
    <path
       style="fill:#000000;stroke:none;stroke-width:0.99999994px;stroke-linecap:butt;stroke-linejoin:miter;stroke-opacity:1"
       d="M -131.63477 1074.7793 C -130.59581 1075.4673 -129.76935 1076.1619 -128.58789 1076.8516 C -128.50734 1076.8986 -128.40921 1076.949 -128.32812 1076.9961 L -128.07812 1076.3555 C -129.28726 1075.8845 -130.4369 1075.2777 -131.63477 1074.7793 z "
       id="path7607"
       transform="scale(0.26458333)" />
    <path
       style="fill:#000000;stroke:none;stroke-width:0.99999994px;stroke-linecap:butt;stroke-linejoin:miter;stroke-opacity:1"
       d="M -200.42383 824.70508 C -220.36159 836.87996 -235.75405 856.00747 -243.38281 878.08789 C -251.22343 901.10865 -250.66959 926.16258 -244.08008 949.03711 C -237.58721 971.58615 -225.91443 991.97041 -212.44922 1010.3555 C -203.47635 1022.694 -193.47305 1034.5234 -181.9375 1044.9785 C -166.54952 1058.8928 -148.6493 1069.9648 -129.35156 1077.5781 C -131.94558 1076.0681 -134.29233 1074.5539 -136.09961 1072.9492 A 0.49563568 0.49563568 0 0 1 -136.13281 1072.918 A 0.49563568 0.49563568 0 0 1 -136.16602 1072.8809 A 0.49563568 0.49563568 0 0 1 -136.19336 1072.8398 A 0.49563568 0.49563568 0 0 1 -136.2168 1072.7969 A 0.49563568 0.49563568 0 0 1 -136.23828 1072.752 A 0.49563568 0.49563568 0 0 1 -136.24219 1072.7363 C -152.47577 1065.4118 -167.62628 1055.714 -180.83984 1043.7656 C -192.26871 1033.4121 -202.19726 1021.6642 -211.12695 1009.3906 C -224.51249 991.09435 -236.10077 970.88223 -242.50586 948.58789 C -249.00238 925.98333 -249.56766 901.25755 -241.83789 878.62109 C -234.33969 856.90975 -219.17742 838.07 -199.57227 826.10156 L -200.42383 824.70508 z "
       id="path6793"
       transform="scale(0.26458333)" />
    <rect
       style="opacity:1;fill:none;fill-opacity:1;stroke:#000000;stroke-width:0.22918148;stroke-linecap:round;stroke-linejoin:round;stroke-miterlimit:4;stroke-dasharray:none;stroke-opacity:1;paint-order:normal"
       id="rect7214"
       width="25.804871"
       height="20.419491"
       x="114.87283"
       y="267.29517"
       transform="rotate(20.150375)" />
    <rect
       style="opacity:1;fill:#000000;fill-opacity:1;stroke:none;stroke-width:0.22976795;stroke-linecap:round;stroke-linejoin:round;stroke-miterlimit:4;stroke-dasharray:none;stroke-opacity:1;paint-order:normal"
       id="rect7296"
       width="25.804871"
       height="1.5630417"
       x="280.98495"
       y="332.22427"
       transform="matrix(0.93879174,0.34448522,-0.76772882,0.64077489,0,0)" />
    <path
       inkscape:connector-curvature="0"
       style="opacity:1;fill:#000000;fill-opacity:1;stroke:#000000;stroke-width:0.19124307;stroke-linecap:round;stroke-linejoin:round;stroke-miterlimit:4;stroke-dasharray:none;stroke-opacity:1;paint-order:normal"
       d="m -27.93617,289.24869 c -1.355647,3.69441 -3.659842,7.97831 0.433817,9.48046 v 0 l 34.78072,12.76262 1.1677851,-1.01307 -34.6147011,-12.7017 0.694486,-0.49583 z"
       id="rect7298" />
    <path
       inkscape:connector-curvature="0"
       style="opacity:1;fill:none;fill-opacity:1;stroke:#000000;stroke-width:0.26224765;stroke-linecap:round;stroke-linejoin:round;stroke-miterlimit:4;stroke-dasharray:none;stroke-opacity:1;paint-order:normal"
       d="m -17.096847,277.54276 c -3.195083,-1.17242 -6.682337,0.3773 -7.81895,3.4748 l -0.496767,1.35379 c -2.958643,0.64719 -7.096692,-1.05845 -9.624204,-1.00104 l -0.443432,1.20844 -0.443437,1.20846 c 1.890496,1.67858 6.149629,3.05425 7.987467,5.46148 l -0.496767,1.35379 c -1.136612,3.0975 0.520616,6.53497 3.715698,7.70739 l 33.1522557,12.16506 7.6203913,-20.76711 z"
       id="rect7212"
       sodipodi:nodetypes="sscccccssccs" />
    <rect
       style="opacity:1;fill:none;fill-opacity:1;stroke:#000000;stroke-width:0.30080754;stroke-linecap:round;stroke-linejoin:round;stroke-miterlimit:4;stroke-dasharray:none;stroke-opacity:1;paint-order:normal"
       id="rect7222"
       width="2.7824697"
       height="4.0609016"
       x="126.86832"
       y="269.98474"
       transform="rotate(20.150375)" />
    <rect
       y="280.9642"
       x="126.86832"
       height="4.0609016"
       width="2.7824697"
       id="rect7224"
       style="opacity:1;fill:none;fill-opacity:1;stroke:#000000;stroke-width:0.30080754;stroke-linecap:round;stroke-linejoin:round;stroke-miterlimit:4;stroke-dasharray:none;stroke-opacity:1;paint-order:normal"
       transform="rotate(20.150375)" />
    <path
       id="path7234"
       style="opacity:1;fill:none;fill-opacity:1;stroke:#000000;stroke-width:0.22560565;stroke-linecap:butt;stroke-linejoin:miter;stroke-miterlimit:4;stroke-dasharray:none;stroke-opacity:1"
       d="m 12.245324,300.09131 4.060837,1.49011 -0.683846,1.86362 2.188566,0.80308 0.683846,-1.86362 6.820625,2.5028 m 11.155371,4.09341 -4.233052,-1.5533 -0.683847,1.86362 -2.188566,-0.80308 0.683846,-1.86362 -6.64841,-2.43961"
       inkscape:connector-curvature="0"
       sodipodi:nodetypes="cccccccccccc" />
    <path
       style="opacity:1;fill:#000000;fill-opacity:1;stroke:none;stroke-width:0.99117225;stroke-linecap:round;stroke-linejoin:round;stroke-miterlimit:4;stroke-dasharray:none;stroke-opacity:1;paint-order:normal"
       d="M -132.18945 1061.2969 L -133.00781 1063.623 L -132.54688 1063.7852 L -134.09766 1068.0137 L -135.77344 1072.582 C -128.62826 1078.9263 -112.5321 1084.1245 -105.58594 1093.2227 L -107.46289 1098.3398 C -111.75875 1110.0469 -105.49582 1123.0395 -93.419922 1127.4707 L 31.880859 1173.4492 L 39.714844 1152.0977 A 45.618527 23.448773 20.150372 0 1 -0.0234375 1149.0156 A 45.618527 23.448773 20.150372 0 1 -34.771484 1111.2871 A 45.618527 23.448773 20.150372 0 1 -28.564453 1104.1738 A 50.308282 29.701782 20.150372 0 1 -56.396484 1099.2637 A 50.308282 29.701782 20.150372 0 1 -93.064453 1067.9473 L -95.925781 1066.8965 L -96.046875 1067.2305 C -96.301275 1067.286 -96.561419 1067.3324 -96.820312 1067.3789 A 8.487894 18.630539 20.150372 0 1 -110.55469 1080.3008 A 8.487894 18.630539 20.150372 0 1 -114.33984 1072.3379 A 7.3646105 23.801144 20.150372 0 1 -121 1076.3105 A 7.3646105 23.801144 20.150372 0 1 -123.31836 1065.9336 A 5.0927361 15.739592 20.150372 0 1 -127.73633 1068.3633 A 5.0927361 15.739592 20.150372 0 1 -129.5332 1063.5547 C -129.6845 1063.5417 -129.82732 1063.5382 -129.97656 1063.5273 L -129.52148 1062.2363 L -132.18945 1061.2969 z "
       transform="scale(0.26458333)"
       id="path7259" />
  </g>
</svg>
