<svg xmlns="http://www.w3.org/2000/svg" version="1.0" width="4312.000000pt" height="4731.000000pt" viewBox="0 0 4312.000000 4731.000000" preserveAspectRatio="xMidYMid meet">

<g transform="translate(0.000000,4731.000000) scale(0.100000,-0.100000)" fill="#ffffff" stroke="none">
<path d="M15110 47304 c-763 -65 -1389 -231 -2015 -534 -307 -148 -547 -295 -859 -524 -768 -566 -1384 -1213 -1818 -1911 -559 -899 -852 -1868 -919 -3035 -13 -225 -7 -826 10 -1045 86 -1078 309 -2113 726 -3360 508 -1522 1283 -3240 2376 -5271 104 -193 189 -355 189 -359 0 -4 -26 -78 -59 -164 -109 -292 -215 -635 -370 -1201 -132 -485 -369 -1621 -471 -2265 -341 -2149 -510 -3857 -592 -6000 -21 -532 -17 -2362 5 -2845 43 -957 113 -1723 223 -2450 186 -1235 539 -2715 1014 -4245 407 -1311 1016 -2926 1599 -4240 61 -137 107 -252 103 -256 -4 -4 -108 -36 -232 -72 -913 -267 -1915 -511 -2825 -691 -2625 -517 -5015 -647 -6799 -370 -1119 174 -1972 496 -2558 966 -581 466 -935 1208 -1045 2190 -23 212 -23 719 1 943 47 443 125 800 266 1225 206 620 515 1212 930 1785 350 482 823 989 1320 1415 728 624 1647 1212 2605 1667 1622 770 3370 1320 5080 1598 189 30 209 34 202 41 -11 11 -646 -57 -1047 -112 -2914 -398 -5557 -1314 -7275 -2522 -1067 -750 -1805 -1569 -2289 -2542 -327 -658 -508 -1321 -571 -2088 -17 -209 -20 -740 -5 -964 187 -2750 1722 -4316 4575 -4667 765 -95 1611 -101 2580 -21 1922 160 4263 692 6931 1574 l401 133 144 -301 c577 -1210 1198 -2340 1847 -3361 564 -887 1307 -1801 1767 -2176 385 -313 959 -609 1570 -809 455 -148 1107 -288 1680 -360 1433 -178 3074 -39 4260 362 732 248 1272 554 1689 958 491 475 1058 1244 1745 2364 258 421 623 1060 852 1493 30 57 57 103 60 103 3 0 105 -107 225 -237 827 -896 1629 -1680 2359 -2307 1590 -1366 2929 -2106 4115 -2273 97 -14 191 -18 425 -17 329 0 425 10 675 74 505 128 963 416 1360 855 508 560 771 1111 866 1810 25 183 25 614 0 815 -75 613 -256 1182 -590 1850 -730 1458 -2124 3107 -4066 4808 -553 485 -1210 1018 -1750 1419 -233 173 -245 181 -239 166 2 -6 85 -74 184 -153 1377 -1096 2859 -2531 3857 -3731 1241 -1494 1970 -2815 2192 -3974 50 -263 61 -389 60 -700 0 -249 -3 -310 -23 -434 -94 -609 -367 -1155 -772 -1547 -205 -198 -417 -327 -675 -413 -392 -131 -809 -131 -1319 -1 -1068 272 -2411 1140 -3989 2580 -633 578 -1501 1449 -2208 2218 l-177 192 96 198 c586 1212 1029 2230 1478 3402 586 1528 1049 3041 1393 4560 147 646 281 1420 352 2026 l12 102 426 285 c1824 1218 3298 2364 4612 3583 280 259 908 886 1141 1139 1837 1990 2815 3798 2975 5495 23 247 15 758 -15 980 -103 752 -370 1373 -849 1977 -47 59 -183 205 -301 323 -530 528 -1100 879 -1716 1055 -392 112 -705 151 -1159 142 -456 -9 -828 -65 -1301 -199 -1354 -381 -2951 -1361 -4363 -2677 -73 -68 -134 -122 -136 -120 -3 5 -119 601 -207 1064 -85 443 -130 704 -204 1170 -36 226 -74 442 -85 482 -84 305 -316 609 -679 887 -343 262 -882 547 -1371 726 l-116 42 -57 193 c-32 107 -62 220 -68 253 -12 68 26 43 -319 207 -1423 676 -3084 1197 -4525 1419 -744 115 -1369 160 -1682 121 -301 -37 -648 -129 -938 -249 l-104 -43 -133 85 c-218 139 -260 164 -333 198 -157 73 -335 114 -493 114 -201 1 -879 -56 -1272 -106 -1209 -154 -2570 -505 -4070 -1052 -450 -164 -1036 -401 -1376 -556 l-81 -37 -7 -91 c-3 -50 -6 -178 -6 -283 l0 -192 -37 -7 c-21 -3 -60 -6 -88 -6 -83 0 -321 -38 -475 -76 -360 -88 -681 -243 -958 -461 -83 -66 -253 -234 -322 -318 -22 -27 -45 -50 -51 -50 -31 0 -864 1658 -1226 2440 -1957 4226 -2387 7144 -1363 9250 487 1001 1311 1818 2485 2465 305 168 808 401 1095 508 371 138 762 228 1130 262 148 13 482 13 630 0 864 -78 1692 -458 2496 -1145 164 -139 498 -467 668 -655 860 -949 1677 -2271 2412 -3908 603 -1341 1141 -2848 1604 -4492 124 -442 292 -1096 361 -1410 43 -192 31 -74 -16 168 -176 900 -441 2001 -711 2952 -842 2959 -1882 5254 -3029 6680 -591 735 -1199 1236 -1940 1600 -561 276 -1077 425 -1750 506 -123 15 -822 28 -945 18z m7042 -12069 c176 -30 334 -97 583 -245 77 -45 142 -84 144 -86 2 -2 -8 -106 -23 -231 -70 -599 -113 -1259 -136 -2098 -6 -203 -14 -371 -18 -373 -30 -10 -134 -89 -188 -142 -158 -155 -292 -379 -417 -695 -457 -1162 -552 -2960 -231 -4410 137 -620 324 -1121 542 -1450 83 -126 196 -251 271 -301 l44 -29 -7 -110 c-14 -242 -19 -1410 -7 -1845 29 -1118 92 -2166 182 -3020 22 -218 23 -227 34 -392 l8 -118 31 0 c17 0 37 4 44 8 15 10 32 144 36 292 2 58 15 229 30 380 52 564 95 1286 128 2165 17 452 16 1811 -1 2312 l-13 403 53 57 c344 375 681 1384 813 2433 48 379 60 577 60 1010 1 426 -7 571 -49 933 -126 1069 -469 2034 -857 2408 l-68 66 -10 319 c-21 662 -66 1380 -116 1849 -19 184 -64 535 -70 557 -6 21 15 30 206 94 250 84 550 150 794 175 281 28 723 -13 1416 -132 1357 -232 2767 -672 4105 -1281 212 -97 772 -372 788 -387 4 -4 25 -73 46 -152 21 -79 53 -199 72 -266 l34 -123 50 -16 c110 -36 421 -171 610 -264 470 -232 808 -459 1055 -709 186 -189 294 -358 339 -536 11 -44 41 -233 66 -420 76 -559 139 -948 331 -2040 308 -1754 438 -2652 539 -3725 95 -1024 149 -2004 176 -3240 13 -577 7 -2107 -11 -2640 -5 -173 -17 -522 -25 -775 -21 -653 -47 -1030 -102 -1502 l-6 -52 -501 -300 c-974 -581 -2217 -1300 -3741 -2163 -1101 -623 -2204 -1221 -3357 -1817 l-197 -102 -103 138 c-878 1186 -1841 2538 -2790 3918 -770 1120 -1890 2799 -2388 3580 -84 132 -156 242 -160 245 -23 16 -1124 1746 -1715 2695 -1088 1745 -3106 5094 -3656 6069 -6 10 -124 217 -263 460 -390 680 -1030 1830 -1159 2082 -16 31 -16 31 40 115 207 313 500 557 843 704 325 139 704 219 1022 215 l98 -1 2 336 3 336 185 85 c1269 586 2859 1139 4090 1423 575 133 1328 263 1735 301 448 42 610 47 737 25z m17725 -4250 c1062 -112 1752 -694 2048 -1729 232 -812 332 -1745 274 -2566 -95 -1354 -595 -2650 -1506 -3908 -371 -512 -755 -956 -1297 -1497 -331 -331 -516 -505 -836 -786 -1083 -949 -2455 -1937 -4270 -3076 -151 -94 -275 -171 -277 -170 -1 1 2 50 7 107 68 793 79 3389 20 4875 -85 2138 -280 3818 -695 5987 -36 187 -64 342 -63 343 2 2 77 50 168 107 1164 735 2419 1374 3481 1771 848 318 1569 494 2254 550 129 11 560 6 692 -8z m-26766 -272 c411 -735 1404 -2441 1484 -2548 21 -28 602 -987 670 -1105 78 -135 825 -1341 1367 -2203 377 -602 2581 -4093 2623 -4157 30 -46 580 -925 988 -1580 176 -283 485 -778 685 -1100 1257 -2014 2495 -3895 3711 -5640 l191 -275 -472 -235 c-1288 -641 -2745 -1321 -4143 -1935 -1062 -466 -1863 -802 -3280 -1377 -379 -154 -760 -309 -845 -345 -85 -36 -225 -90 -310 -120 -225 -80 -893 -303 -896 -300 -2 2 -58 124 -125 273 -1068 2373 -1831 4589 -2364 6859 -181 770 -313 1491 -410 2235 -22 170 -72 700 -105 1105 -24 298 -60 1051 -71 1482 -13 520 -7 2025 10 2473 38 981 73 1547 152 2490 72 867 202 2025 299 2670 180 1195 327 1951 536 2750 67 254 210 730 220 730 1 0 39 -66 85 -147z m20224 -14485 c-2 -13 -16 -93 -29 -178 -209 -1308 -698 -3139 -1264 -4730 -338 -953 -819 -2137 -1280 -3150 -234 -515 -599 -1280 -611 -1280 -4 0 -108 116 -232 258 -1198 1368 -2391 2846 -3767 4664 l-201 266 362 188 c2376 1230 5183 2818 6817 3858 107 68 198 124 203 125 4 1 5 -9 2 -21z m-7892 -4984 c1407 -1966 2849 -3808 4105 -5244 51 -57 92 -108 92 -113 0 -12 -262 -497 -433 -802 -700 -1247 -1392 -2291 -1917 -2890 -298 -340 -516 -530 -830 -720 -271 -165 -736 -358 -1144 -476 -452 -131 -1059 -238 -1631 -289 -521 -45 -1262 -43 -1810 6 -707 63 -1512 231 -2032 425 -585 218 -1015 470 -1346 789 -182 175 -507 550 -771 889 -703 904 -1510 2256 -2320 3886 -235 474 -292 593 -285 598 2 2 141 52 309 111 2629 934 5943 2371 9080 3938 338 169 620 306 627 305 6 -1 144 -187 306 -413z" fill="#ffffff"/>
</g>
</svg>